<?xml version="1.0" encoding="utf-8"?>
<!-- Generator: Adobe Illustrator 21.0.2, SVG Export Plug-In . SVG Version: 6.00 Build 0)  -->
<svg version="1.1" id="Capa_1" xmlns="http://www.w3.org/2000/svg" xmlns:xlink="http://www.w3.org/1999/xlink" x="0px" y="0px"
	 viewBox="0 0 512 99" style="enable-background:new 0 0 512 99;" xml:space="preserve">
<style type="text/css">
	.st0{fill:none;}
	.st1{fill:#E3D752;}
	.st2{fill-rule:evenodd;clip-rule:evenodd;fill:url(#XMLID_2_);}
	.st3{fill-rule:evenodd;clip-rule:evenodd;fill:url(#XMLID_3_);}
	.st4{fill-rule:evenodd;clip-rule:evenodd;fill:url(#XMLID_4_);}
	.st5{fill-rule:evenodd;clip-rule:evenodd;fill:url(#XMLID_5_);}
	.st6{fill-rule:evenodd;clip-rule:evenodd;fill:url(#XMLID_6_);}
	.st7{fill-rule:evenodd;clip-rule:evenodd;fill:url(#XMLID_7_);}
	.st8{fill-rule:evenodd;clip-rule:evenodd;fill:url(#XMLID_8_);}
	.st9{fill-rule:evenodd;clip-rule:evenodd;fill:url(#XMLID_9_);}
	.st10{fill-rule:evenodd;clip-rule:evenodd;fill:url(#XMLID_10_);}
	.st11{fill-rule:evenodd;clip-rule:evenodd;fill:url(#XMLID_11_);}
	.st12{fill-rule:evenodd;clip-rule:evenodd;fill:url(#XMLID_12_);}
	.st13{fill-rule:evenodd;clip-rule:evenodd;fill:url(#XMLID_13_);}
	.st14{fill-rule:evenodd;clip-rule:evenodd;fill:url(#XMLID_14_);}
	.st15{fill-rule:evenodd;clip-rule:evenodd;fill:url(#XMLID_15_);}
	.st16{fill-rule:evenodd;clip-rule:evenodd;fill:url(#XMLID_16_);}
	.st17{fill-rule:evenodd;clip-rule:evenodd;fill:url(#XMLID_17_);}
	.st18{fill-rule:evenodd;clip-rule:evenodd;fill:url(#XMLID_18_);}
	.st19{fill-rule:evenodd;clip-rule:evenodd;fill:url(#XMLID_19_);}
	.st20{fill-rule:evenodd;clip-rule:evenodd;fill:url(#XMLID_20_);}
	.st21{fill-rule:evenodd;clip-rule:evenodd;fill:url(#XMLID_21_);}
	.st22{fill-rule:evenodd;clip-rule:evenodd;fill:url(#XMLID_22_);}
	.st23{fill-rule:evenodd;clip-rule:evenodd;fill:url(#XMLID_23_);}
	.st24{fill-rule:evenodd;clip-rule:evenodd;fill:url(#XMLID_24_);}
	.st25{fill-rule:evenodd;clip-rule:evenodd;fill:url(#XMLID_25_);}
	.st26{fill-rule:evenodd;clip-rule:evenodd;fill:url(#XMLID_26_);}
	.st27{fill-rule:evenodd;clip-rule:evenodd;fill:url(#XMLID_27_);}
	.st28{fill-rule:evenodd;clip-rule:evenodd;fill:url(#XMLID_28_);}
	.st29{fill-rule:evenodd;clip-rule:evenodd;fill:url(#XMLID_29_);}
	.st30{fill-rule:evenodd;clip-rule:evenodd;fill:url(#XMLID_30_);}
	.st31{fill-rule:evenodd;clip-rule:evenodd;fill:url(#XMLID_31_);}
	.st32{fill-rule:evenodd;clip-rule:evenodd;fill:url(#XMLID_32_);}
	.st33{fill-rule:evenodd;clip-rule:evenodd;fill:url(#SVGID_1_);}
	.st34{fill-rule:evenodd;clip-rule:evenodd;fill:url(#SVGID_2_);}
	.st35{fill:#FFED98;}
</style>
<path class="st0" d="M487.5,96.1C487.5,96.1,487.5,96.1,487.5,96.1C487.5,96.1,487.5,96.1,487.5,96.1L487.5,96.1z"/>
<polygon class="st0" points="310.9,35.4 310.9,35.4 310.9,35.4 "/>
<path class="st0" d="M323.2,63.4l0.1-0.1c0,0,0,0,0,0c-0.1,0-0.2,0.1-0.3,0.1C323,63.5,323.1,63.5,323.2,63.4
	C323.1,63.5,323.2,63.4,323.2,63.4z"/>
<path class="st0" d="M356.7,9.3C356.7,9.3,356.7,9.3,356.7,9.3C356.7,9.4,356.7,9.4,356.7,9.3L356.7,9.3z"/>
<path class="st0" d="M319.2,26.1C319.5,26.1,319.6,25.7,319.2,26.1L319.2,26.1z"/>
<path class="st0" d="M332.2,17.1C332.2,17.1,332.2,17.1,332.2,17.1C332.2,17.1,332.2,17.1,332.2,17.1L332.2,17.1z"/>
<polygon class="st0" points="486,97.1 486,97.1 486,97.1 "/>
<polygon class="st1" points="364.5,92.6 364.4,92.6 364.4,92.6 "/>
<path class="st1" d="M349.2,90.7c0,0.1,0.2,0.3,0.3,0.3c0.6,0.2,1.1-0.1,1.7-0.2c-0.5-0.2-1-0.4-1.6-0.4
	C349.3,90.4,349.2,90.5,349.2,90.7z"/>
<path class="st1" d="M351,89.9c-0.1-0.1,0-0.1-0.1-0.1c0,0,0,0,0,0l0,0.1L351,89.9z"/>
<polygon class="st1" points="351.2,90.8 351.2,90.8 351.2,90.8 "/>
<path class="st1" d="M309.4,66.8L309.4,66.8C309.4,66.8,309.4,66.8,309.4,66.8C309.4,66.8,309.4,66.8,309.4,66.8z"/>
<path class="st1" d="M329,18.2C329,18.1,329,18.1,329,18.2C329,18.1,329,18.1,329,18.2L329,18.2z"/>
<path class="st1" d="M308.1,66.5c-0.1,0-0.2,0.1-0.3,0.1c0.1,0.1,0.2,0.1,0.3,0.2c0.5,0.1,0.9,0.1,1.3-0.1
	C309,66.6,308.5,66.5,308.1,66.5z"/>
<path class="st1" d="M309.4,66.8C309.4,66.8,309.4,66.8,309.4,66.8C309.4,66.8,309.4,66.8,309.4,66.8
	C309.4,66.8,309.4,66.8,309.4,66.8z"/>
<path class="st1" d="M355.2,9.4c0.1,0,0.2,0,0.3,0C355.4,9.3,355.3,9.2,355.2,9.4z"/>
<polygon class="st1" points="452.7,0.3 452.7,0.3 452.7,0.3 "/>
<path class="st1" d="M350.6,10.4c1.6-0.2,3-0.9,4.5-0.9h0c0,0,0-0.1,0-0.1c-2.7,0.2-3.3,0.4-4.8,0.9
	C350.5,10.6,350.5,10.4,350.6,10.4z"/>
<linearGradient id="XMLID_2_" gradientUnits="userSpaceOnUse" x1="-73.3212" y1="6597.9072" x2="-68.5446" y2="6419.3901" gradientTransform="matrix(1.253 -1.801705e-02 3.333130e-02 0.5319 238.6018 -3415.7161)">
	<stop  offset="2.512563e-02" style="stop-color:#5E4C1E"/>
	<stop  offset="0.293" style="stop-color:#635225"/>
	<stop  offset="0.6771" style="stop-color:#706438"/>
	<stop  offset="1" style="stop-color:#7F774D"/>
</linearGradient>
<path id="XMLID_482_" class="st2" d="M367.8,7.2c0.5,0,1,0.1,1.6,0.1c0.4,0,0.8,0,1.3-0.1c0.2,0,0.4-0.1,0.4-0.2
	c0-0.1-0.1-0.2-0.3-0.2c-0.7-0.1-1.4-0.2-2-0.3c-1.3-0.1-2.6-0.2-3.9-0.3c-0.9,0.1-1.8,0-2.6,0.1C363.7,7.1,365.6,7.4,367.8,7.2z"/>
<linearGradient id="XMLID_3_" gradientUnits="userSpaceOnUse" x1="-350.8671" y1="6590.4839" x2="-346.0904" y2="6411.9634" gradientTransform="matrix(1.253 -1.801705e-02 3.333130e-02 0.5319 238.6018 -3415.7161)">
	<stop  offset="2.512563e-02" style="stop-color:#5E4C1E"/>
	<stop  offset="0.293" style="stop-color:#635225"/>
	<stop  offset="0.6771" style="stop-color:#706438"/>
	<stop  offset="1" style="stop-color:#7F774D"/>
</linearGradient>
<path id="XMLID_481_" class="st3" d="M15.2,54.7c-0.8,0-1.5-0.1-2.3,0c-0.4,0.1-0.6,0.2-0.5,0.4c0.1,0.2,0.5,0.3,0.9,0.3
	c1.6-0.3,3.1-0.2,4.7-0.1c0.4,0,0.9,0,1.3,0c1.9,0.1,3.5-0.4,5.4-0.4c0.1,0,0.2-0.1,0.3-0.2c0,0-0.1-0.1-0.1-0.1
	c-0.8-0.3-1.6-0.4-2.6-0.1c-0.4,0.1-0.8,0.3-1.2,0.1c-1.1-0.4-2.2-0.2-3.3,0C16.8,54.8,16,54.8,15.2,54.7z"/>
<linearGradient id="XMLID_4_" gradientUnits="userSpaceOnUse" x1="-318.9008" y1="6591.3379" x2="-314.1242" y2="6412.8208" gradientTransform="matrix(1.253 -1.801705e-02 3.333130e-02 0.5319 238.6018 -3415.7161)">
	<stop  offset="2.512563e-02" style="stop-color:#5E4C1E"/>
	<stop  offset="0.293" style="stop-color:#635225"/>
	<stop  offset="0.6771" style="stop-color:#706438"/>
	<stop  offset="1" style="stop-color:#7F774D"/>
</linearGradient>
<path id="XMLID_479_" class="st4" d="M62.5,87.4c-1.4-0.1-2.1-0.2-2.8-0.2c-0.5,0-1-0.1-1.6-0.1c-2.1,0-3.5,0.1-3.1,0.3
	c0.7,0.4,1.9,0.4,2.9,0.4C59.3,87.9,60.6,87.8,62.5,87.4z"/>
<linearGradient id="XMLID_5_" gradientUnits="userSpaceOnUse" x1="-290.6758" y1="6592.0952" x2="-285.8991" y2="6413.5752" gradientTransform="matrix(1.253 -1.801705e-02 3.333130e-02 0.5319 238.6018 -3415.7161)">
	<stop  offset="2.512563e-02" style="stop-color:#5E4C1E"/>
	<stop  offset="0.293" style="stop-color:#635225"/>
	<stop  offset="0.6771" style="stop-color:#706438"/>
	<stop  offset="1" style="stop-color:#7F774D"/>
</linearGradient>
<path id="XMLID_478_" class="st5" d="M25,17.3l0,0.2c0,0-0.1,0-0.1,0c0.1,0.2,0.2-0.2,0.3-0.3l0,0.4c0.1,0,0.1,0.1,0.1,0.1l0,0.1
	c0,0-0.1,0-0.1,0l0,0.1c0,0-0.1-0.1-0.1-0.1c-0.2,0-0.4-0.1-0.4-0.1c0.2,0,0.2,0,0.4,0.1c0,0,0.1,0,0.1,0l0-0.1
	c-0.1-0.1-0.3-0.1-0.4-0.2c-0.3,0-0.7,0-1,0.1c-0.1,0.1-0.2,0.2-0.4,0.4c0.4,0,0.7-0.1,1.1-0.1c-0.5,0.3-1.1,0.5-1.8,0.6
	c-1.7,1-3.3,0.2-5.1,0.4c-0.3,0-0.7,1.4-0.8,1.6c-0.1,0.2,0.4,0.3,0.8,0.3c0.8,0,1.5,0.1,2.1,0.3c1.1,0.4,2,0.1,2.2-0.3
	c0.4-0.7,1.4-1.1,2.6-1.5c0.4,0,0.8,0,1.3,0c0.2-0.1,0.4-0.2,0.7-0.2c0.2,0,0.4,0,0.6,0c0.2,0.1,0.4,0.2,0.6,0.3
	c-0.5,0.1-1,0.2-1.4,0.4c-0.6,0.2-0.5,0.5,0.1,0.7c0.7,0.2,1.4,0.2,2.1,0.1c0.9-0.2,0.6-0.5,0.6-0.8c0.4,0,0.8,0,1.2,0
	c1.8,0.1,2.4-0.4,2.7-1c0.2,0,0.5-0.1,0.7-0.1c0.2,0,0.4,0,0.5,0c0.3-0.1,0.5-0.1,0.8-0.2c0.2,0,0.4,0,0.5-0.1
	c0.3-0.1,0.5-0.1,0.8-0.2c0.4,0,0.8,0,1.2-0.1c0.6,0,1.1,0,1.6-0.2c0.1,0,0.2,0,0.3-0.1c1.3-0.1,2.5-0.2,3.8-0.3
	c0-0.1,0.1-0.2,0.1-0.2c2.9,0.2,5.3-0.3,7.6-0.9c1.2-0.3,2.3-0.7,3.4-1c0.2-0.1,0.4-0.2,0.7-0.3l0,0c0.5,0,1.2,0,1.6-0.1
	c2.5-0.6,5.1-0.6,7.8-0.8c2.6-0.2,5.1-0.4,7.6-0.6c0.5,0,1.2-0.1,1.1-0.4c-0.1-0.3-0.6-0.3-1.1-0.3c-0.3,0-0.4-0.1-0.7,0
	c-2.5,0.3-4.7,0.1-7.2,0.4c-2.6,0.3-4.8,0.3-6.7,1c0,0,0,0,0,0c0,0-1.2,0.1-1.4,0.2c-0.6,0-1.9,0.1-2.4,0.2c-0.1,0-0.2,0-0.2,0.1
	l0,0l-0.2,0c-1.2,0-2.7,0.3-3.8-0.2c-0.2-0.1-0.8-0.1-1.2,0c-0.6,0-0.9,0.2-1,0.4c-0.3,0.6-0.8,0.7-1.8,0.7c-0.7,0-1.3-0.1-1.7-0.3
	c-0.5-0.3-1.4-0.4-2.2-0.5c0.5-0.1,0.9-0.2,1.4-0.3c0.4-0.1,0.9-0.1,1.2-0.2c0.7-0.1,1.4-0.3,2.2-0.2c2.6,0.2,4.8-0.3,7.1-0.6
	c1.1-0.2,2-0.3,3.1-0.2c2.1,0.3,4,0,5.9-0.5c0.3-0.1,0.6-0.2,0.3-0.3c-0.2-0.1-0.6-0.1-0.8-0.1c-0.4,0-0.8,0.1-1.2,0.1
	c-0.6,0.1-1.5,0.3-1.7,0.1c-0.5-0.4,0.8-0.4,1.3-0.6c0.6-0.3,1.4-0.3,2.3-0.3c2.4,0.1,4.6-0.4,6.9-0.6c0.7,0.1,0.7,0.5,1.3,0.5
	c1.5,0.1,3,0.1,4.3-0.3c0.3-0.1,0.3-0.3,0-0.3c-0.3-0.1-0.6-0.2-1-0.2c0.4-0.3,1.4-0.4,1.6-0.7l0,0l0,0c0.2-0.4,2,0,3.5-0.4l0,0
	c1.1,0.1,1.9,0.3,3.1,0.1c1.5-0.3,3-0.3,4.5-0.7c1.4-0.4,3-0.5,4.7-0.4c1.3,0.1,2.5,0.2,3.7-0.3c0.3-0.1,0.8,0,1.2,0
	c1.9,0.1,3.9-0.1,5.8-0.2c0.5,0,0.6-0.2,0.5-0.4c0.4-0.3,1-0.5,1.4-0.8l0.1,0c0,0,0.4,0,0.4,0v0c0,0.1,0.8,0.2,1.5,0.1
	c3-0.2,5.6-0.4,8.5-0.1c0.5,0.1,1.1,0,1.4-0.2c0.7-0.4,1.8-0.5,2.9-0.5c1.7-0.1,3.4-0.2,5.1-0.3c3.8-0.2,7.7-0.4,11.5-0.6
	c0.2,0,0.4,0,0.6-0.1c0.1,0,0.3-0.1,0.4-0.1c-0.1,0-0.2,0-0.3,0.1c0.7,0,1.5,0,2.2-0.1c0.2,0,0.6-0.1,0.7-0.1l0.4,0v0c0,0,0,0,0,0
	l-1,0c1.9,0,3.9-0.2,5.8-0.3C144.1,4,144,4,143.9,4c0.1,0,0.3,0,0.4,0.1c0,0-0.1,0-0.1,0c0,0,0.1,0,0.1,0c0.3-0.1,0.6-0.1,0.5-0.3
	c-0.1-0.2-0.7-0.2-0.5-0.5c1-0.1,2-0.2,3.1-0.2c0.7,0,1.2,0.2,1.5,0.4c1.6,0.4,3.4,0.3,5,0.2c3.1-0.2,6.2-0.2,9.3-0.3
	c1.2,0,2.4,0,3.5-0.1c1.6-0.1,3.1-0.2,4.7-0.2c-0.2,0-0.3,0-0.5,0c-3.2,0.1-6.4-0.3-9.5-0.2c-2.7,0.1-5.3,0.3-8,0.3
	c-0.4,0-0.9,0-1.3,0c-0.4,0-1.1,0.1-1.3-0.2c0.1,0,0.2-0.1,0.3-0.1c0.3-0.1,0.7-0.1,0.7-0.2c0.1-0.2-0.3-0.2-0.6-0.2
	c-4.6,0.2-9.2,0.4-13.7,0.7c-4.2,0.3-8.5,0.4-12.8,0.7c-2.7,0.2-5.3,0.2-8,0.4c-3.2,0.2-6.4,0.4-9.6,0.6c-3.2,0.2-6.3,0.5-9.4,0.8
	C94.9,6,92,6.1,89.2,6.4C85.1,6.8,81.1,7.3,77,7.8c-3.6,0.5-7.1,1-10.8,1.4c-3.3,0.3-6.2,1-9.4,1.5c-1.1,0.2-2.2,0.3-3.3,0.4
	c-1.2,0.2-2.2,0.6-3.3,0.8C49.9,12,49.4,12,49,12.1c-0.6,0.1-1.2,0.2-1.8,0.3c-3.2,0.6-6.4,1.3-9.6,1.9c-2.2,0.4-4.6,0.7-6.6,1.3
	c-0.2,0.1-0.4,0.2-0.7,0.3c-2,0.1-3.9,0.4-5.7,0.7c0,0.3,0.1,0.5,0.1,0.7C24.9,17.3,25,17.3,25,17.3z"/>
<linearGradient id="XMLID_6_" gradientUnits="userSpaceOnUse" x1="-359.0565" y1="6590.2646" x2="-354.2798" y2="6411.7456" gradientTransform="matrix(1.253 -1.801705e-02 3.333130e-02 0.5319 238.6018 -3415.7161)">
	<stop  offset="2.512563e-02" style="stop-color:#5E4C1E"/>
	<stop  offset="0.293" style="stop-color:#635225"/>
	<stop  offset="0.6771" style="stop-color:#706438"/>
	<stop  offset="1" style="stop-color:#7F774D"/>
</linearGradient>
<path id="XMLID_477_" class="st6" d="M8.2,31.2c-0.2,0-0.4,0.1-0.7,0.1c0.7,0,1.5,0,2.2,0c0.7,0,0.9-0.2,0.8-0.5
	c-0.1-0.1-0.3-0.2-0.4-0.3C9,30.6,8,30.7,6.9,30.8c-0.3,0.2-0.9,0.3-0.7,0.6c0.4,0,0.8,0,1.3-0.1C7.7,31.3,7.9,31.2,8.2,31.2z"/>
<linearGradient id="XMLID_7_" gradientUnits="userSpaceOnUse" x1="-159.9814" y1="6595.5923" x2="-155.2048" y2="6417.0718" gradientTransform="matrix(1.253 -1.801705e-02 3.333130e-02 0.5319 238.6018 -3415.7161)">
	<stop  offset="2.512563e-02" style="stop-color:#5E4C1E"/>
	<stop  offset="0.293" style="stop-color:#635225"/>
	<stop  offset="0.6771" style="stop-color:#706438"/>
	<stop  offset="1" style="stop-color:#7F774D"/>
</linearGradient>
<path id="XMLID_476_" class="st7" d="M263,0.5c0.3,0,0.8-0.1,0.8-0.2c0.1-0.3,0-0.2-0.4-0.2c-1.5,0-2.4,0-3.7,0c0,0,0,0,0,0
	c-2.7,0-4.4,0-6.2,0c-0.3,0-1.3,0.1-1.2,0.3c0,0.1,0.2,0.2,0.4,0.2C256.1,0.6,259.5,0.6,263,0.5z"/>
<linearGradient id="XMLID_8_" gradientUnits="userSpaceOnUse" x1="-137.0908" y1="6596.1968" x2="-132.3144" y2="6417.6846" gradientTransform="matrix(1.253 -1.801705e-02 3.333130e-02 0.5319 238.6018 -3415.7161)">
	<stop  offset="2.512563e-02" style="stop-color:#5E4C1E"/>
	<stop  offset="0.293" style="stop-color:#635225"/>
	<stop  offset="0.6771" style="stop-color:#706438"/>
	<stop  offset="1" style="stop-color:#7F774D"/>
</linearGradient>
<path id="XMLID_474_" class="st8" d="M280.8,6c-1.3,0-2.6,0-4,0c-1.8,0-3.6-0.1-5.4-0.1c-0.1,0-0.3,0-0.5,0.1
	c0.5,0.1,0.9,0.2,1.4,0.3c4.5,0,9-0.1,13.5-0.1c1.9,0,3.9,0.1,5.8,0c1.4,0,2.8-0.1,4.2,0.1c1.9,0.2,3.8,0.1,5.8,0.1
	c0.8,0,1-0.3,0.7-0.6c-0.2-0.3-0.7-0.4-1.4-0.5c-2-0.1-4-0.3-6.1-0.2c-2.7,0-5.4,0.1-8.1,0C282.2,5,277.6,5.1,273,5
	c-0.2,0.1-0.3,0.1-0.5,0.2c-0.2,0.1-0.4,0.3,0,0.3c0.6,0.1,1.3,0.1,1.9,0c3.1,0,6.2-0.1,9.3-0.1c0.7,0,1.4,0,2.3,0.3
	c-1.7,0-3.2,0.1-4.6,0.2C281.2,5.9,281,6,280.8,6z"/>
<linearGradient id="XMLID_9_" gradientUnits="userSpaceOnUse" x1="-135.8248" y1="6596.2319" x2="-131.0483" y2="6417.7183" gradientTransform="matrix(1.253 -1.801705e-02 3.333130e-02 0.5319 238.6018 -3415.7161)">
	<stop  offset="2.512563e-02" style="stop-color:#5E4C1E"/>
	<stop  offset="0.293" style="stop-color:#635225"/>
	<stop  offset="0.6771" style="stop-color:#706438"/>
	<stop  offset="1" style="stop-color:#7F774D"/>
</linearGradient>
<path id="XMLID_473_" class="st9" d="M297.1,4.3c0.4,0,0.9,0.1,1-0.2c-1.4-0.5-3-0.6-4.8-0.6c-1,0-2,0-2.9,0
	c-3.3-0.3-6.6-0.1-10-0.1c-0.6,0-1.3-0.1-1.8,0.3c0.7,0.2,1.6,0.2,2.4,0.2C286.4,4,291.7,4.2,297.1,4.3z"/>
<linearGradient id="XMLID_10_" gradientUnits="userSpaceOnUse" x1="-176.9335" y1="6595.1372" x2="-172.1568" y2="6416.6182" gradientTransform="matrix(1.253 -1.801705e-02 3.333130e-02 0.5319 238.6018 -3415.7161)">
	<stop  offset="2.512563e-02" style="stop-color:#5E4C1E"/>
	<stop  offset="0.293" style="stop-color:#635225"/>
	<stop  offset="0.6771" style="stop-color:#706438"/>
	<stop  offset="1" style="stop-color:#7F774D"/>
</linearGradient>
<path id="XMLID_472_" class="st10" d="M202.8,2.9c-1.6,0.3-3.2,0.5-5,0.5c-2.8,0-5.6,0-8.4,0.1c-5.9,0.3-11.7,0.6-17.7,0.7
	c-2.3,0-4.5,0.2-6.7,0.3c-0.5,0-1.3,0-1.4,0.5c2.2,0.2,4.3,0.4,6.6,0.3c1.8-0.1,3.6-0.1,5.5-0.1c1.8,0,3.7,0,5.5-0.1
	c3-0.2,6-0.2,9-0.3c1.3-0.3,2.7-0.3,4.1-0.3c2.4,0,4.9,0,7.3-0.3c0.9-0.1,1.9-0.1,2.9-0.1c1.8,0,3.6,0.1,5.5,0
	c1.4-0.1,1.7,0.1,1.1,0.6c-0.3,0.3-0.1,0.5,0.4,0.7c1.2,0.5,3,0,4.1,0.5c0.1,0.1,0.4,0.1,0.6,0c0.3,0,0.6,0,1-0.1
	c1.5-0.2,2.9-0.4,3.8-1c0.4-0.2,1-0.4,1.7-0.3c2.5,0.2,5.2-0.1,7.7,0.2c0.8,0.1,1.4-0.1,2-0.3c0.9-0.3,1.1-0.8,1.9-1.2
	c0.6,0.9,0.7,1,2.3,1c1.7,0,3.4,0,5.2,0c0.6,0,1.3,0,1.8-0.2c0.3-0.2-0.5-0.4-1.6-0.5c-0.8-0.1-1.7,0-2.6-0.1c-0.7,0-1.5,0-2.2,0
	c-0.3,0-0.3-0.1-0.2-0.2c0,0,0.1-0.1,0.2-0.1c0.7-0.2,1.4-0.2,2.2-0.2c4.2,0,8.4-0.1,12.6-0.1c1.1,0,2.1,0.1,3.1,0.2l0,0
	c-0.1,0.1-0.2,0.2-0.2,0.2c-0.6,0.7-0.5,0.7,1.1,0.8c3.1,0.2,6.3,0.3,9.4,0.2c1.3-0.2,2.9-0.2,3.4-0.9c0.5-0.6,1.4-0.8,2.9-0.8
	c0.7,0,1.5,0,2.2,0c3,0,6,0,9,0.1c1.5,0,3,0,4.4-0.2c1.8-0.3,3.7-0.4,5.7-0.3c1.4,0.1,2.8,0,4.2,0c3.3-0.1,6.6-0.2,9.9-0.4
	c1,0,1.9-0.2,2.9,0c0.2-0.4-0.5-0.5-1.1-0.5c-5.3-0.2-10.6-0.6-16-0.5c-1,0-1.9-0.1-2.9-0.1c-4.3-0.1-8.5-0.3-12.8-0.3
	c-6.2,0-12.4,0.5-18.7,0.4c-0.7,0-1.5,0.1-2.2,0.2c-2.3,0.4-4.7,0.5-7,0.3c-3.2-0.2-6.4-0.2-9.6-0.2c-0.9,0-1.7,0-2.5-0.2
	c-0.2,0-0.4-0.1-0.4-0.2c-0.1-0.1,0.2-0.3,0.5-0.3c0.4-0.1,0.8-0.1,1.3-0.1c0.4,0,1.1,0.1,1.3-0.4c-2.2-0.2-4.4-0.1-6.6,0.1
	c-0.4,0-0.8,0-1.3,0c-2.5,0-5.1,0-7.6,0.1c-1,0-1.9,0.1-2.8,0.3c-0.4,0-0.8,0-1.2,0.1c-2.2-0.2-4.1,0.5-6.2,0.5
	c-0.1,0-0.4,0.1-0.4,0.2C213.3,2,212.6,2,211.8,2c-1,0-1.9,0.1-2.8,0.3C206.8,2.3,204.7,2.5,202.8,2.9z"/>
<linearGradient id="XMLID_11_" gradientUnits="userSpaceOnUse" x1="-225.4754" y1="6593.8394" x2="-220.6987" y2="6415.3193" gradientTransform="matrix(1.253 -1.801705e-02 3.333130e-02 0.5319 238.6018 -3415.7161)">
	<stop  offset="2.512563e-02" style="stop-color:#5E4C1E"/>
	<stop  offset="0.293" style="stop-color:#635225"/>
	<stop  offset="0.6771" style="stop-color:#706438"/>
	<stop  offset="1" style="stop-color:#7F774D"/>
</linearGradient>
<path id="XMLID_471_" class="st11" d="M177.3,3.3c1,0,2-0.2,3-0.4c-2.4,0.1-4.7,0.1-7.1,0.2c-0.6,0-1.2,0-1.8,0
	C173.4,3.1,175.2,3.3,177.3,3.3L177.3,3.3z"/>
<linearGradient id="XMLID_12_" gradientUnits="userSpaceOnUse" x1="-350.1873" y1="6590.502" x2="-345.4106" y2="6411.9829" gradientTransform="matrix(1.253 -1.801705e-02 3.333130e-02 0.5319 238.6018 -3415.7161)">
	<stop  offset="2.512563e-02" style="stop-color:#5E4C1E"/>
	<stop  offset="0.293" style="stop-color:#635225"/>
	<stop  offset="0.6771" style="stop-color:#706438"/>
	<stop  offset="1" style="stop-color:#7F774D"/>
</linearGradient>
<path id="XMLID_470_" class="st12" d="M15.7,18.8c1-0.2,2.6-0.3,3.6-0.6c1.3-0.3,2.6-0.6,4.5-0.7c0.1-0.1,0.1-0.1,0.2-0.2
	c-0.1,0-0.2,0-0.3,0c0,0,0.1,0,0.3,0c0.2-0.2,0.3-0.4,0.5-0.6c-0.6,0.1-1.2,0.2-1.7,0.4c-2.8,0.3-5.1,0.9-7.7,1.4
	c-0.3,0.1-0.5,0.2-0.3,0.3C14.9,18.9,15.4,18.8,15.7,18.8z"/>
<linearGradient id="XMLID_13_" gradientUnits="userSpaceOnUse" x1="-215.0116" y1="6594.1187" x2="-210.2349" y2="6415.5996" gradientTransform="matrix(1.253 -1.801705e-02 3.333130e-02 0.5319 238.6018 -3415.7161)">
	<stop  offset="2.512563e-02" style="stop-color:#5E4C1E"/>
	<stop  offset="0.293" style="stop-color:#635225"/>
	<stop  offset="0.6771" style="stop-color:#706438"/>
	<stop  offset="1" style="stop-color:#7F774D"/>
</linearGradient>
<path id="XMLID_469_" class="st13" d="M195.8,2.3c1.2,0,2.3-0.2,3.5-0.3c3.5,0,7-0.4,10.5-0.4c0.2,0,0.4-0.1,0.6-0.1
	c0.1,0,0.2-0.1,0.2-0.1c0.1-0.1,0-0.2-0.2-0.2c-0.3,0-0.6-0.1-0.9-0.1c-3.7,0-7.4,0.2-11.1,0.4c-0.2,0-0.4,0-0.6,0
	c-0.1,0-0.3,0-0.4,0c-0.2,0-0.4,0-0.6,0c-1.5,0-3,0-4.5,0c-1.5,0-3,0-4.4,0c-0.3,0,0.5-0.3,0.3-0.4c-0.2-0.3-0.8-0.2-1.3-0.2
	c-1.5,0.1-3,0.2-4.5,0.3c-1.3,0.1-2.6,0-3.8,0.1c-2.7,0.2-5.3,0.2-8,0.3c-0.9,0-1.7,0-2.6,0.1c-0.3,0-0.7,0.1-0.6,0.3
	c0.1,0.1,0.5,0.2,0.7,0.2c1.9,0,3.9,0.1,5.8-0.1c2.9-0.2,5.8-0.1,8.7-0.2c0.9,0,1.7,0.2,2.5,0.3c-0.8,0-1.7,0.2-2.5,0.2
	c-0.7,0-1.4,0.1-2.1,0.3c2.8-0.1,5.6-0.2,8.4-0.3C191.1,2.5,193.4,2.4,195.8,2.3z"/>
<linearGradient id="XMLID_14_" gradientUnits="userSpaceOnUse" x1="-222.5189" y1="6593.9194" x2="-217.7422" y2="6415.3984" gradientTransform="matrix(1.253 -1.801705e-02 3.333130e-02 0.5319 238.6018 -3415.7161)">
	<stop  offset="2.512563e-02" style="stop-color:#5E4C1E"/>
	<stop  offset="0.293" style="stop-color:#635225"/>
	<stop  offset="0.6771" style="stop-color:#706438"/>
	<stop  offset="1" style="stop-color:#7F774D"/>
</linearGradient>
<path id="XMLID_468_" class="st14" d="M186.9,5.6c-1.8,0-3.7-0.3-5,0.7c0,0,0,0,0,0c-1.7,0-3.5,0-5.1,0.3c-1.4,0.2-2.7,0.2-4.1-0.1
	c-0.6-0.1-1.3-0.2-1.8,0c-1.1,0.4-2.4,0.3-3.7,0.4c-0.8,0-0.8,0-2.1,0.5c0.5,0,1,0.1,1.4,0C170.2,7,174.1,7.1,178,7
	c0.9,0,1.7,0,2.6-0.1c1.8-0.2,3.6-0.2,5.5-0.2c2.5,0,5,0,7.4-0.1c0.8-0.3,0.9-0.7,0.7-1.1c-0.4,0.1-0.9,0.2-1.3,0.3
	C190.9,5.6,188.9,5.6,186.9,5.6z"/>
<linearGradient id="XMLID_15_" gradientUnits="userSpaceOnUse" x1="-241.8225" y1="6593.3994" x2="-237.0459" y2="6414.8823" gradientTransform="matrix(1.253 -1.801705e-02 3.333130e-02 0.5319 238.6018 -3415.7161)">
	<stop  offset="2.512563e-02" style="stop-color:#5E4C1E"/>
	<stop  offset="0.293" style="stop-color:#635225"/>
	<stop  offset="0.6771" style="stop-color:#706438"/>
	<stop  offset="1" style="stop-color:#7F774D"/>
</linearGradient>
<path id="XMLID_465_" class="st15" d="M155.9,7.8c0.4-0.1,0.8-0.2,1.2-0.2c-1,0-2.1-0.2-3.5,0.2C154.7,7.7,155.3,7.8,155.9,7.8z"/>
<linearGradient id="XMLID_16_" gradientUnits="userSpaceOnUse" x1="-328.582" y1="6591.0786" x2="-323.8055" y2="6412.5635" gradientTransform="matrix(1.253 -1.801705e-02 3.333130e-02 0.5319 238.6018 -3415.7161)">
	<stop  offset="2.512563e-02" style="stop-color:#5E4C1E"/>
	<stop  offset="0.293" style="stop-color:#635225"/>
	<stop  offset="0.6771" style="stop-color:#706438"/>
	<stop  offset="1" style="stop-color:#7F774D"/>
</linearGradient>
<path id="XMLID_464_" class="st16" d="M44.9,91.2c1,0.2,2.2,0.3,3.3,0.2C47.2,91.1,46.1,91.2,44.9,91.2z"/>
<linearGradient id="XMLID_17_" gradientUnits="userSpaceOnUse" x1="-296.299" y1="6591.9443" x2="-291.5224" y2="6413.4243" gradientTransform="matrix(1.253 -1.801705e-02 3.333130e-02 0.5319 238.6018 -3415.7161)">
	<stop  offset="2.512563e-02" style="stop-color:#5E4C1E"/>
	<stop  offset="0.293" style="stop-color:#635225"/>
	<stop  offset="0.6771" style="stop-color:#706438"/>
	<stop  offset="1" style="stop-color:#7F774D"/>
</linearGradient>
<path id="XMLID_463_" class="st17" d="M90.5,12.4c-2,0.4-4,0.6-6.2,0.6c-1.1,0-2.2,0.1-3,0.4c-0.4,0.2-0.2,0.3,0.3,0.4
	c1.5-0.2,3-0.5,4.6-0.5c2.5-0.1,4.8-0.4,7.1-0.6C92.6,12.3,91.6,12.2,90.5,12.4z"/>
<linearGradient id="XMLID_18_" gradientUnits="userSpaceOnUse" x1="-263.3453" y1="6592.8291" x2="-258.5685" y2="6414.3062" gradientTransform="matrix(1.253 -1.801705e-02 3.333130e-02 0.5319 238.6018 -3415.7161)">
	<stop  offset="2.512563e-02" style="stop-color:#5E4C1E"/>
	<stop  offset="0.293" style="stop-color:#635225"/>
	<stop  offset="0.6771" style="stop-color:#706438"/>
	<stop  offset="1" style="stop-color:#7F774D"/>
</linearGradient>
<path id="XMLID_462_" class="st18" d="M149.9,6.1c0.3,0,0.7-0.1,0.6-0.3c0-0.1-0.3-0.1-0.4-0.2c-1.2-0.1-2.6,0-3.7-0.3
	c-1.7,0-3.4,0.1-5.1,0.2c-3.3,0.2-6.5,0.5-9.8,0.4c-0.8,0.2-1.6,0.2-2.5,0.3c-6.1,0.3-12.2,0.6-18.3,1c-2.1,0.1-2.4,0.2-4.2,0.6
	c0.5,0,0.8,0,1.1,0c2.9-0.1,5.8-0.3,8.7-0.4c5.2-0.1,10.3-0.3,15.4-0.6c1.9-0.1,3.8-0.3,5.8-0.3c4-0.1,7.9-0.5,11.9-0.4
	C149.4,6.2,149.6,6.2,149.9,6.1z"/>
<linearGradient id="XMLID_19_" gradientUnits="userSpaceOnUse" x1="-276.6109" y1="6592.4731" x2="-271.8342" y2="6413.9512" gradientTransform="matrix(1.253 -1.801705e-02 3.333130e-02 0.5319 238.6018 -3415.7161)">
	<stop  offset="2.512563e-02" style="stop-color:#5E4C1E"/>
	<stop  offset="0.293" style="stop-color:#635225"/>
	<stop  offset="0.6771" style="stop-color:#706438"/>
	<stop  offset="1" style="stop-color:#7F774D"/>
</linearGradient>
<path id="XMLID_461_" class="st19" d="M141.1,8.8c0.5-0.1,0.9-0.3,1.4-0.4c0.4-0.1,1,0,1.1-0.4c-1.8,0-3.5-0.2-5.2-0.1
	c-3,0.2-6,0.3-9,0.3l0.9,0l0,0.2c-2.7-0.1-5.3,0.2-7.7,0.3c-0.7,0-1.1,0.2-1.1,0.5c0.1,0.5-0.7,0.7-1.7,0.5
	c-0.4-0.1-0.6-0.2-0.9-0.3c-0.7-0.3-0.8-0.3-1.5,0c-0.2,0.1-0.4,0.2-0.6,0.3c-0.2,0.1-0.8,0.1-0.9,0.1c-0.8-0.4-2.5-0.4-3.2-0.8
	c-0.9-0.5-1.9-0.5-3.1-0.4c-0.7,0.1-2.1,0.2-2.1,0.3v0c0,0-0.8,0.1-1.2,0.1c-0.1,0-0.1,0-0.2,0.1c0.1,0,0.1,0,0.2,0
	c-0.2,0-0.4,0.1-0.6,0.1c0.2,0,0.3-0.1,0.4-0.1c-1.5-0.1-3-0.1-4.5-0.2c-0.3,0-0.7,0-0.8,0.2c0,0.1,0.2,0.2,0.3,0.3
	c-0.5,0.1-1,0.3-1.5,0.4c-1.9,0-1.9,0-2.4,0.6l0,0c-2.4,0-4.7,0.1-7.1,0.3c-0.5,0.1-1,0.2-1.5,0.2c-2.3,0.2-4.7,0.4-7,0.5
	c-0.5,0-1.1,0.1-1.3,0.3c-0.1,0,0,0.2,0.1,0.2c0.4,0,0.8,0.1,1.3,0c2.3-0.2,4.7-0.4,7-0.6c1-0.1,1.9-0.2,2.8,0c1,0.2,2.1,0,3.2,0
	c1.9-0.1,3.8-0.5,5.6,0.1c0.3,0.1,0.8,0,1.3,0c3.4-0.3,6.7-0.6,10.1-0.8c2.3-0.1,4.7-0.3,7-0.5c0.6,0,1.3,0,1.9-0.1
	c0.2,0,0.3-0.1,0.5-0.1c-0.2,0-0.4,0-0.5,0.1c0.6,0,1.3,0,1.9,0c0.6,0,1-0.1,1.4-0.3c0.8,0,1.7,0,2.5-0.1c0.2-0.1,0.5-0.2,0.7-0.3
	c0.7,0,1.3,0,2,0c0,0,0.1,0,0.2,0c0.1,0,0.3,0,0.4-0.1c0.4,0,0.9-0.1,1.3-0.1c1.1,0,2.2-0.1,3.2-0.4c0.2,0,0.5-0.2,0.8-0.2
	c1.9,0.4,3.5,1.2,5.3-0.8c0,0,0,0,0,0l-0.1,0.4C140.3,8.6,140.6,9,141.1,8.8z"/>
<linearGradient id="XMLID_20_" gradientUnits="userSpaceOnUse" x1="-309.2705" y1="6591.5952" x2="-304.494" y2="6413.083" gradientTransform="matrix(1.253 -1.801705e-02 3.333130e-02 0.5319 238.6018 -3415.7161)">
	<stop  offset="2.512563e-02" style="stop-color:#5E4C1E"/>
	<stop  offset="0.293" style="stop-color:#635225"/>
	<stop  offset="0.6771" style="stop-color:#706438"/>
	<stop  offset="1" style="stop-color:#7F774D"/>
</linearGradient>
<path id="XMLID_460_" class="st20" d="M79.6,92.6c-1.9,0.1-3.9,0-5.8-0.1c-5-0.3-10.1-0.3-15.1-0.6c-0.4,0-0.9,0-1.8,0
	c1.7,0.5,3,0.6,4.6,0.5c1.6-0.1,3.3-0.1,4.8,0.1c1.4,0.3,2.9,0.3,4.4,0.3c2.4,0,4.7,0,7.1,0.1c1,0.1,2.1,0.1,3.2,0
	c1.1,0,2.2,0.1,3.6-0.1C82.8,92.5,81.3,92.5,79.6,92.6z"/>
<linearGradient id="XMLID_21_" gradientUnits="userSpaceOnUse" x1="-228.5653" y1="6593.7544" x2="-223.7887" y2="6415.2368" gradientTransform="matrix(1.253 -1.801705e-02 3.333130e-02 0.5319 238.6018 -3415.7161)">
	<stop  offset="2.512563e-02" style="stop-color:#5E4C1E"/>
	<stop  offset="0.293" style="stop-color:#635225"/>
	<stop  offset="0.6771" style="stop-color:#706438"/>
	<stop  offset="1" style="stop-color:#7F774D"/>
</linearGradient>
<path id="XMLID_459_" class="st21" d="M172.3,93.8c-0.1,0-0.2,0-0.6,0c-0.2,0-0.7,0.1-1.2,0.1c-0.1,0-0.3,0.1-0.3,0.2
	c0,0.1,0.1,0.2,0.2,0.2c0.5,0.2,1.1,0.2,1.8,0.2c1.1,0,1.8-0.2,1.7-0.4C173.6,93.8,172.9,93.8,172.3,93.8z"/>
<linearGradient id="XMLID_22_" gradientUnits="userSpaceOnUse" x1="-295.2507" y1="6591.9717" x2="-290.4741" y2="6413.4526" gradientTransform="matrix(1.253 -1.801705e-02 3.333130e-02 0.5319 238.6018 -3415.7161)">
	<stop  offset="2.512563e-02" style="stop-color:#5E4C1E"/>
	<stop  offset="0.293" style="stop-color:#635225"/>
	<stop  offset="0.6771" style="stop-color:#706438"/>
	<stop  offset="1" style="stop-color:#7F774D"/>
</linearGradient>
<path id="XMLID_457_" class="st22" d="M88.6,19.5c-0.1,0-0.2,0.1-0.3,0.1C88.3,19.6,88.5,19.6,88.6,19.5
	C88.6,19.5,88.6,19.5,88.6,19.5z"/>
<linearGradient id="XMLID_23_" gradientUnits="userSpaceOnUse" x1="-280.4723" y1="6592.3647" x2="-275.6957" y2="6413.8486" gradientTransform="matrix(1.253 -1.801705e-02 3.333130e-02 0.5319 238.6018 -3415.7161)">
	<stop  offset="2.512563e-02" style="stop-color:#5E4C1E"/>
	<stop  offset="0.293" style="stop-color:#635225"/>
	<stop  offset="0.6771" style="stop-color:#706438"/>
	<stop  offset="1" style="stop-color:#7F774D"/>
</linearGradient>
<path id="XMLID_454_" class="st23" d="M107,21.1C106.9,21.1,106.9,21.1,107,21.1C106.9,21.1,106.9,21.1,107,21.1z"/>
<linearGradient id="XMLID_24_" gradientUnits="userSpaceOnUse" x1="-237.587" y1="6593.5132" x2="-237.1169" y2="6575.9453" gradientTransform="matrix(1.253 -1.801705e-02 3.333130e-02 0.5319 238.6018 -3415.7161)">
	<stop  offset="2.512563e-02" style="stop-color:#5E4C1E"/>
	<stop  offset="0.293" style="stop-color:#635225"/>
	<stop  offset="0.6771" style="stop-color:#706438"/>
	<stop  offset="1" style="stop-color:#7F774D"/>
</linearGradient>
<path id="XMLID_452_" class="st24" d="M160.7,92.4C160.7,92.4,160.7,92.4,160.7,92.4L160.7,92.4C160.7,92.4,160.7,92.4,160.7,92.4z"
	/>
<linearGradient id="XMLID_25_" gradientUnits="userSpaceOnUse" x1="-264.9675" y1="6592.7817" x2="-260.1909" y2="6414.2627" gradientTransform="matrix(1.253 -1.801705e-02 3.333130e-02 0.5319 238.6018 -3415.7161)">
	<stop  offset="2.512563e-02" style="stop-color:#5E4C1E"/>
	<stop  offset="0.293" style="stop-color:#635225"/>
	<stop  offset="0.6771" style="stop-color:#706438"/>
	<stop  offset="1" style="stop-color:#7F774D"/>
</linearGradient>
<path id="XMLID_450_" class="st25" d="M126,12.1c0.3,0,0.5-0.1,0.8-0.1l0,0C126.5,12.1,126.2,12.2,126,12.1z"/>
<linearGradient id="XMLID_26_" gradientUnits="userSpaceOnUse" x1="-352.1425" y1="6590.4482" x2="-347.3659" y2="6411.9312" gradientTransform="matrix(1.253 -1.801705e-02 3.333130e-02 0.5319 238.6018 -3415.7161)">
	<stop  offset="2.512563e-02" style="stop-color:#5E4C1E"/>
	<stop  offset="0.293" style="stop-color:#635225"/>
	<stop  offset="0.6771" style="stop-color:#706438"/>
	<stop  offset="1" style="stop-color:#7F774D"/>
</linearGradient>
<path id="XMLID_449_" class="st26" d="M17,47.6C17,47.6,17.1,47.6,17,47.6C17.1,47.7,17.1,47.7,17,47.6L17,47.6z"/>
<linearGradient id="XMLID_27_" gradientUnits="userSpaceOnUse" x1="15.6667" y1="6600.2876" x2="20.4433" y2="6421.771" gradientTransform="matrix(1.253 -1.801705e-02 3.333130e-02 0.5319 238.6018 -3415.7161)">
	<stop  offset="2.512563e-02" style="stop-color:#5E4C1E"/>
	<stop  offset="0.293" style="stop-color:#635225"/>
	<stop  offset="0.6771" style="stop-color:#706438"/>
	<stop  offset="1" style="stop-color:#7F774D"/>
</linearGradient>
<path id="XMLID_443_" class="st27" d="M478,10.7c0.2,0.1,0.3,0.1,0.5,0.1C478.3,10.8,478.1,10.8,478,10.7
	C478,10.7,478,10.7,478,10.7z"/>
<linearGradient id="XMLID_28_" gradientUnits="userSpaceOnUse" x1="-38.9143" y1="6473.2764" x2="-36.5801" y2="6386.0371" gradientTransform="matrix(1.253 -1.801705e-02 3.333130e-02 0.5319 238.6018 -3415.7161)">
	<stop  offset="2.512563e-02" style="stop-color:#5E4C1E"/>
	<stop  offset="0.293" style="stop-color:#635225"/>
	<stop  offset="0.6771" style="stop-color:#706438"/>
	<stop  offset="1" style="stop-color:#7F774D"/>
</linearGradient>
<path id="XMLID_441_" class="st28" d="M405.6,4.6C405.6,4.6,405.6,4.6,405.6,4.6C405.6,4.6,405.6,4.6,405.6,4.6
	C405.6,4.6,405.6,4.6,405.6,4.6z"/>
<linearGradient id="XMLID_29_" gradientUnits="userSpaceOnUse" x1="-263.0595" y1="6592.832" x2="-258.2829" y2="6414.314" gradientTransform="matrix(1.253 -1.801705e-02 3.333130e-02 0.5319 238.6018 -3415.7161)">
	<stop  offset="2.512563e-02" style="stop-color:#5E4C1E"/>
	<stop  offset="0.293" style="stop-color:#635225"/>
	<stop  offset="0.6771" style="stop-color:#706438"/>
	<stop  offset="1" style="stop-color:#7F774D"/>
</linearGradient>
<path id="XMLID_436_" class="st29" d="M128.8,11.3c0,0-0.1,0.1-0.1,0.1c0,0,0,0,0,0C128.8,11.4,128.8,11.3,128.8,11.3z"/>
<linearGradient id="XMLID_30_" gradientUnits="userSpaceOnUse" x1="-137.9695" y1="6596.1768" x2="-133.1929" y2="6417.6606" gradientTransform="matrix(1.253 -1.801705e-02 3.333130e-02 0.5319 238.6018 -3415.7161)">
	<stop  offset="2.512563e-02" style="stop-color:#5E4C1E"/>
	<stop  offset="0.293" style="stop-color:#635225"/>
	<stop  offset="0.6771" style="stop-color:#706438"/>
	<stop  offset="1" style="stop-color:#7F774D"/>
</linearGradient>
<path id="XMLID_435_" class="st30" d="M285.9,6.2c-0.2,0-0.4-0.1-0.5-0.1C285.5,6.2,285.7,6.2,285.9,6.2z"/>
<linearGradient id="XMLID_31_" gradientUnits="userSpaceOnUse" x1="-275.9256" y1="6592.4878" x2="-271.149" y2="6413.9702" gradientTransform="matrix(1.253 -1.801705e-02 3.333130e-02 0.5319 238.6018 -3415.7161)">
	<stop  offset="2.512563e-02" style="stop-color:#5E4C1E"/>
	<stop  offset="0.293" style="stop-color:#635225"/>
	<stop  offset="0.6771" style="stop-color:#706438"/>
	<stop  offset="1" style="stop-color:#7F774D"/>
</linearGradient>
<polygon id="XMLID_432_" class="st31" points="112.7,93.8 112.5,93.8 112.5,93.7 "/>
<linearGradient id="XMLID_32_" gradientUnits="userSpaceOnUse" x1="-248.4298" y1="6593.2231" x2="-243.6532" y2="6414.7046" gradientTransform="matrix(1.253 -1.801705e-02 3.333130e-02 0.5319 238.6018 -3415.7161)">
	<stop  offset="2.512563e-02" style="stop-color:#5E4C1E"/>
	<stop  offset="0.293" style="stop-color:#635225"/>
	<stop  offset="0.6771" style="stop-color:#706438"/>
	<stop  offset="1" style="stop-color:#7F774D"/>
</linearGradient>
<path id="XMLID_431_" class="st32" d="M147.2,91.8C147.2,91.8,147.2,91.8,147.2,91.8C147.2,91.8,147.2,91.8,147.2,91.8L147.2,91.8
	c-0.1,0-0.1,0.1-0.2,0.1C147,91.8,147.1,91.8,147.2,91.8z"/>
<g>
	<linearGradient id="SVGID_1_" gradientUnits="userSpaceOnUse" x1="255.358" y1="98.1882" x2="258.0496" y2="-2.4062">
		<stop  offset="2.512563e-02" style="stop-color:#5E4C1E"/>
		<stop  offset="0.293" style="stop-color:#635225"/>
		<stop  offset="0.6771" style="stop-color:#706438"/>
		<stop  offset="1" style="stop-color:#7F774D"/>
	</linearGradient>
	<path class="st33" d="M512,87V16.4c-1.6-0.2-3.3-0.4-4.7-0.8c-1.4-0.3-2.9-0.6-4.4-0.9c-5-0.9-10.1-1.8-15.1-2.6
		c-1.5-0.2-2.9-0.6-4.6-0.6c-0.9-0.3-2-0.5-3.2-0.5c-0.1,0-0.1,0-0.2-0.1c-0.5-0.1-1.1-0.2-1.7-0.2c-0.4-0.1-0.8-0.2-1.3-0.2
		c0.3,0.1,0.6,0.1,0.9,0.2c-0.3,0-0.7-0.1-0.9-0.2c-1.4-0.2-2.8-0.5-4.2-0.6c-8.2-1-16.4-2-24.6-2.9c-2.3-0.3-4.6-0.5-6.9-0.6
		c-4.7-0.2-9.3-0.6-13.9-1.1C426,5.1,424.9,5,423.7,5c-4-0.3-8.1-0.6-12.2-0.8c-3.3-0.1-6.5-0.4-9.7-0.6c-3.3,0.1-6.6-0.1-9.9-0.3
		c-5.5-0.3-11-0.5-16.5-0.6c-3.1-0.4-6.3-0.5-9.5-0.4c-0.5,0-1.2,0-1.6,0.1c-1.2,0.4-2.4,0.3-3.7,0.1c-1-0.1-2.1-0.2-3.1-0.3
		c-2.2-0.1-4.5-0.2-6.7-0.3c-2.2-0.1-4.6,0-6.6-0.5c-1.5-0.3-3-0.4-4.6-0.4c-1.3,0-2.6,0-3.8-0.2c-0.7,0-1.5,0-2.2,0.1
		c-3.5,0.3-6.9,0.5-10.4,0.5c-1.8,0-3.6,0.2-5.2,0.6c1.7-0.1,3.3,0.3,4.9,0.3c0.9,0.3,2,0.2,3,0.3c0.9,0.1,1,0.1,1,0.7
		c2.5,0.2,5.1,0.3,7.6,0.5c1.9,0.2,3.6,0.2,5.3-0.2c0.3-0.1,0.7-0.1,1-0.2c0.7,0,1.4,0.1,2.1,0.2c0.3,0,0.7,0.1,1.1,0.1
		c1,0.1,2,0.3,3,0.6c0.3,0,0.6,0,1,0c0.2,0,0.5-0.1,0.7-0.1c0.3,0,0.6,0.1,0.9,0.1c2.9,0.1,5.7,0,8.5-0.3c2.2,0.1,4.4,0.1,6.5,0.2
		c1.2,0.1,2.5,0.2,3.8,0.3c6.9,0.2,13.7,0.9,20.5,1.3c-1.9,0-3.9,0-5.8,0.1c-1.2,0.1-2.5,0.1-2.6,0.8c-0.1,0.6,1.1,0.7,2.1,0.8
		c1.8,0.2,3.5,0.4,5,0.8c-1.6,0-3.2,0-4.9,0c-1.4-0.3-3-0.2-4.5-0.2c-4.3-0.1-8.6-0.1-12.9-0.3c-3.2-0.1-6.4-0.2-9.7-0.1
		C347.8,7.9,340.3,8,332.7,8c-1.4,0-2.8,0.1-4.1-0.2c-0.2,0-0.4,0-0.6,0c-1.5,0-3,0-4.5,0.1c-1.5,0.1-3.2,0-4.3,0.7
		c-0.2,0.1-0.8,0.1-1.2,0.1c-1.4,0-2.8,0-4.2,0c-3.7,0-7.3,0.1-11,0.1l0,0c-2.5-0.5-5.1-0.9-7.9-1c-3.6-0.1-7.3-0.2-10.8,0.3
		c-1.3,0-2.9-0.1-4.1,0.2c0,0,0,0,0,0c-0.2,0.1-0.4,0.2-0.6,0.2c-0.2,0-0.3,0.1-0.5,0.2c-0.5,0-0.9,0-1.3,0
		c-0.7-0.4-1.6-0.5-2.7-0.4c-1.9,0.2-3.8,0.2-5.6-0.2c-1.8-0.4-3.6-0.4-5.5-0.4c-1.4,0-2.8,0-4.1,0c-1.8,0-3.7,0.1-5.5,0.1
		c-0.2,0-0.5,0.1-0.5,0.1c-0.1,0.2,0.2,0.3,0.5,0.3c1.2,0,2.4,0.1,3.5,0.1c1.1,0,2.2,0,3.2,0c1,0,2,0,3,0c-1.5,0.2-3,0.2-4.5,0.2
		c-1.3,0-2.6,0-3.7,0.3c-0.9,0.1-1.7,0.2-2.6,0.2c0,0-0.1,0.1-0.2,0.1c-0.1,0-0.3,0.1-0.4,0c0,0,0,0.1,0,0.1h0c-0.5,0-1-0.1-1.5-0.1
		c-6.7,0.2-13.5,0.2-20.2,0.4c-1.3,0-2.5,0.1-3.8,0.1c-0.4,0-0.8,0-1.2,0c-2.8,0.1-5.6,0.2-8.4,0.4c-4.8,0.2-9.6,0.6-14.4,0.6
		c-1.2,0-2.4-0.3-3.5-0.1c-0.4,0-0.8-0.3-1.2-0.3h0c-0.7,1-1.3,0.3-1.9,0.3c-3.2,0.1-6.5,0.4-9.7,0.5c-1.1,0.1-2.1,0.3-3.1,0.4
		c-2.1,0.1-4.3,0.2-6.4,0.3c-6.9,0.3-13.6,0.9-20.3,1.6c-0.5,0.1-1.1,0.1-1.3,0.3c0.3,0.2,0.7,0.2,1.1,0.2c1.9,0,3.9,0,5.8-0.1
		c5.2-0.3,10.5-0.6,15.7-0.6c0.1-0.1,0.1-0.1,0.2-0.2c5.6-0.1,11.2-0.1,16.8-0.4c0.9,0,1.7,0,2.6,0c4.4-0.1,8.8-0.1,13.2-0.2
		c5.7-0.2,11.4-0.4,17.1-0.6c5.5,0.1,10.9,0.1,16.4,0.2c1.4,0,2.8,0,4.2,0.1c5.2,0.2,10.5,0.2,15.7-0.2c3.9-0.3,7.9-0.4,11.9-0.4
		c1.1,0,2.1,0,3.1,0.2c0.1,0.2,0.3,0.3,0.7,0.4c0.3,0.1,0.5,0.1,0.8,0.1c0.3,0,0.5,0,0.8-0.1c0.3,0,0.5-0.1,0.8-0.1
		c0.3,0,0.5,0,0.8,0c0.3,0,0.6,0,0.8,0c0.3,0,0.6,0,0.8,0.1c1.6,0.2,3.3,0.2,5,0.1c5.5-0.5,11.1,0.2,16.6-0.3c0.4,0,0.9,0,1.4,0
		c0.2,0.2-0.2,0.3-0.6,0.4c-0.4,0.1-0.9,0.3-1.3,0.4c-0.4,0.1-0.8,0.2-1.2,0.3c-0.1,0-0.1,0-0.2,0.1c-3,0-6,0.3-9,0.3
		c-4.6,0-9.2,0-13.8,0.1c-5.3,0.1-10.5,0.2-15.8,0.4c-6.5,0.2-13.1,0.2-19.6,0.2c-1.5,0.3-3.1,0-4.7,0.2c-2.1,0.2-4.4-0.3-6.3,0.5
		c-0.4,0.1-0.9,0.2-1.3,0.2c-2.9,0.1-5.8,0.2-8.6,0.3c-6.1,0.3-12.2,0.4-18.2,0.9c-1.9,0.1-3.8,0.3-5.5,0.7c-0.4,0-0.9,0-1.3,0
		c0,0-0.1,0-0.1,0c-0.6,0-1.7,0.2-1.3-0.4c0.1-0.2-0.5-0.2-0.9-0.2c-1.5,0.1-3,0.1-4.5,0.2c-2.1,0-4.3,0.1-6.4,0.2
		c-3.6,0.1-7.2,0.5-10.9,0.5c-1.3,0-2.6,0.1-3.8,0.3c-2.5,0-4.9,0.1-7.3,0.2c-2.4,0.2-4.9,0.1-7.3,0.1c-0.6,0-0.9-0.2-0.8-0.5
		c1.1,0,2.1-0.1,3.2-0.1c1.6,0,3.3-0.1,4.7-0.4c1.7-0.3,3.3-0.4,5-0.4c2.8-0.1,5.6-0.2,8.4-0.3c3.4,0,6.8-0.1,10.3-0.1
		c0.3,0,0.6,0,1,0c1.1,0,1.9-0.2,1.7-0.4c-0.3-0.4-1.2-0.3-1.9-0.3c-0.6,0-1.3,0-1.9,0.1c-0.6,0-1.3,0.1-1.9,0.1
		c-2.8,0.1-5.6,0.1-8.3,0.2c-0.7,0-1.4,0.2-2.2,0.2c-0.9,0-1.7,0-2.6,0c-4.2,0.1-8.4,0-12.6,0.3c-3.1,0.2-6.2,0.3-9.3,0.4
		c-0.8-0.2-1.6-0.2-2.5-0.2c-1.3,0.1-2.5,0.1-3.7-0.1c-0.9-0.2-1.9-0.2-2.8-0.1c-1.6,0.2-3.2,0.2-4.8,0.2c-1.4,0-2.8,0-3.8,0.5
		c0,0,0.1,0.1,0.1,0.1c-0.6,0.3-1.2,0.5-2.2,0.5c-2.9,0-5.7,0.1-8.5,0.3c-0.9,0.1-1.9,0-2.8,0h0c-1.1,0-2.3-0.2-3.4,0.1
		c-1.1,0.1-2.2,0.2-3.3,0.3c-2.7,0-5.3,0.1-7.8,0.6c-0.6,0-1.2,0-1.8,0c-2.5-0.1-4.8,0.3-7.3,0.4c-0.8,0-1.4,0.2-1.8,0.5
		c-1.7,0-3.5-0.1-5.2,0.3c-1,0.1-2,0.1-3,0.2c-0.9,0.1-1.4,0.1-2.2-0.1c0.9-0.1,1.1-0.1,3.1-0.3c0,0,1.3-0.1,2-0.3
		c0.2,0,0.1,0,0.3,0c0.6,0,1.1,0,1.6-0.2c0.1,0,0.1,0,0.2-0.1c0.2,0,0.4,0,0.6,0c0.3-0.1,0.5-0.2,0.7-0.2l0,0c0,0,0,0,0,0
		c0.2-0.1,0.3-0.1,0.5-0.1c-0.2,0-0.4,0.1-0.5,0.1c0.7,0,1.4,0,2-0.2c0.2,0,0.7-0.1,0.7-0.2c0,0,0-0.4,0-0.4l-0.4-0.4l0.1,0
		c1.6,0,3.4-0.3,5.2-0.4c2.2-0.1,4.5-0.1,6.7-0.3c2.5-0.2,5-0.4,7.5-0.6c3.3-0.3,6.6-0.5,9.9-0.6c0.9,0,1.8-0.1,2.7-0.1
		c0.1,0,0.1,0,0.2,0c0.3,0,0.6,0,0.8,0c0.1,0,0.3,0,0.4,0c0.3,0,0.7,0,1,0c0,0,0,0,0,0c-0.1,0-0.3,0-0.4-0.1c0,0,0.1,0,0.2,0
		c0.1,0,0.2,0,0.3,0.1c0,0,0,0,0,0c0,0,0,0,0,0c0,0,0,0,0,0c1.3,0,2.7,0,4,0c0.2,0,0.4,0,0.6,0c0.6,0.2,1.3,0.2,1.9,0
		c1.3-0.1,2.5-0.2,3.8-0.3c1.4-0.1,2.7-0.2,3.9-0.5c0.1,0,0.1-0.1,0.1-0.2c0,0-0.2-0.1-0.2-0.1c-0.7,0-1.5,0-2.2,0.1
		c-3.5,0.2-7,0.3-10.5,0.5c0.2-0.4,0.5-0.7,1.3-0.9c1.3-0.2,2.7-0.4,4-0.2c1.2,0.2,2.2,0.2,3.3-0.2c2.1-0.6,4.5-0.5,6.8-0.6
		c0.2,0,0.4,0,0.6,0.1c0.5,0.1,0.8,0.3,1.4,0.3c0.8,0,0.9-0.3,1.2-0.6c0.2-0.1,0.4-0.2,0.7-0.3c1.1-0.3,0.5-0.6,0-0.9
		c3.2-0.1,6.4-0.5,9.6-0.4c1.1,0,2.2-0.1,3.3-0.3c0.4,0,0.8,0.1,1.2,0.1c2-0.1,4-0.2,5.9,0.2c0.7,0.2,1.5,0.1,2.1-0.1
		c1.6-0.6,3.5-0.6,5.5-0.6c1.1,0,2.1,0,3.2,0c0.6,0,1.3,0,1.7-0.2c0.3-0.2-0.7-0.3-1.8-0.2c-2.9,0.3-5.8,0.2-8.6,0.3
		c-0.7,0-1.5,0-2.1-0.2c-0.3-0.1-0.5-0.3-0.8-0.4c-0.7-0.1-0.8,0.2-1.1,0.4c-0.5,0.3-1.2,0.4-2,0.4c-1.1,0.1-2.1,0.1-3.2,0.1
		c-0.4-0.5-1.2-0.8-2.6-0.8c-2,0-3.9,0.1-5.7,0.4c-0.7,0.2-1.3,0.2-2.1,0.1c-1.9-0.3-3.9-0.4-6,0c-0.9,0.2-1.9,0.2-2.7-0.1
		c-0.8-0.3-1.8-0.2-2.8-0.1c-2.1,0.2-4.2,0.4-6.4,0.5c-2.9,0.1-2.9,0.1-2.8,1.3c-0.2,0-0.4,0-0.6,0c0,0-0.1-0.1-0.2-0.1
		c-0.1,0-0.3,0-0.4,0.1c-0.2,0-0.4,0-0.5,0c-0.2-0.1-0.5-0.2-0.7-0.3c-0.8,0.1-1.5,0.3-1.9,0.6c-0.6-0.1-1-0.3-1.1-0.5
		c-0.1-0.1-0.3-0.3-0.5-0.3c-0.5,0-0.7,0.2-0.8,0.3c-0.1,0.1-0.1,0.2-0.2,0.2c-0.2,0-0.4,0-0.6,0c-1.7,0.4-3.5,0.6-5.6,0.5
		c-1.2-0.1-2.4,0-3.5,0.2c-1.3,0.1-2.5,0.2-3.8,0.2c-1.7,0-3.4,0.1-5,0.4c-1.4,0.3-2.9,0.4-4.4,0.5c-2.7,0.2-5.6,0.3-8.2,0.7
		c-0.9,0.1-1.9,0.1-2.9,0.2c-3.2,0.2-6.4,0.3-9.5,0.8c-0.2,0-0.4,0-0.6,0c-1.6-0.3-3.1,0-4.5,0.3c-0.7,0.1-1.4,0.2-1.9,0.5
		c-0.5,0.3-1.2,0.4-2,0.4c-1-0.5-2.5-0.5-3.7-0.8c0.2,0,0.3,0,0.5,0c0.2-0.1,0.4-0.2,0.7-0.2c1-0.1,2.1-0.2,3.1-0.4
		c0.5-0.2,1.4-0.3,1.7-0.7c-0.8,0.1-1.5,0.2-2.2,0.2c-2.6,0.4-5.1,0.7-7.7,1.1c-5.2,0.6-9.4,1.4-14.4,2.3c-0.4,0.2-0.5,0.4-0.5,0.6
		v-0.1l-1.5,0c-0.2,0-0.5,0.1-0.8,0.2c-0.2,0-0.4,0.1-0.6,0.1c-0.6,0.1-1.3,0.2-1.9,0.3c-2.5,0.2-4.5,1.1-7.1,1.1
		c-0.2,0-0.4,0.1-0.6,0.1c-1.4,0.7-3.6,1-4.6,1.8c-1.2,0.2-2.2,0.4-2.8,0.9c-0.3,0.3-1.1,0.5-1.7,0.7c-3.3,0.3-6.5,0.6-9.1,1.5
		c-0.4,0.1-1,0.2-1.5,0.2c-2.2-0.1-4.2,0.4-6.2,0.5c-1.7,0.2-3.5,0.5-5.2,0.7c-0.8,0.1-1.8,0.1-2.3,0.4c-0.6,0.3,0.2,0.7,0,1
		c-0.2,0.4-0.1,0.8,0.7,1.1c0.5,0.2,0.9,0.3,1.7,0.1c1.5-0.4,3-0.7,4.8-0.4c0.4,0.1,0.8-0.1,1-0.3c0.9-0.1,1.7-0.2,2.6-0.3
		c1.2,0.1,2.3,0.4,3.7,0.3c0.5,0,1.2-0.1,1.2,0.2c0,0.2-0.6,0.2-0.9,0.3c-0.3,0.1-0.5,0.1-0.8,0.2c-0.6,0.2-1.2,0.2-1.9,0.3
		c-1,0-1.9,0.1-2.7,0.4c-0.4,0.1-0.7,0.2-0.6,0.4c0,0.2,0.4,0.3,0.8,0.4c0.1,0,0.2,0.1,0.3,0.1c1.8-0.1,5.3,0.4,7.2,0.3
		c0.8,0,2.2,0.3,2.2,0.4c0,0,0,0,0,0c-2,0-4.5,0.1-5.8,0c-1.2,0-2.7,0.2-3,0.7l-0.3,0.1c0.3,0.4,0.7,0.7,1.5,1c0,0-0.1-0.1-0.1,0
		c-0.6,0.5-1.4,0.9-0.7,1.5c0,0,1.3,0,1.3,0s0,0.2,0,0.5c1.3-0.1,1.8-0.3,2.9-0.4c0.5,0.2,0.8,0.3,1.4,0.4c-0.4,0.1-0.8,0.3-1,0.5
		c-0.6,0-1.3,0-1.8,0.3c-0.1,0.1-0.2,0.2-0.2,0.2c0,0.1,0.3,0.1,0.4,0.1c0.5,0,1.1,0,1.6-0.1c0.9,0.5,2.1,0.7,3.6,0.7
		c0.8,0,1.5,0.1,2,0.3c-0.1,0-0.3,0-0.4,0.1c-1.1,0.2-2.3,0.2-3.2,0.6c0.4,0.2,0.9,0.2,1.3,0.1c0.7,0,1.5-0.1,2.2-0.1
		c0.4,0,0.9,0.1,1,0.3c0.1,0.2-0.1,0.4-0.5,0.4c-1,0.2-2,0.4-2.9,0.6l0,0c-1.3,0-2.5,0-3.7,0.3c-0.8,0.2-1.6,0.3-0.9,0.8
		c0.3,0.2-0.1,0.3-0.5,0.4c-0.3,0.1-0.9,0.1-0.9,0.4c0.8,0.1,3.5,0.3,4.2,0.3c1.3-0.1-0.5,0,3.5,0.6c0,0,0,0,0,0
		c-1,0.2-3.8,0.3-4.9,0.3c-0.9,0-2.6,0.2-3,0.5c-0.3,0.2-1.1,0.4-0.4,0.6c0.6,0.1,1,0.1,1.6,0.2c0.6,0.1,1,0.1,1.2-0.2
		c0.2-0.3-0.3-0.4-0.8-0.5c-0.2,0-0.4-0.1-0.6-0.1c1-0.2,2.1-0.1,3.1-0.1c2,0.1,4,0.2,6-0.2c0.4,0,0.9,0,1.3,0c0,0,0,0,0.1,0
		c0.5-0.1,1-0.2,1.6-0.3c-0.1-0.3-0.1-0.7-0.3-0.7c0.6,0,1.5-1.1,2.1-1.1l0,0h0l0,0c0,0-0.2,1.1-0.2,1.1L30.1,42
		c-0.5,0-1.1,0.1-1.6,0.2c0,0.1,0.1,0.2,0.1,0.2c-0.2,0-0.3,0-0.5,0.1c-0.4,0-0.8,0-1.3,0c-0.2,0.1-0.3,0.3-0.4,0.3
		c0,0,0.2,0.3,0.3,0.3c1.7,0,3.2,0.4,5,0.2c0.4,0,1,0.1,1.5,0.2c0.1,0.2,0,0.4-0.6,0.5c-0.5,0.1-0.9,0.2-1.4,0.3c-0.2,0-0.5,0-0.7,0
		c-2.6-0.1-5,0.2-7.5,0.3c-0.3,0-0.5-0.2-0.7-0.2c-0.2,0-0.5-0.1-0.5-0.1h0c-1.5,0-3,0.4-4.4,0.6c-0.2,0-0.6,0.3-0.6,0.4
		c-0.1,0.1,0.2,0.3,0.6,0.3c1.1,0,1.7,0.3,1.9,0.7c0.1,0.2,0.3,0.3,0.4,0.5c-0.2,0-0.3,0.1-0.5,0.2c-0.3,0.1-0.5,0.4-0.7,0.4h0
		c-0.4,0-1,0.2-1.4,0.4c-0.2-0.2-0.4-0.4-0.7-0.6c-0.2-0.1-0.6-0.2-0.8-0.1c-0.3,0.1-0.3,0.2-0.2,0.3c0.1,0.1,0.3,0.2,0.5,0.3
		c-2,0-4,0.1-5.8,0.6c2,0,4,0.1,5.9-0.3c0.4,0,0.8,0,1.2,0c1.3,0.2,2.7,0,4,0c0,0,0,0,0,0c0,0,0,0,0,0c1.2,0.1,1.6,0.5,2,0.9
		c0.3,0.3,0.9,0.5,1.8,0.4c0.8-0.1,1.7-0.1,2.5-0.2c0.2,0,0.4,0.2,0.5,0.3c0.1,0.1-0.1,0.2-0.2,0.2c-0.8,0.1-1.6,0.2-2.4,0.3
		c-0.4,0.1-0.5,0.3-0.5,0.5c0,0.2,0.2,0.4,0.6,0.4c0.4,0.1,0.8,0.1,1.3,0.1c1.9,0,3.8-0.3,5.7-0.1c0.2,0,0.8-0.1,0.8-0.2
		c0.2-0.7,1.3-0.4,2.2-0.4c0.2,0,0.3,0,0.5,0c0.1,0.2,0.1,0.4-0.3,0.6c-0.4,0.2-0.7,0.4-0.9,0.6c0.1,0,0.1,0,0.2,0.1
		c0.2,0-0.2,0.1-0.3,0.1c0,0,0,0,0,0c-0.1,0,0,0,0,0c0-0.1,0.1-0.1,0.1-0.1c-0.4-0.1-0.2-0.1-0.2,0.1c0,0,0,0,0,0
		c-1,0.2-2.6,0.3-3.2,0.6c0.4,0,0.2,0.2,0.5,0.2c0.9,0.1,1.4,0.1,1.7,0.6c0.2,0.3,0.8,0.3,1.5,0.3c2.4,0,4.8-0.1,7.3-0.1
		c1.2,0,2,0.1,2.7,0.5C42.6,53.9,40.3,54,38,54c-2.9,0-5.8,0.1-8.6,0.3c-0.6,0.1-0.8,0.5-0.7,0.5c0.4,0,0.8,0,1.2,0c0,0,0.1,0,0.1,0
		c0,0-0.1,0-0.1,0c0.1,0,0.3,0,0.4,0c-0.1,0-0.2,0-0.3,0.1c0.4,0.1,0.9,0.2,1.3,0.2c0.2,0,0.4,0,0.6,0c0.9,0,1.8,0,2.6,0
		c1.1-0.1,2.2-0.2,3.3-0.3c1.2,0,2.3,0.1,3.5,0.1c1.2,0,2.5-0.3,4,0c-1.5,0.4-3,0.3-4.3,0.4c0,0,0,0,0,0c0,0,0,0,0,0c0,0,0,0,0,0
		c0,0,0,0,0,0c-3.3,0.2-6.6,0.4-9.9,0.5c-0.4,0-1.1,0.1-1.2,0.1c-0.4,0.6-1.4,0.4-2.3,0.4c-3.8,0.1-7.7,0.3-11.5,0.5
		c-0.2,0-0.4,0.1-0.6,0.1c-0.1,0-0.1,0.1-0.1,0.1c0,0,0,0.1,0.1,0.1c0.2,0,0.4,0.1,0.6,0.1c2.9-0.3,5.8-0.2,8.6-0.3
		c1.2-0.3,2.5-0.3,3.8-0.3c1.8,0,3.6,0,5.5-0.1c1.1,0,2.1,0,3.1-0.3c3.4,0,6.8,0,10.2-0.1c0,0.1,0.1,0.2,0,0.3
		c-0.7,0.3-1.4,0.6-2.2,0.9c-0.3,0.1-0.8,0.2-1.2,0.2c-0.1,0-0.2-0.1-0.4-0.1c0,0-0.1,0-0.1,0c-0.8-0.6-1.4-0.7-2.7-0.5
		c-0.9,0.1-1.6,0.4-1.8,0.7c-0.1,0-0.2,0-0.2,0c-1.4,0-2.9,0.1-3.8,0.5c-1.6,0.8-3.6,0.9-5.6,1.2c-1.3,0.2-2.8,0-3.9,0.5
		c-1,0.1-2.1,0.2-3.1,0.3c-0.9,0.2-1.6,0.5-2.7,0.3l0,0c-1.8-0.4-3.7-0.3-5.6-0.1c-0.6,0-1.2,0.2-1.5,0.4l0.1,0c0,0-0.1,0-0.1,0
		c0,0,0,0,0,0l-0.1,0c0,0,0.1-0.1,0.1-0.1c0,0,0-0.2-0.1-0.2c-0.4,0-0.7,0.2-0.7,0.2l-0.3,0v0c0-0.1-1.4-0.1-2,0
		C7.3,61.2,5,61.2,2.8,61c-0.7-0.1-1.5-0.1-2.2,0c-0.3,0-0.5,0.2-0.6,0.3c-0.1,0.2,0.2,0.3,0.6,0.4c0.9,0.1,1.9-0.1,2.6,0.3
		c-0.8,0-1.6,0-2.4,0.1c-0.2,0.5,0.6,0.4,1.4,0.4c0.8,0,1.6-0.1,2.4,0.1l0,0c0.7,0.2,1.4,0.3,2.1,0.1c0.1,0,0.1-0.1,0.2-0.1
		c0,0,0,0,0,0c0,0,0.2-0.1,0.4-0.1c0.2,0,0.4,0,0.5,0c0.2,0,0.4,0,0.6,0c0,0,0.1,0.4,0.2,0.3c0.1,0,0.3,0.5,0.4,0.5h0
		c1,0,1.8-0.2,2.6-0.4c1.7,0,3.5-0.2,5.2-0.3c0.9,0,1.9-0.2,3.3,0.1c-1.6,0.1-2.5,0.1-3.4,0.2c-0.4,0-0.9,0.1-0.9,0.3
		c-0.1,0.2,0.4,0.3,0.8,0.3c1.2,0.2,2.3,0.1,3.5-0.1c0.2,0,0.4,0,0.6,0.1c0.1,0.2,0,0.4-0.5,0.4c-1.3,0.2-2.7,0.2-4,0.3
		c-0.4,0-0.9,0.1-0.9,0.3c0,0.2,0.5,0.3,0.9,0.3c0.2,0,0.4,0,0.6,0c1.1,0,2.3,0,3.4,0c1.2,0,2.5,0.3,3.7,0.5c0,0.2,0,0.9,0,0.9h0
		c-0.7,0-1.4,0.2-0.6,0.7c0,0.7,0.4,0.8,1.6,0.9c0.8,0,1.7-0.1,2.6-0.1c0.6,0,1.3-0.2,1.8,0.2c-0.9,0.2-1.9,0.1-2.8,0.1
		c-1.1,0-2,0.4-3,0.4c-0.5,0-0.8-0.1-1-0.3c-0.2-0.2-0.3-0.4-0.8-0.6c-0.4-0.1-0.8-0.1-1.2,0c-0.5,0.1-0.5,0.3-0.3,0.5
		c0.2,0.2,0.4,0.3,0.5,0.5c0.2,0.3,0.7,0.5,1.6,0.5c1.4,0,2.8,0,4.2,0.1c1,0,1,0.1,1.2,0.8c-0.4,0.1-1,0.3-0.6,0.6
		c-0.1,0.1-0.1,0.2-0.1,0.2c-0.4,0.2-0.8,0.4-1.2,0.6c-0.7-0.2-1.4-0.5-1.9,0.1c-0.1,0.2-0.6,0.2-1.1,0.3c-0.4,0-0.9,0-1.2-0.1
		c-0.4-0.2-0.1-0.3,0.2-0.4c0.2-0.1,0.5-0.2,0.7-0.3c0.1-0.1,0.2-0.2,0.1-0.2c-0.1-0.2-0.4-0.2-0.7-0.2c-1.9,0-3.2,0.1-5.1,0.1
		c-0.5-0.2-0.6-0.4-0.6-0.1l0-0.3c0,0-1.4,0-1.4,0c0.6,0.6,1.3,0.7,1.9,1c0.9,0,1.7,0.1,2.6,0.1c0.2,0.1,0.2,0.2,0,0.3
		c0.2-0.1,0.2-0.1,0-0.2c0,0.1,0,0.2,0,0.3c-0.2,0-0.4,0-0.6,0c-0.2,0-0.3,0.1-0.3,0.1c0,0-0.1,0-0.1,0c0,0,0.9,0,0.9,0
		c0.1,0,1.1,0,1.1,0v0c1,0.3-1.2,0.8-0.1,0.8c2.3,0.1,4.3,0.3,6.6,0.1c1.4-0.2,2.5-0.2,3.6,0.2c1.1,0.4,2.3,0.4,3.7,0.2
		c0.5-0.1,0.9-0.2,1.3-0.2c0,0,0,0,0,0c0,0,0,0,0,0l0,0c0,0,0,0,0,0c0,0,0,0,0,0c0.3,0.2,0.6,0.3,1.2,0.3c1.1,0,2.1,0,3.2,0
		c0.3,0,0.7,0.1,0.8,0.1c0.3,0.2-0.1,0.3-0.5,0.4c-0.2,0.1-0.3,0.1-0.5,0.2c-0.2,0.1-0.4,0.2-0.2,0.3c0.1,0.1,0.4,0.1,0.5,0.1
		c0.4,0,0.9,0,1.3-0.1c2-0.4,4.1-0.4,6.3-0.4c0.1,0.1,0.1,0.1,0.2,0.2c-0.7,0.3-1.5,0.5-2.4,0.6c-1.1,0.1-1.7,0.4-2.2,0.8
		c-0.2,0-0.4,0-0.6,0c-0.8,0-1.7,0-2.5,0c-1.1,0-2.1,0.1-2.8,0.5c-0.8,0.5-1.8,0.5-3,0.2c-0.3-0.1-0.6-0.1-0.9-0.1c-1,0-2-0.3-3-0.1
		c-0.8,0.2-0.9,0.4-0.2,0.4h0c-0.9,0-0.9,0.8-0.2,0.9c0.4,0.1,0.6,0.4,0.7,0.6c0.7,0.9,1.3,1.1,3.3,0.5c1.1,0.1,2.2,0.2,3.3-0.1
		c0.2,0,0.4-0.5,0.6-0.5c0.9,0,1.8-0.4,2.6-0.4h0c0.3,1,1.2,0.7,1.8,0.7c2.2,0,4.5,0.2,6.7,0.1c0.6,0,1.2-0.2,1.8-0.2
		c1.1,0,2.1,0,3.2,0c-0.1,0.6-0.2,0.8-0.9,0.7c-1.5-0.1-3,0.1-4.4,0.2c-1.9,0.2-3.8,0.3-5.7,0.3c0,0-0.1,0.1-0.2,0.1
		c-0.1,0-0.3,0-0.4-0.1c-0.4,0-0.8,0-1.3,0c-1,0-2.1,0-3.1,0c-0.9,0-1.6,0.2-2.1,0.5c0,0.2,0.3,0.2,0.6,0.3c1.6,0,3.1,0,4.7-0.1
		c1.5-0.1,2.6,0.2,3.4,0.6c0,0,0,0-0.1,0c0,0,0,0.1,0,0.1c-0.3,0-0.6,0-0.8,0c-0.1,0-0.2,0-0.3,0c-0.7,0-1.3,0.1-1.2,0.5
		c0,0.3,1.3,0.3,1.8,0.3c0.8,0.1,3.3-0.1,3.3,0c1,0.1,0.1,0.1,0.5,0.1c0.4-0.2,0.4-0.1,0.9,0c0.4-0.1,0.6-0.1,0.9-0.2
		c0.6,0,1.1,0.1,1.7,0.1c0.1,0,0.1,0,0.2,0c2.1,0.1,4.1,0.1,6.2,0.2c0.3,0,0.7,0,1,0c0.1,0,0.3,0.1,0.3,0.2c0,0.1-0.2,0.2-0.4,0.2
		c-0.8,0-1.7,0.1-2.5,0.1c-2.1,0-4.3,0-6.4,0c-0.8,0-1.3,0.2-1.3,0.5c0,0.3,0.5,0.5-0.1,0.8c-0.7,0.3-1.4-0.1-2.1-0.1
		c-0.2,0-0.4,0-0.6,0c-0.2,0.2-0.3,0.5-0.5,0.6c-0.3,0.3-0.9,0.5-1.4,0.6c-0.4,0.1-0.8,0.3-1.1,0.4c-0.4,0.1-0.3,0.6,0.1,0.6
		c0.4,0.1,0.8,0.2,1.2,0.1c1.6-0.1,3.2,0.1,4.8,0.2c1.2,0.1,2.3-0.2,3.5-0.2c0.2-0.1,0.4-0.6,0.7-0.6H53c0.9,0,1.9,0.3,2.8,0.3
		c0.3,0,0.5,0.2,0.8,0.2c0.3,0,1,0.1,1.3,0.1c3.4,0.2,8,0.2,10.7,0.1c0,0.1,0,0.2,0,0.3c1.3,0,0.7,0,1.3,0.1c0.7,0.2,1.2,0.2,1.9,0
		c0,0,0,0-0.1,0c0,0,0.1,0,0.1,0c0,0,0,0,0,0c0.1,0,0.2,0,0.3,0c0.5,0.1,1,0.1,1.6,0c0,0,0-0.1,0-0.1c0.1,0,0.3-0.1,0.4-0.1h0
		c0.2,0,0.5,0.2,0.7,0.3c-0.4,0.2-0.9,0.4-1.3,0.6c-0.3,0.2-0.8,0.5,0.1,0.5c2.1,0.1,4.2,0.2,6.4,0.3c0.5,0,1.3,0,1.5,0.4
		c-5.2,0-10.3-0.1-15.4-0.1c-4.2,0-8.3,0.2-12.5,0.3c-0.6,0-0.9,0.2-1.3,0.4c1.3,0,2.5,0.1,3.7,0.2c1.7,0.2,3.5,0.3,5.3,0.3
		c0.8,0.5,2,0.7,3.4,0.8c3.5,0.1,6.9,0.3,10.4,0.5c0.3,0,0.6,0,0.9,0c0.2,0,0.4,0.1,0.4,0.2c0,0.1-0.2,0.2-0.4,0.2
		c-0.5,0-1,0.2-1.4,0.2l0,0l-0.2,0c0.1,0,0.2,0,0.2,0l0.1-0.1C73.4,91,72.1,91,71,91c-2.4,0-4.8,0.2-7.1,0.3c-0.6,0-1.2,0-1.8,0
		c-0.3,0-0.6-0.1-0.8-0.2c-0.2,0-0.4,0-0.7,0c-0.1,0.3,0.1,0.4,0.7,0.5c1.6,0.2,3.3,0.2,5.1,0.2c2.8,0,5.6-0.2,8.3,0.1
		c3.2,0.3,6.3,0.4,9.6,0.3c2.5,0,4.9,0,7.4,0c-0.9,0.3-1.2,0.6-0.8,1c0.4,0,0.9,0,1.3,0c0.3,0.2,1,0.1,1.4,0.2
		c2.2,0.5,4.7,0.3,7.1,0.4c0.2,0,0.5,0,0.6-0.1c1.5-0.5,3-0.3,4.5-0.1c0.4,0.2,0.9-0.1,1.6-0.2c-0.1-0.1-0.2-0.4-0.3-1.2
		c0,0,0.1,0.5,0.1,0.4c0.9,0,1.7,0.3,2.6,0.3c-0.1,0.1-0.1,0.4,0.2,0.5c0.3,0.1,0.5,0.5,0.7,0.4c0.1-0.1,0.1,0.3,0.2,0.3
		c5.1,0,10.5-0.4,15.8-0.6c1,0,2.1-0.1,3.2-0.1c0.7,0,1.5,0,2.2-0.1c2.4-0.2,5.9-0.1,8.3-0.3c-0.2,0.6,1,0.3,3,0.7v0
		c0,0.2-0.1,0.2,0.3,0c1.3,0,2.1,0,3.3,0c2.4,0.4,4.5,0.4,6.9,0c1,0,2,0,3,0c0.2,0.1,0.4,0.1,0.7,0c0.2,0,0.3,0,0.5,0
		c0.5,0.1,0.9,0.2,1.3,0.3c0,0,0.1,0,0.2,0.1c0.1,0,0.1,0.5,0.2,0.5c0.1,0.1,0.1,0.6,0.3,0.6c0-0.1,0-0.5,0-0.5c0,0,0-0.2,0-0.2
		l0-0.1c0.2,0.1,0.3,0,0.5,0.1c0.9,0.2,1.8,0.1,2.7,0.1c0,0,0,0,0,0c-0.2,0-0.5-0.1-0.8-0.1c0.2,0,0.6,0,0.6,0.1l0,0
		c0.1,0,0.1,0.1,0.2,0.1c0,0,0,0,0,0c0,0,0,0,0,0c1.1,0.5,2.9,0.4,4.1-0.1c2.3-1,5.2-1,8-0.7c2.7,0.3,4.8,0.1,6.7-0.7
		c0.2-0.2,0.4-0.3,0.6-0.5c1.6-0.3,3.2-0.5,4.7,0.1c0.5,0.2,1.2,0.2,1.8,0.1c1.1-0.1,2.3-0.2,3.4-0.4c1.3-0.1,2.5-0.2,3.8-0.1
		c1.7,0.1,3.2,0,4.6-0.4c3.6-0.2,7.3-0.4,10.9-0.4c0.5,0,1.1,0,1.6,0c7.8-0.4,15.6-0.7,23.4-1c1.3,0,2.6-0.1,3.7-0.4
		c2.2-0.5,4.5-0.5,6.9-0.4c1.1,0.1,2.1,0.1,3.2,0.1c1.5,0.2,3.1,0.3,4.6,0.1c0.5-0.1,1.1-0.1,1.6-0.1c1.7,0.1,3.3-0.1,4.9-0.4
		c0.9,0.4,0.9,0.4,1.9,0c0.3-0.1,0.6-0.1,0.9-0.1c-0.3,0-0.6,0-0.9,0.1c0.4,0,0.9,0,1.3,0c1.3,0.3,2.6,0.3,3.9,0
		c1.1-0.2,2.3-0.2,3.4-0.2c4.5-0.1,9-0.2,13.4-0.4c0.9,0,1.7,0,2.6,0c0.4-0.2,0.9-0.2,1.3,0c2.2,0,4.5,0,6.7-0.1c1.5,0,3,0,4.4-0.2
		c3,0.1,5.9,0,8.9-0.1c1.5,0,3,0.1,4.6-0.1c0.7,0,1.3,0,2,0c1.1,0,2.1,0,3.2,0c0.2,0,0.5,0,0.7,0c0.2-0.1,0.5,0,0.7,0
		c-0.2,0-0.5,0.2-0.7,0.2c2.5,0,5.1,0,7.6,0c1,0,2.1,0,3.1,0c1.8,0,3.6,0,5.4,0c1.7,0.4,3.5,0,5.2-0.1c0,0,0.1-0.2,0.1-0.2
		c0,0,0,0,0,0l0,0.2c0.2,0.2,0.7,0.5,0.9,0.7c-0.2,0-0.2,0.1-0.2,0.1l0,0c0-0.1-4.6,0.2-6.7,0.2c-1.4,0-2.6,0.2-3.8,0.4
		c-0.4,0.1-0.7,0.3-0.4,0.4c0.5,0.3,1.3,0.4,1.5,0.8c-0.2,0-0.4,0-0.6,0.1c-0.7,0-1.3,0-2,0c-0.2,0-0.4,0-0.6,0
		c-0.2,0.1,1.1,0.1,1.3,0.2c0.9,0,3.9,0,3.9-0.1l0,0.5c2.1-0.1,4.2-0.2,6.7-0.2c1.3,0.1,2.1-0.2,3.4-0.3c2.6,0,5.7,0.2,8.5,0
		c0-2.2,1.5-4.5,4.3-4.5h40c1.2,0,2.2,0.4,2.9,1c30.1-1.8,60-6.6,90.3-6.7c3.7,0,5,3.6,4,6.3c0.8-0.1,1.7-0.3,2.5-0.5
		c1-0.2,1.9-0.1,2.6,0.2c1.6-0.1,3.3-0.2,4.9-0.3c0.4,0,0.9-0.1,1.3-0.1c0.6,0,1.2,0,1.8-0.1c0.6,0.1,1.1,0.2,1.7,0.3
		C510.5,87.1,511.2,87.1,512,87z M80.7,23.7c-4.2,0.5-8.6,1.1-13.1,0.7c0,0,0,0,0,0c0.5-0.1,0.9-0.1,1.4-0.2c0.4,0,0.8-0.1,1.2-0.1
		c0.3,0.1,0.7,0.2,1.2,0.3c2.2,0.1,4.2-0.3,6.3-0.4c8-0.7,15.8-1.6,23.5-2.7c0.2-0.1,0.5-0.1,0.7-0.2c0.5,0,1.1-0.1,1.6-0.1
		c0.6-0.1,1.2-0.1,1.7-0.1c0.3,0,0.6,0,0.9-0.1c0.8-0.1,1.6-0.1,2.4-0.2c0.1,0,0.2,0.1,0.3,0.1c-0.1,0-0.1,0-0.2,0.1
		c-0.5,0-1,0.1-1.5,0.2c-0.2,0-0.4,0-0.6,0c-1.1,0.1-2.2,0.2-3.2,0.3c-0.6,0.1-1.2,0.2-1.8,0.4c-1.1,0-2.2-0.1-3.3,0.1
		C92.6,22.5,86.6,23.1,80.7,23.7z M110.7,92.3c-0.1-0.1-0.2-0.2-0.4-0.3c-3.6-0.5-7.3-0.2-11-0.2c0.3-0.1,0.5-0.5,0.4-0.5h0.1
		c4.3,0,8.7,0.5,13.1,0.5C112,91.9,111.3,92,110.7,92.3z M142.1,92.1c-6,0-12,0-18-0.1c-0.4,0-0.8,0-1.1,0c-1.1,0-2.2-0.1-3.3-0.1
		c1.5,0,3,0.1,4.5,0.1c0.6,0,1.2-0.1,1.5-0.3c0.8-0.8,2.2-0.7,3.7-0.6c-0.1,0.1-0.4,0.1-0.6,0.1c-0.2,0-0.5,0.1-0.5,0.1
		c-0.1,0.2,0.3,0.2,0.6,0.2c1.6,0.1,3.2,0.3,4.3-0.4c0.6,0,1.2,0,1.8,0c0,0,0,0,0,0c-0.6,0.2-0.3,0.4,0.3,0.4c2.4,0.1,4.7,0,7.1-0.2
		c0.2,0,0.4-0.1,0.4-0.2c-0.1-0.1-0.1-0.1-0.1-0.2c1.6,0,3.1,0.1,4.7,0.3c0,0.1,0,0.3,0,0.5c0.8,0.1,1.6,0.1,2.4,0.2
		c0.8,0,1.7,0,2.5,0.1C148.8,92.3,145.4,92.1,142.1,92.1z M398.6,6.3c-1,0-2-0.1-3-0.2c0.1,0,0.3,0,0.4-0.1c0.1,0,0.2,0.1,0.3,0.1
		C397.1,6.2,397.8,6.3,398.6,6.3c0.1,0,0.2,0,0.2,0c2.8,0.1,5.7,0.3,8.5,0.4C404.4,6.7,401.5,6.5,398.6,6.3z"/>
	<linearGradient id="SVGID_2_" gradientUnits="userSpaceOnUse" x1="510.8979" y1="89.6774" x2="510.9432" y2="87.9841">
		<stop  offset="2.512563e-02" style="stop-color:#5E4C1E"/>
		<stop  offset="0.293" style="stop-color:#635225"/>
		<stop  offset="0.6771" style="stop-color:#706438"/>
		<stop  offset="1" style="stop-color:#7F774D"/>
	</linearGradient>
	<path class="st34" d="M512,88c-0.7,0-1.5,0.1-2.2,0.2c0.4,0.4,0.6,0.9,0.8,1.5c0.5,0,0.9,0,1.3,0.1V88z"/>
</g>
<path class="st1" d="M513,4.9c-0.1-0.2-0.3-0.3-0.4-0.5c-2-0.7-4.1-0.5-6.2-0.5c-0.1,0-0.3,0-0.4,0c-0.1,0-0.2-0.1-0.2-0.1l0,0
	c-0.2,0-0.4,0-0.6,0l0,0c-1.1-0.1-2.1-0.1-3.2-0.2c-0.1,0.1-0.2,0.1-0.3,0.2c-0.1,0-0.2-0.1-0.3-0.1c-0.2,0-0.4,0-0.6-0.1
	c-1-0.2-2.1-0.3-3.1-0.2c-1.7-0.2-3.4-0.5-5.2-0.5c-1.8,0-3.6-0.1-5.4-0.2c-0.3,0-0.7,0-1-0.1c-0.8-0.2-1.6-0.2-2.4-0.1
	c-0.6,0.1-1.1,0-1.5-0.2C481.2,2,480,2,478.8,2c-1.7-0.1-3.4-0.2-5.1-0.4c-0.4,0-0.7-0.1-1-0.3c-0.9-0.5-1.7-0.4-2.3,0.3
	c-0.1,0-0.1,0.1,0,0.2c-2-0.3-4.1-0.6-6.2-0.4c-0.6,0.1-1.2,0-1.8-0.1C461.3,1,460.1,1,459,1.2l-0.1,0c-1.7-0.1-4.1-0.2-5.1,0.3l0,0
	c0-0.1-0.1-0.5-0.3-0.5l0.2-0.6l-0.5,0.1l0,0.5c0-0.7-1.3-0.1-2.1-0.1c-0.8,0-1.4,0.2-2.2,0.2c-0.1-0.1-0.1-0.1-0.2-0.2
	c-0.4,0.1-0.8,0.2-1.3,0.3c-0.6,0.1-1.1,0.2-1.5,0.5c-2.8,0.3-5.4,0.1-8.2-0.1c-1.2-0.1-2.3-0.8-2.9,0.6c0,0,0,0,0,0
	c-0.8-0.7-1.3-0.3-2-0.3c-1.3,0-2.6,0-3.9,0.1c-0.6,0.1-1.4,0.1-2,0.1c-0.9,0-1.9,0-2.8,0.2c-0.7,0.2-1.5,0.2-2.2,0.1
	c-2.6-0.2-5.2,0.1-7.8,0.1c-0.3,0-0.5,0.1-0.8,0.2c-0.5-0.2-1-0.2-1.6-0.1c-0.7,0-1.4,0-2.2,0c-0.6-0.2-1.2-0.2-1.8-0.1
	c-1.1,0.2-2.1,0.1-3.2,0.2c-2.7,0.1-5.5,0.3-8.2,0.5c-0.5,0-0.9,0.1-1.4,0.2c-0.9,0.3-1.8,0.3-2.7,0.3c-1,0-2,0.1-2.9,0.4
	c-0.2,0.1-0.3,0.2-0.3,0.3c0,0.1,0.2,0.1,0.3,0.1c0.9,0.1,1.9,0.2,2.8,0c1.7-0.3,3.4-0.4,5.2-0.4c0.7,0,1.3-0.1,2-0.1
	c0.5,0,1.3,0.1,1.4,0.4c-0.2,0.1-0.2,0.2-0.2,0.3l0,0c-1-0.1-1.5,0-2.1,0.1c-0.3,0-0.9-0.1-1.2,0c-1.3,0.3-2.7,0.3-4.1,0.3
	c-2.6,0.1-5.3,0.3-7.9,0.4c-0.5,0-0.6-0.1-0.4-0.5c0.3-0.5,0.1-0.7-0.6-0.7c-1.1,0.1-2.2,0.1-3.2,0.3c-1.4,0.4-2.9,0.5-4.3,0.7
	c-2.2,0.3-4.3,0.6-6.5,0.9c-0.5-0.1-1.1-0.2-1.6-0.2c-1.8,0.2-3.6,0-5.3-0.4c-0.7-0.2-0.9,0-0.9,0.5c-0.1,0.7-0.2,0.8-1,1
	c-0.2,0-0.4,0.1-0.6,0.1c-1.7,0.1-3,0.7-4.1,1.5h0.7c-0.1,0.1-0.1,0.3-0.1,0.4c0,0,0,0,0,0v0c0,0,0,0,0,0c-0.5,0-0.9,0-1.2,0.1
	c0.1,0.1,0.2,0.3,0.2,0.3c0.1-0.1,0.2,0,0.3-0.1c0.2,0,0.4,0,0.5,0c0.2,0,0.4,0,0.6,0c0.1-0.1,0.6-0.2,0.6-0.3
	c0.2,0,0.9-0.1,0.9-0.1v0c0,0.1,0,0.1,0.2,0.1c0.1-0.1,0-0.1,0.1-0.2c0.6,0.5,0.6,0.6,0,0.8c-0.6,0.2-1.2,0.3-1.8,0.4
	c-2.5,0.4-5,0.8-7.3,1.5c-0.4,0.1-0.9,0.2-1.4,0.2c-1.3,0.1-2.5,0.4-3.7,0.6c-0.4,0.1-0.9,0.2-1.4,0.3c-2.1,0.3-4.2,0.5-6.3,0.8
	c-1.2,0.1-2.4,0.3-3.5,0.6c-0.2,0-0.4,0.2-0.3,0.3c0.1,0.1,0.3,0.2,0.5,0.2c0.5,0,1.1,0,1.6,0c1.8-0.2,3.6-0.5,5.3-0.7
	c2.4-0.3,4.8-0.6,7.1-0.8c0.2,0,0.4,0,0.4,0.2c0,0.1-0.1,0.2-0.2,0.2c-1.2,0.4-2.4,0.8-3.6,1.2c-0.1,0-0.2,0.1-0.4,0
	c-2.4-0.2-4.5,0.6-6.9,0.6c-0.5,0-0.7,0.1-0.7,0.4l0.1-0.1v0c0,0.4-0.3,0.3-0.4,0.3c-0.1,0.1-0.3,0.2-0.4,0.3
	c-0.6-0.1-1.3-0.3-1.8-0.5c-0.4-0.2-0.8-0.1-0.9,0.3c-0.1,0.1-0.1,0.3-0.2,0.4c0,0-0.2,0.2-0.3,0.2c-0.2,0-0.2,0.1-0.4,0.1
	c0,0,0,0,0,0l-0.1,0c0,0,0,0,0,0c-0.2,0-0.5-0.1-0.6-0.2l-0.1-0.1c-0.1-0.1-0.5,0-0.7,0c-0.4,0.1-0.3,0.3-1.3,0.4l0,0
	c-2-0.2-3.3,0-5,0.2c-0.3,0-0.4,0.1-0.6,0.2c-0.2,0.1-0.5,0.3-0.3,0.5c0.1,0.1,0.3,0.3,0.5,0.3c0.8,0,1.7-0.1,2.5-0.1
	c0.7,0,1.3-0.9,2.1-0.2h0c0-0.6,0.2-0.2,0.3,0c0.2,0,0.3,0,0.5,0.1c0.4,0,0.8-0.1,1.2-0.1c0.1,0.1,0.3,0.1,0.3,0.1h0
	c0,0,0,0.2,0,0.2c-0.9,0.4-1.9,0.5-2.9,0.6c-2.7,0.2-5.4,0.3-8,0.7c-0.3,0-0.6,0-0.8,0.3c0.7,0.2,1.4,0.1,2.1,0.1c0.7,0,1.3,0,2-0.1
	c0.7,0,1.5-0.1,2.2-0.1c0.7,0,1.3,0,2,0c0.7,0,1.5-0.1,2.2-0.2c0.7,0,1.3-0.1,2-0.1c1,0.1,1.9,0.1,2.9,0c0.5-0.1,1-0.1,1.4-0.2
	c0.2,0-0.3,0,0.6,0l0,0.2c0,0,0,0,0,0c0,0-0.1-0.2-0.1-0.2c-0.1,0.3,0.1,0.4-0.9,0.4c-0.9,0-1.8,0.3-2.8,0.5
	c-0.1,0.1-0.1,0.2-0.2,0.3c-0.9-0.1-1.7-0.1-2.6,0c-0.7,0.1-1.5,0.1-2.2,0.1c-1.1,0-2.1,0.1-2.9,0.7c-0.3,0.2-0.7,0.3-1.1,0.3
	c-1.5,0.1-2.9,0.4-4.3,0.6c-2.6,0.4-5.2,0.5-7.8,0.4c-1,0-1.9-0.1-2.8,0.1c-1.6,0.2-3.2,0.3-4.8,0c-0.5-0.1-0.9-0.1-1.4-0.1
	c-0.2,0-0.4,0.1-0.5,0.2c-0.1,0.1,0,0.3,0.1,0.4c0.4,0.4,1.1,0.6,1.8,0.6c1.5,0.1,2.9,0.4,4,1.2c0.3,0.2,0.7,0.3,1.1,0.3
	c1.9,0.2,4,0,6,0.2c0.3,0,0.9-0.5,1.2-0.4l0,0c0.2,0,0.2,0.4,0.4,0.4c0.4,0.2,0.9,0.4,1.4,0.4l-0.1,0.1c0.2,0,0.5,0.2,0.5,0.1l0,0
	c0,0,0.3-0.1,0.5,0c0,0,0,0,0.1,0c0.4-0.3,0.3,0.1,0,0c-0.1,0-0.1,0.1-0.2,0.2h0c-0.1,0-0.3,0.3-0.5,0.3l0.1,0.1
	c-0.2,0-0.4,0.1-0.6,0.1c-1.3-0.2-2.5-0.2-3.8-0.3c-0.8,0-1.6,0-2.4,0.3c-0.3,0.1-0.8,0.2-1.1,0.2c-2.8,0-5.5,0-8.2-0.6
	c-0.7-0.1-1.3-0.1-2-0.2c-2.9-0.2-5.9-0.3-8.8-0.7c-1.4-0.2-2.8-0.4-4.1-0.8c-0.2-0.1-0.5-0.1-0.8-0.1c-0.1,0-0.2,0.1-0.3,0.2
	c0,0,0,0.1,0,0.1c0.2,0.1,0.4,0.2,0.7,0.3c3.2,0.7,6.3,1.4,9.6,1.7c0.5,0.1,1.1,0.2,1.6,0.3c2.2,0.4,4.4,0.8,6.7,1
	c1.1,0.1,2.2,0.3,3.4,0.5c3.6,0.5,7.2,0.9,10.8,1.2c-0.2,0.4-0.7,0.7-1.3,0.7c-0.5,0-1.1,0.1-1.6,0c-1.5-0.2-2.9,0-4.4,0.2
	c-1.1,0.2-2.1,0.2-3.1-0.1c-0.4-0.1-0.9-0.2-1.4-0.1c-0.3,0-0.4,0.2-0.2,0.4c0.2,0.2,0.5,0.3,0.4,0.6c-0.2,0.3-0.5,0.5-1.1,0.5
	c-0.4,0-0.8-0.1-1.2-0.1c-0.5,0-0.9-0.1-1.4-0.2c-0.1,0-0.1,0-0.2,0.1c-0.1,0.3,0.2,0.3,0.4,0.3c1.2,0.3,2.5,0.5,3.6,0.9
	c0.7,0.2,1.4,0.4,1.9,0.7c0.7,0.4,1.6,0.5,2.5,0.4c0.1,0.1,0.2,0.1,0.3,0.2l0,0c-0.2,0.2-0.5,0.1-0.8,0.1c-0.8,0.1-0.8,0.7-0.8,0.7
	c0,0,0,0,0,0l0,0.1c0,0,0,0.2,0,0.2c0,0-0.1,0-0.1,0c0,0-0.1,0-0.1,0c-0.1,0.2,0,0.4,0.2,0.5c0.6,0.2,1.2,0.4,1.8,0.6
	c0.3,0.1,0.6,0.3,0.5,0.5c0,0.2-0.5,0.4-0.9,0.4c-0.3,0-0.5-0.1-0.8-0.1c-0.3,0-0.5-0.1-0.8-0.1c-0.5,0-0.5,0-0.4,0.5l-0.2-0.1
	l0-0.2l0,0c0,0-0.3,0.1-0.5,0.1c-1.2-0.2-1.9,0.1-2.7,0.8c-0.6,0.6-0.7,0.6,0.2,0.8c1.5,0.5,2.9,1.2,4.2,1.8
	c0.2,0.1,0.3,0.3,0.2,0.5c-0.1,0.2-0.3,0.3-0.6,0.3c-0.3,0-0.7,0-1,0c-0.4,0-0.8-0.2-1.2-0.2c-0.3,0-0.7-0.1-1-0.1
	c-0.2,0-0.4,0.1-0.4,0.2c0,0.1,0.1,0.2,0.2,0.2c1,0.2,2,0.5,3.1,0.6c0.7,0.1,1.5,0.2,2.1,0.4c0.4,0.1,0.8,0.2,1.2,0.2
	c0.7-0.1,1.3,0.1,1.9,0.4c0.4,0.2,1,0.2,1.5,0.2c0.3,0.2,0.7,0.3,1,0.5c0.1,0,0.1,0.2,0.1,0.2c0,0.1-0.2,0.2-0.3,0.2
	c-0.7,0-1.5-0.1-2.2-0.1c-1.2-0.1-1.3,0-1.6,0.8c-0.2,0.6-0.5,0.8-1.3,0.8c-0.5,0-1.1,0-1.6,0c-0.2,0-0.4,0.1-0.4,0.2
	c-0.1,0.1,0.1,0.2,0.3,0.3c1.5,0.2,2.9,0.4,4.4,0.6c1,0.2,2,0.3,2.9,0.5c0.2,0,0.4,0.1,0.4,0.2c0,0.1-0.1,0.3-0.3,0.3
	c-0.5,0.2-1,0.4-1.5,0.6c0.1,0.3,0.3,0.3,0.6,0.3c0.5,0,0.9,0.1,1.4,0.1c0.2,0,0.4,0.1,0.4,0.2c0,0.2-0.2,0.2-0.4,0.2
	c-1-0.1-2-0.1-3-0.2c-0.7,0-1.3-0.1-2-0.1c-0.8,0-1.6,0.1-2.3,0.4c-1,0.6-2.2,0.6-3.4,0.5c-1.3-0.1-2.7-0.2-4-0.3
	c-0.5,0-0.9,0-1.4,0.1c-0.2,0-0.3,0.2-0.4,0.3c-0.1,0.1,0.1,0.3,0.3,0.3c0.3,0.1,0.5,0.1,0.8,0.2c0.8,0.2,1.7,0.3,2.5,0.5
	c0.9,0.2,1.3,0.6,1.2,1.2c0,0.3-0.3,0.2-0.5,0.3c-0.6,0.2-0.7,0.4-0.5,0.8c0.2,0.4,0.7,0.7,1.3,0.8c0.5,0.1,1.1,0.2,1.6,0.3
	c0.5,0.1,1.1,0.2,1.5,0.4c0.8,0.7,1.8,0.9,2.9,1.2c0.2,0,0.3,0.1,0.5,0.2c0.4,0.2,0.3,0.6-0.1,0.7c-0.3,0.1-0.6,0.2-1,0.2
	c-0.3,0-0.7-0.1-1-0.1c-0.5,0-1-0.1-1.3,0.2c-0.4,0.4-0.1,0.7,0.3,1c0.4,0.4,0,0.6-0.5,0.6c-0.4,0-0.8-0.1-1.2-0.1
	c-1.5-0.2-2.9-0.2-4.6-0.3c0.9,0.5,2,0.7,7.2,1.3c0.9,0.1,1.8,0.3,2.8,0.4c0.8,0.1,1.6,0.2,2.3,0.5c0,0.3-0.4,0.2-0.6,0.2
	c-0.5,0-1.1-0.1-1.6-0.1c-0.1,0-0.1,0-0.1,0.1c0,0.1,0,0.2,0.1,0.2c1.1,0.4,2.3,0.6,3.5,0.7c1.6,0.2,3.1,0.4,4.3,1.2
	c0.1,0,0.2,0,0.3-0.1c0,0,0,0,0,0l-0.1,0.1c0,0-0.1,0-0.1,0c0,0-0.1,0-0.1-0.1c-0.6,0.1-0.8,0.1-1.2,0.1c-0.1,0-0.4,0.2-0.4,0.3
	c0,0.1,0.1,0.2,0.2,0.2c0.4,0.1,0.9,0.2,1.3,0.3c0.8,0.2,1.7,0.4,2.5,0.6c0.2,0,0.4,0.1,0.4,0.3c-0.2,0.2-0.4,0.1-0.7,0.1
	c-1,0-2-0.1-3-0.1c-0.5,0-1.1,0-1.5,0.3c-0.4,0.3-0.9,0.3-1.4,0.5c-0.9,0.2-1.7,0.3-2.5,0c-0.7-0.2-1.4-0.3-2.2,0
	c0.8,0.4,1.5,0.5,2.2,0.6c0.8,0.1,1.6,0.2,2.3,0.5c0.2,0.1,0.4,0.2,0.4,0.4c0,0.3-0.4,0.4-0.7,0.4c-0.1,0-0.3,0.1-0.4,0.1
	c-2.1-0.6-4.2-0.7-6.3-1c-0.8-0.1-1.6-0.4-2.5-0.2c0.4,0.8,1.2,1.3,2.3,1.5c1,0.4,2.1,0.9,3.3,1c0.4,0,0.9,0.1,1.2,0.5
	c-0.8,0.1-1.5-0.2-2.2-0.2c-0.7,0-1.3-0.1-2-0.2c-0.3,0-0.5-0.1-0.8-0.1c-0.1,0-0.3,0.1-0.3,0.1c0,0.1,0,0.2,0.1,0.2
	c0.2,0.2,0.6,0.4,1,0.4c1.6,0.2,3.2,0.7,4.9,0.8c1.8,0.1,3.5,0.6,4.8,1.6c-0.1,0.2-0.4,0.1-0.7,0.1c-0.6,0.1-0.7,0.2-0.4,0.5
	c0.2,0.3,0.4,0.4,0.1,0.7c-0.1,0.1,0,0.3,0.2,0.3c1.7,0.4,1.6,1.2,1.1,2.1c0,0.1-0.1,0.2-0.1,0.3c-0.1,0.3,0.1,0.4,0.4,0.5
	c0.7,0.2,1.4,0.4,2.1,0.5c0.3,0.1,0.6,0.2,0.9,0.3c0.4,0.1,0.4,0.3,0,0.5c-0.2,0.1-0.5,0.1-0.6,0.4c-0.2,0.7-0.2,0.7-0.9,0.6
	c-0.9-0.1-1.7-0.2-2.6-0.2c-0.4,0-0.8,0.1-1.2,0.2c-0.3,0.1-0.5,0.2-0.4,0.4c0,0.2,0.3,0.3,0.5,0.4c0.8,0.2,1.5,0.4,2.3,0.6
	c1.1,0.3,2.4,0.3,3.6,0.4c0.7,0.2,1.5,0.3,2.1,0.3h0c0.3,0.7,0.8,0.9,1.4,0.9c1.3,0.2,2.3,0.8,3.5,1.2c2.1,0.6,4.3,1.1,6.5,1.5
	c0.3,0,0.5,0.2,0.7,0.2c0,0,0.1,0.1,0.1,0.1c-0.1,0.1-0.1,0.2-0.2,0.2c-0.3,0-0.7,0-1,0c-0.6,0-1.1-0.2-2-0.1
	c0.9,0.4,1.9,0.6,2.2,1.3c0.1,0.1,0.3,0.2,0.5,0.2c1,0,1.6,0.5,2.3,0.7c0.7,0.2,1.4,0.5,2.2,0.6c1.4,0.2,2.7,0.7,4.1,0.7
	c0.6,0,1.2,0.1,1.7,0.4c0.2,0,0.4,0,0.5,0l0.1-0.3c0.8,0.3,1.1-0.7,2.2-0.6h0c0.1,0,0.1,0.6,0.2,0.5c3.2,2,7.2,2.4,11.2,2.9
	l-0.1,0.2l0.1,0.1c0.1,0,0.1,0,0.2,0c0.6,0.1,1.2-0.1,1.7-0.2c0.7,0.1,1.3,0.1,2,0.2c0.1,0,0.1,0,0.2,0c-0.1,0-0.1,0-0.2,0
	c0.5,0.1,1,0.1,1.4,0.2l0,0c1.5,0.3,3.1,0.6,4.7,0.6c0.6,0,1.2,0.1,1.8,0.2c1.3,0.1,2.5,0.4,3.8,0.4c0.4,0,0.8,0.1,1.2,0.2
	c1.8,0.4,3.7,0.6,5.5,0.7c0,0,0,0,0,0l0,0c0.2,0,0.5-0.5,0.7-0.5c0.5,0.1,1.3-0.3,1.6-0.3c0,0,0,0,0,0c0,0-0.2,0.5-0.2,0.5
	c0.4,0.5,0.8,1,1.7,0.9c0.4-0.1,0.9,0.1,1.4,0.1c0.1-0.1,0.2-0.1,0.3-0.1c0.4,0.1,0.8,0.1,1.2,0.2c2,0.8,4.2,1.1,6.5,1
	c1.7-0.1,3.4,0,5,0.3c-0.5,0.1-1,0.1-1.5,0.1c-1.2,0-2.4,0.1-3.6,0.1c-0.1,0-0.2,0.1-0.3,0.1c0.3,0.3,0.8,0.2,1.3,0.2
	c0.8,0,1.6,0,2.3,0.3l-0.1,0c0.2,0,0.5,0,0.5,0c0-0.1,0.5,0,0.7,0l0.1,0.1c0.4,0.2,0.9,0.3,1.4,0.2l0,0c0.2,0,0.4,0,0.6,0
	c0.2,0,0.4,0,0.5,0c0.2,0,0.4,0,0.6,0c0.4,0,0.8,0,1.1,0c0.6-0.1,1.2-0.1,1.8,0c0.1,0,0.2,0,0.4,0c0.6,0.3,1.2,0.6,2,0.7
	c1.1,0.1,2.3,0,3.3-0.3c1.5-0.5,3.1-0.2,4.6,0c3.2,0.3,6.3-0.1,9.4,0c1.3,0.1,2.7,0,4,0.1c0.6,0.1,1.1,0.1,1.7-0.1
	c0.2,0,0.4-0.1,0.6-0.1c1.1-0.3,2.5,0.4,3.4-0.5c0,0,0.1,0.2,0.1,0.1c0,0,0.1,0.2,0.2,0.2c0,0,0,0,0,0c0.7-0.7,1.4-0.3,2.1-0.1
	c1.9,0.6,3.9,0.7,5.9,0.7c2.5,0,4.9-0.1,7.4-0.2c0.3,0.5,0.9,0.6,1.6,0.4c1.1-0.2,2.1,0,3.1,0.2c5.3-0.6,10.7-0.6,16-0.9
	c2.7-0.1,5.4-0.3,8-0.4c0.5,0,1.1,0,1.5-0.4c0.1-0.1,0.4-0.3,0.4-0.3c0,0,0.1,0.1,0.1,0.1c0,0,0.1-0.1,0.2-0.1
	c0.2,0,0.3,0.1,0.5,0.1l0.2-0.5c0.2,0,0.4,0.1,0.7-0.5c0,0,0,0,0,0l0,0c0,0,0,0,0,0c0.2,0.1,0.2,0.5,0.4,0.5l-0.1,0.2
	c0.2,0,0.4,0.1,0.5,0.1l0,0c0.4,0,0.8,0,1.2,0l0,0.1c0.2,0,0.2,0.1,0.7,0l0,0c-0.1,0,0.4-0.1,0.5,0l0,0.2c0,0,0.1-0.2,0.2-0.2
	c2.3,0,3.9-0.3,5.8-0.4c3.2,0,6.4-0.4,9.7-0.5c0.9,0,1.9,0.1,2.8-0.2c0.7,0,1.3,0.1,2,0.1c0.3,0,0.6-0.1,0.8-0.1V4.9z M311.9,35.4
	L311.9,35.4C311.9,35.4,311.9,35.4,311.9,35.4C311.9,35.4,311.9,35.4,311.9,35.4z M487,97.1L487,97.1L487,97.1
	C487,97.1,487,97.1,487,97.1z"/>
<g>
	<g>
		<path class="st35" d="M96.9,36.1c-0.2,0.4-0.4,0.8-0.5,1.3c-0.1,0.5-0.3,0.9-0.6,1.2v0.2c0,0.4-0.1,0.7-0.2,0.9
			c-0.1,0.3-0.3,0.5-0.5,0.7c0,0.1,0,0.2,0,0.3c0,0.3,0,0.5-0.1,0.6c-0.1,0.2-0.2,0.3-0.3,0.5c-0.1,0.1-0.2,0.3-0.3,0.4
			c-0.1,0.1-0.1,0.3-0.1,0.4c0,0.1,0,0.1,0,0.1c0,0,0,0.1,0,0.1c0,0,0,0.1-0.1,0.2l0,0.1c-0.4,0.7-0.7,1.4-1,2
			c-0.3,0.6-0.6,1.3-0.8,2.1c-0.1,0.1-0.3,0.4-0.5,0.9c-0.2,0.4-0.4,0.9-0.6,1.3c-0.2,0.4-0.4,0.8-0.6,1.2c-0.2,0.4-0.4,0.5-0.6,0.5
			h0v0.3c0,0.1,0,0.2,0,0.4c0,0.1-0.1,0.2-0.1,0.4c-0.1,0.1-0.2,0.3-0.3,0.7c-0.1,0.3-0.3,0.6-0.4,1c-0.1,0.3-0.3,0.6-0.5,0.9
			c-0.2,0.3-0.4,0.4-0.6,0.4h0c0,0.3-0.1,0.5-0.2,0.8c-0.1,0.3-0.3,0.5-0.4,0.7c-0.1,0.2-0.3,0.4-0.4,0.6c-0.1,0.1-0.2,0.3-0.3,0.3
			l-0.1,0.1c-0.1,0.1-0.2,0.2-0.2,0.2V58c0,0.2-0.1,0.3-0.3,0.4c-0.1,0-0.1,0.1-0.2,0.4c-0.1,0.2-0.3,0.5-0.5,0.8
			c-0.2,0.3-0.5,0.7-0.8,1.1c-0.3,0.4-0.7,0.8-1.1,1.3l-0.3,0.3c-0.1,0.1-0.2,0.1-0.3,0.1c-0.1,0-0.1,0-0.2,0l-0.1,0.1
			c-0.2,0.3-0.3,0.5-0.5,0.7c-0.2,0.2-0.3,0.3-0.6,0.5c-0.2,0.1-0.4,0.2-0.7,0.2c-0.1,0-0.2,0-0.3,0c-0.1,0-0.2,0.1-0.4,0.2
			c-0.1,0.1-0.4,0.2-0.7,0.2c-0.2,0-0.4,0-0.6-0.1c-0.2-0.1-0.5-0.1-0.7-0.2c-0.2-0.1-0.4-0.2-0.5-0.3c-0.1-0.1-0.2-0.2-0.2-0.3v0
			c-0.1,0-0.2-0.1-0.3-0.3c-0.1-0.1-0.2-0.3-0.3-0.5c-0.1-0.2-0.2-0.4-0.2-0.7c0-0.2-0.1-0.5-0.1-0.7c0-0.2,0.1-0.5,0.2-0.8
			c0.1-0.3,0.3-0.5,0.6-0.5c0.2,0,0.3,0.1,0.5,0.3c0.1-0.1,0.2-0.2,0.4-0.3c0.2-0.1,0.4-0.2,0.6-0.2c0.2,0,0.4-0.1,0.7-0.1H80
			c0.2,0,0.5-0.1,0.6-0.2c0.2-0.1,0.4-0.3,0.7-0.4c0.2-0.1,0.4-0.2,0.7-0.4c0.2-0.2,0.4-0.4,0.7-0.6c0.2-0.2,0.4-0.4,0.6-0.5
			c0.2-0.1,0.3-0.2,0.4-0.2l0.2-0.1c0.1-0.1,0.2-0.1,0.3-0.1c0,0,0.1-0.1,0.1-0.3c0-0.2,0-0.4,0.1-0.5c0.1-0.1,0.2-0.2,0.3-0.3
			c0.1-0.1,0.2-0.1,0.3-0.2c0.1,0,0.2-0.1,0.2-0.1c0,0,0,0-0.1-0.1c0,0,0-0.1,0-0.1c0-0.2,0.1-0.3,0.4-0.4v-0.1c0-0.4,0.1-0.7,0.4-1
			c0.3-0.3,0.4-0.4,0.5-0.4c0,0,0,0,0-0.1c0-0.1,0.1-0.2,0.2-0.4c0.1-0.1,0.1-0.3,0.2-0.4c0.1-0.1,0.1-0.3,0.2-0.4
			c0.2-0.2,0.4-0.5,0.5-0.7c0.1-0.2,0.2-0.4,0.2-0.5c0.1-0.1,0.1-0.2,0.2-0.3c0.1-0.1,0.2-0.1,0.4-0.2h0.1c0-0.1,0-0.2,0-0.4
			c0-0.3,0.1-0.6,0.2-0.9c0.1-0.3,0.3-0.5,0.5-0.7c0.3-0.6,0.6-1.3,0.8-1.8c0.2-0.6,0.5-1.2,0.9-1.8v-0.1c0-0.3,0.1-0.6,0.2-0.8
			c0.2-0.2,0.2-0.4,0.2-0.6l0-0.3c0.3-0.5,0.5-1,0.7-1.6c0.2-0.6,0.4-1.1,0.6-1.6l0-0.2l0-0.2c-0.1,0.1-0.2,0.2-0.3,0.4
			c-0.1,0.2-0.3,0.3-0.4,0.5c-0.1,0.2-0.3,0.3-0.4,0.4c-0.1,0.1-0.2,0.2-0.3,0.2h-0.1c0,0,0,0.1,0,0.1c0,0.1,0,0.1-0.1,0.2
			c-0.1,0.1-0.2,0.3-0.3,0.6c-0.1,0.3-0.3,0.5-0.4,0.8c-0.1,0.3-0.3,0.5-0.4,0.7c-0.1,0.2-0.3,0.3-0.4,0.3c-0.2,0-0.5-0.1-0.7-0.3
			s-0.3-0.4-0.5-0.6c-0.1-0.2-0.2-0.5-0.3-0.7c-0.1-0.2-0.1-0.4-0.1-0.5c0-0.6,0.1-1.1,0.3-1.6c0.2-0.4,0.5-0.8,0.8-1.2
			c0.3-0.3,0.7-0.6,1.1-0.9c0.4-0.3,0.8-0.5,1.2-0.7l0.3-0.2c0.1-0.2,0.3-0.4,0.5-0.4c0.2-0.1,0.4-0.1,0.6-0.1
			c0.2,0,0.4-0.1,0.6-0.1c0.2,0,0.2-0.1,0.2-0.2v-0.1c0-0.2,0.1-0.3,0.3-0.4c0.2-0.1,0.4-0.2,0.6-0.2h0.2c0.1-0.1,0.3-0.3,0.5-0.4
			c0.2-0.1,0.4-0.2,0.4-0.2c0.2,0,0.5,0.1,0.7,0.2c0.2,0.2,0.3,0.3,0.4,0.5c0.1,0.2,0.2,0.4,0.2,0.6c0,0.2,0.1,0.3,0.1,0.3
			C96.9,36,96.9,36,96.9,36.1C96.9,36,96.9,36.1,96.9,36.1z"/>
		<path class="st35" d="M113.3,53.7c-0.1,0.4-0.2,0.7-0.4,1c-0.2,0.4-0.4,0.7-0.6,0.9c-0.2,0.3-0.4,0.5-0.7,0.7
			c-0.2,0.2-0.4,0.3-0.4,0.3h-0.1c-0.1,0.1-0.1,0.2-0.1,0.2c-0.3,0.1-0.5,0.2-0.6,0.4c-0.1,0.1-0.2,0.2-0.2,0.3
			c0,0.1-0.1,0.1-0.1,0.2c0,0.1-0.1,0.1-0.2,0.1c-0.1,0-0.3,0.1-0.4,0.2c-0.1,0.1-0.2,0.2-0.3,0.4c-0.1,0.1-0.2,0.3-0.4,0.4
			c-0.1,0.1-0.3,0.2-0.5,0.3c-0.1,0.1-0.1,0.1-0.2,0.3c-0.1,0.1-0.2,0.3-0.4,0.4s-0.3,0.3-0.4,0.4c-0.1,0.1-0.3,0.2-0.4,0.2
			c-0.2,0.1-0.5,0.2-0.7,0.5c-0.2,0.3-0.5,0.5-0.9,0.6c-0.2,0.1-0.4,0.2-0.7,0.3c-0.2,0.1-0.5,0.3-0.7,0.4c-0.2,0.1-0.5,0.3-0.7,0.4
			c-0.2,0.1-0.5,0.2-0.7,0.2c-0.1,0.1-0.2,0.2-0.3,0.3c-0.1,0.1-0.3,0.1-0.6,0.1c-0.2,0-0.3,0-0.5-0.1c-0.1-0.1-0.2-0.2-0.3-0.2
			c0,0,0,0,0,0c-0.2-0.1-0.3-0.2-0.5-0.5c-0.1-0.2-0.2-0.5-0.3-0.8c-0.1-0.3-0.2-0.6-0.2-0.9c-0.1-0.3-0.1-0.6-0.1-0.9
			c0-0.7,0.1-1.3,0.4-1.8c0.3-0.5,0.5-1,0.7-1.5c0.1-0.1,0.2-0.3,0.3-0.6c0.1-0.2,0.2-0.5,0.3-0.7c0.1-0.2,0.2-0.5,0.3-0.7
			c0.1-0.2,0.2-0.3,0.3-0.3c0.3-0.4,0.5-0.9,0.8-1.4c0.3-0.5,0.6-1,0.9-1.4c-0.1,0-0.1-0.1-0.1-0.1c-0.1,0-0.2,0.1-0.2,0.1
			c-0.1,0.1-0.2,0.2-0.3,0.3c-0.1,0.1-0.2,0.2-0.2,0.3c-0.1,0.1-0.1,0.1-0.2,0.1c-0.3,0.1-0.6,0.4-0.9,0.7c-0.3,0.4-0.7,0.7-1.2,1
			l-0.7,0.7c-0.1,0.1-0.1,0.1-0.2,0.1c-0.2,0.3-0.4,0.6-0.7,0.7c-0.2,0.1-0.5,0.4-0.7,0.6c-0.1,0.2-0.3,0.4-0.5,0.6
			c-0.2,0.2-0.5,0.4-0.7,0.6c-0.2,0.2-0.5,0.4-0.7,0.5c-0.2,0.2-0.4,0.3-0.5,0.4l0,0c-0.2,0.2-0.5,0.5-0.8,0.7
			c-0.3,0.3-0.7,0.4-1.1,0.4c-0.1,0-0.3-0.1-0.6-0.2c-0.2-0.1-0.4-0.3-0.4-0.5c0-0.1,0-0.1,0-0.1l0,0c0-0.1-0.1-0.3-0.2-0.5
			c-0.1-0.2-0.2-0.4-0.2-0.6v0.1c-0.1-0.1-0.1-0.3-0.1-0.5c0-0.2,0-0.5,0-0.7c0-0.3,0-0.7,0.1-1.2c0.1-0.4,0.3-0.9,0.5-1.3l0.1-0.3
			c0.1-0.2,0.2-0.4,0.2-0.6c0-0.2,0.1-0.3,0.3-0.4c0.1,0,0.2-0.2,0.1-0.4c0-0.2,0-0.4,0.2-0.5c0-0.1,0.1-0.3,0.3-0.6
			c0.1-0.2,0.3-0.4,0.3-0.5l0-0.1c0,0,0-0.1,0-0.1c0-0.2,0.1-0.4,0.2-0.5c0.1-0.1,0.2-0.1,0.3-0.2c0,0,0-0.1,0-0.3l0.1-0.1
			c0,0,0-0.1,0.1-0.1c0.3-0.4,0.5-0.7,0.7-1c0.2-0.3,0.4-0.7,0.7-1c0-0.3,0-0.5,0.1-0.6c0.1-0.1,0.2-0.3,0.3-0.4
			c0.1-0.1,0.2-0.3,0.3-0.4c0-0.1,0.1-0.2,0.1-0.3c0-0.1,0.1-0.1,0.1-0.2c0,0,0.1-0.1,0.3-0.1c0.1,0,0.2,0,0.3,0.1
			c0.1,0,0.1,0.1,0.2,0.1h0c0.2,0.1,0.4,0.3,0.6,0.5c0.1,0.1,0.3,0.3,0.4,0.5c0.1,0.2,0.2,0.4,0.2,0.6l0,0.2c0,0.1,0,0.1,0.1,0.3
			c0,0.1,0.1,0.3,0.1,0.4c0,0.1,0,0.2-0.1,0.4c-0.1,0.2-0.2,0.3-0.4,0.3c-0.1,0-0.1,0-0.1,0.1c0,0.1-0.1,0.2-0.1,0.3
			c-0.1,0.1-0.1,0.2-0.3,0.3c-0.1,0.1-0.3,0.1-0.5,0.1c0,0.1,0,0.1,0,0.3c0,0.2-0.1,0.3-0.1,0.5c-0.1,0.2-0.2,0.3-0.3,0.4
			c-0.3,0.3-0.4,0.6-0.5,0.8c-0.1,0.3-0.3,0.5-0.6,0.8c-0.1,0.3-0.2,0.6-0.4,0.9c-0.2,0.3-0.4,0.6-0.6,0.8c-0.2,0.3-0.4,0.5-0.5,0.7
			c-0.1,0.2-0.2,0.4-0.2,0.6l0,0.1h0.2c0,0,0-0.1,0.1-0.1c0.1-0.1,0.2-0.1,0.2-0.1l0.4-0.4l0.7-0.6c0.2-0.1,0.3-0.2,0.5-0.3
			c0.2-0.1,0.3-0.2,0.5-0.4c0.2-0.2,0.4-0.5,0.7-0.7c0.3-0.2,0.6-0.4,0.9-0.6c0.3-0.2,0.5-0.3,0.7-0.5c0.2-0.1,0.3-0.3,0.4-0.4
			c0.9-0.9,2-1.8,3.1-2.5c1.1-0.7,2.2-1.5,3.3-2.2l0.1,0c0.1,0,0.2-0.1,0.2-0.1c0.1,0,0.2-0.1,0.4-0.3c0.2-0.2,0.4-0.3,0.8-0.3
			c0.1,0,0.3,0.1,0.6,0.4c0.3,0.3,0.4,0.5,0.4,0.8c0,0.1,0,0.1,0,0.2c0,0.1,0,0.1,0,0.2l0.1,0.8c0,0.4-0.1,0.7-0.3,0.9
			c-0.2,0.3-0.4,0.5-0.6,0.8c-0.2,0.3-0.5,0.5-0.7,0.8c-0.2,0.3-0.4,0.5-0.6,0.8c-0.2,0.4-0.4,0.7-0.6,1c-0.2,0.3-0.5,0.6-0.7,0.8
			c-0.2,0.3-0.4,0.5-0.6,0.7c-0.2,0.2-0.3,0.5-0.4,0.7c-0.1,0.4-0.3,0.8-0.6,1c-0.3,0.3-0.4,0.5-0.4,0.8l0,0.2c0,0,0,0.1-0.1,0.2
			c-0.2,0.3-0.4,0.7-0.6,1c-0.1,0.4-0.2,0.6-0.2,0.8c0,0.2,0,0.3,0.1,0.3c0.2,0,0.4,0,0.6-0.1c0.2-0.1,0.5-0.2,0.7-0.3
			c0.2-0.1,0.5-0.2,0.7-0.3c0.2-0.1,0.3-0.2,0.4-0.2c0,0,0,0,0.1-0.1c0.1-0.1,0.2-0.2,0.3-0.2c0.1-0.1,0.3-0.2,0.5-0.3
			c0.2-0.1,0.4-0.1,0.7-0.1c0.2-0.3,0.4-0.4,0.8-0.5c0.3-0.1,0.6-0.2,0.7-0.3l1.1-0.7c0,0,0.1-0.1,0.4-0.3c0.2-0.2,0.4-0.3,0.7-0.5
			c0.2-0.2,0.5-0.3,0.7-0.5c0.2-0.1,0.3-0.2,0.4-0.2l0.1,0c0,0,0,0,0.1-0.1c0.1-0.1,0.2-0.2,0.4-0.4c0.1-0.1,0.3-0.3,0.5-0.4
			c0.2-0.1,0.4-0.2,0.5-0.2c0.1,0,0.2,0.1,0.3,0.1l0.1,0.1C113.3,53.5,113.3,53.6,113.3,53.7z"/>
		<path class="st35" d="M125.7,48.3c-0.1,0.1-0.2,0.1-0.3,0.1c-0.1,0-0.3,0-0.5-0.1c-0.2-0.1-0.4-0.1-0.6-0.1c-1,0-1.5,0.1-1.5,0.2
			c0,0,0,0.1,0,0.1l0.1,0.1c0.4,0.4,0.7,0.7,1,1c0.3,0.3,0.4,0.6,0.4,0.8c0,0.1,0,0.1-0.1,0.2c0,0,0,0,0,0.1c0,0.1,0,0.2,0,0.3
			c0,0.1-0.1,0.2-0.1,0.3c-0.1,0.1-0.2,0.2-0.3,0.2c0,0.1,0.1,0.3,0.1,0.3v0.1c0,0.1-0.1,0.4-0.2,0.9c-0.1,0.4-0.5,1-1.2,1.8
			l0.1,0.2c0,0,0,0.1,0,0.1c0,0.1,0,0.3-0.1,0.6c-0.1,0.3-0.2,0.6-0.3,0.9c-0.1,0.3-0.3,0.6-0.4,0.9c-0.1,0.3-0.3,0.5-0.4,0.6
			c-0.1,0.4-0.2,0.8-0.5,1.4c-0.3,0.6-0.6,1-0.9,1.4c0,0.2,0.1,0.4,0.1,0.5c0,0.1,0,0.2-0.1,0.3l-0.1,0.1c0,0,0,0.1,0,0.1
			c-0.4,0.7-0.8,1.4-1,2c-0.3,0.6-0.7,1.3-1.2,2c-0.1,0.4-0.3,0.7-0.4,1c-0.2,0.3-0.4,0.5-0.7,0.8c-0.2,0.2-0.4,0.5-0.6,0.8
			c-0.1,0.3-0.4,0.6-0.9,0.7c-0.1,0-0.1,0.1-0.2,0.2c0,0.1-0.1,0.2-0.1,0.4c-0.1,0.1-0.1,0.3-0.2,0.4c-0.1,0.1-0.2,0.2-0.4,0.2
			c-0.1,0-0.1,0-0.1,0c0,0-0.1,0-0.1,0c-0.1,0-0.2,0.1-0.4,0.4c-0.2,0.3-0.4,0.4-0.7,0.4c-0.1,0-0.1,0-0.1,0c0,0-0.1,0.1-0.4,0.4
			c-0.3,0.3-0.8,0.4-1.3,0.4h-0.1c-0.1,0-0.2,0.1-0.5,0.3c-0.3,0.2-0.7,0.3-1.2,0.3c-0.2,0-0.5,0-0.6-0.1h-1.2c-0.1,0-0.2,0-0.3-0.1
			h0c0-0.1-0.2-0.1-0.5,0c-0.3,0-0.5-0.1-0.6-0.3c-0.4-0.1-0.7-0.4-0.9-0.6c-0.2-0.3-0.3-0.6-0.4-0.9c-0.1-0.3-0.2-0.7-0.2-1
			c-0.1-0.4-0.2-0.7-0.3-1c0-0.4,0-0.9,0.1-1.5c0.1-0.6,0.3-1,0.5-1.3c0.1-0.1,0.3-0.2,0.4-0.3c0.1-0.1,0.3-0.3,0.6-0.3
			c0.2,0,0.3,0.1,0.4,0.2c0.1,0.2,0.1,0.3,0.1,0.5l0,1.1c0,0,0,0.1,0,0.1c0,0,0,0.1,0,0.1c0.3,0.4,0.5,0.7,0.6,1
			c0,0.2,0.2,0.3,0.4,0.4c0.2,0,0.3,0,0.3,0.1c0,0.1,0.1,0.2,0.4,0.4c0.1,0,0.1,0,0.2-0.1c0.1-0.1,0.1-0.1,0.2-0.1
			c0.1,0,0.2,0,0.2,0.1c0.1,0.1,0.2,0.1,0.2,0.1c0.1,0,0.1,0,0.3,0h0.7c0,0,0.1,0,0.4-0.2c0.3-0.2,0.6-0.4,1-0.6
			c0.4-0.2,0.7-0.4,1-0.6c0.3-0.2,0.5-0.3,0.6-0.3c0-0.1,0.1-0.2,0.2-0.3c0.1-0.1,0.3-0.3,0.5-0.5c0.2-0.2,0.4-0.4,0.7-0.6
			c0.2-0.2,0.4-0.4,0.6-0.6v0c0,0,0.1-0.1,0.2-0.2c0.1-0.1,0.2-0.3,0.3-0.5c0.1-0.2,0.3-0.4,0.4-0.6c0.1-0.2,0.3-0.4,0.4-0.5
			c0-0.1,0.1-0.2,0.2-0.4c0.1-0.2,0.2-0.4,0.3-0.6c0.1-0.2,0.2-0.4,0.3-0.6c0.1-0.2,0.2-0.3,0.3-0.3v-0.1c0-0.3,0.1-0.5,0.2-0.7
			c0.1-0.2,0.2-0.4,0.3-0.6c0,0,0-0.1,0.1-0.3c0.1-0.2,0.2-0.4,0.2-0.7c0.1-0.3,0.2-0.5,0.3-0.7c0.1-0.2,0.2-0.4,0.2-0.4l0.2-0.2
			c0.1-0.6,0.3-1.3,0.6-1.8c0.3-0.6,0.5-1.1,0.7-1.7l-0.1,0.1c0,0-0.1,0.1-0.2,0.4c-0.2,0.2-0.4,0.4-0.6,0.7
			c-0.2,0.2-0.5,0.5-0.7,0.7c-0.2,0.2-0.4,0.3-0.6,0.4c-0.1,0-0.2,0-0.2,0.1c0,0.1-0.1,0.2-0.2,0.3c-0.3,0.4-0.6,0.7-0.8,0.8
			c-0.2,0.2-0.5,0.4-0.7,0.5c-0.2,0.1-0.5,0.3-0.8,0.5c-0.3,0.2-0.7,0.4-1.1,0.8c-0.1,0.1-0.2,0.1-0.4,0.3c-0.2,0.1-0.4,0.3-0.7,0.5
			c-0.3,0.2-0.6,0.3-0.9,0.4c-0.3,0.1-0.6,0.2-0.8,0.2c-0.3,0-0.5-0.1-0.7-0.2c-0.2-0.2-0.4-0.4-0.5-0.6c-0.1-0.3-0.2-0.5-0.3-0.9
			c-0.1-0.3-0.1-0.6-0.1-0.9c0-0.5,0.1-1,0.2-1.5c0.1-0.5,0.3-1,0.6-1.4c0.2-0.5,0.5-0.9,0.8-1.4s0.5-0.9,0.8-1.3l0.1-0.1
			c0.1-0.1,0.2-0.2,0.4-0.4c0.2-0.2,0.4-0.4,0.6-0.7c0.2-0.2,0.4-0.5,0.7-0.7c0.2-0.2,0.4-0.4,0.6-0.5c0,0,0.1-0.1,0.2-0.3
			c0.1-0.1,0.3-0.3,0.5-0.5c0.2-0.2,0.4-0.3,0.7-0.4c0.2-0.1,0.5-0.2,0.7-0.3c0.3-0.3,0.6-0.6,0.9-0.8c0.3-0.2,0.6-0.4,1-0.5
			c0.3-0.1,0.6-0.3,0.8-0.5c0.2-0.2,0.5-0.4,0.8-0.5c0.6-0.2,1.3-0.4,2-0.7c0.7-0.3,1.5-0.4,2.3-0.4h0.3c0.2,0,0.3,0.1,0.4,0.1
			c0.3,0,0.6,0.2,0.8,0.6c0.2,0.4,0.3,0.8,0.3,1.4c0,0.2,0,0.4-0.1,0.6C125.9,48,125.8,48.2,125.7,48.3z M122,48.6
			c-0.2,0.1-0.4,0.2-0.6,0.2c-0.2,0.1-0.5,0.2-0.7,0.3c-0.2,0.1-0.5,0.2-0.7,0.3c-0.2,0.1-0.4,0.2-0.5,0.4l-0.2,0.1
			c-0.3,0.1-0.5,0.2-0.7,0.4c-0.2,0.1-0.4,0.3-0.6,0.3c-0.1,0-0.1,0.1-0.3,0.1c-0.1,0.1-0.3,0.2-0.4,0.3c-0.1,0.1-0.3,0.2-0.5,0.3
			c-0.2,0.1-0.3,0.1-0.4,0.1c-0.1,0-0.2,0.1-0.3,0.2c-0.1,0.1-0.2,0.3-0.4,0.4c-0.2,0.2-0.4,0.3-0.6,0.5c-0.2,0.2-0.5,0.3-0.8,0.4
			c-0.1,0.1-0.1,0.2-0.2,0.4c-0.1,0.2-0.1,0.3-0.2,0.4c-0.1,0.1-0.2,0.2-0.4,0.4c-0.1,0.2-0.2,0.4-0.4,0.6c-0.1,0.2-0.3,0.4-0.4,0.5
			c-0.1,0.1-0.3,0.2-0.4,0.2c0,0,0,0,0,0.1c0,0,0,0,0,0c0,0,0,0.1,0,0.1c0,0.1-0.1,0.3-0.2,0.4c-0.1,0.1-0.2,0.3-0.4,0.5
			c-0.1,0.2-0.3,0.4-0.4,0.5c-0.1,0.2-0.2,0.4-0.2,0.6c0.3,0,0.6-0.1,0.9-0.2c0.3-0.1,0.5-0.3,0.8-0.4c0.2-0.2,0.5-0.3,0.7-0.5
			c0.2-0.1,0.5-0.2,0.8-0.3c0.3,0,0.4-0.1,0.4-0.2c0-0.1,0.1-0.2,0.3-0.2c0.3,0,0.7-0.2,1-0.6c0.3-0.3,0.7-0.7,1.1-0.9
			c0.1-0.1,0.3-0.3,0.4-0.5c0.1-0.2,0.3-0.3,0.6-0.4c0.3-0.4,0.6-0.7,1-1c0.3-0.3,0.7-0.6,1-0.9c0.3-0.3,0.6-0.6,0.9-0.9
			c0.3-0.3,0.5-0.6,0.6-1c0-0.1,0.1-0.3,0.3-0.5c0.1-0.2,0.3-0.3,0.3-0.4v-0.2L122,48.6z"/>
		<path class="st35" d="M139.6,53.9c-0.1,0.3-0.3,0.6-0.4,0.8c-0.1,0.2-0.2,0.4-0.3,0.7c0,0.1-0.1,0.2-0.2,0.3
			c-0.1,0.1-0.2,0.2-0.4,0.3c0,0.1-0.1,0.2-0.3,0.4c-0.2,0.2-0.3,0.4-0.5,0.6c-0.2,0.2-0.4,0.4-0.5,0.6c-0.2,0.2-0.3,0.3-0.3,0.3
			c-0.2,0.1-0.4,0.2-0.6,0.4c-0.2,0.2-0.3,0.4-0.5,0.6c-0.2,0.2-0.4,0.4-0.5,0.7c-0.2,0.2-0.4,0.4-0.7,0.5l0,0
			c-0.2,0.1-0.4,0.3-0.7,0.5c-0.3,0.2-0.6,0.5-1,0.7c-0.4,0.3-0.7,0.5-1.1,0.7c-0.4,0.2-0.6,0.3-0.9,0.3c-0.1,0-0.2,0-0.4,0
			c-0.2,0-0.3-0.1-0.4-0.1c-0.4-0.4-0.7-0.8-0.8-1.3c-0.2-0.5-0.2-1.1-0.2-1.6c0-0.2,0-0.4,0-0.7c0-0.3,0-0.5,0.1-0.8
			c0-0.3,0.1-0.5,0.2-0.7c0.1-0.2,0.2-0.4,0.3-0.5c0,0,0,0,0-0.1c0,0,0,0,0-0.1c0,0,0-0.2,0.1-0.3c0-0.2,0.1-0.4,0.2-0.6
			c0.1-0.2,0.2-0.5,0.3-0.7c0.1-0.2,0.3-0.4,0.4-0.6c0-0.1,0-0.3,0.1-0.5c0.1-0.2,0.2-0.3,0.4-0.4c0,0,0-0.1,0.1-0.4
			c0.1-0.2,0.2-0.5,0.4-0.8c0.1-0.3,0.3-0.5,0.4-0.8c0.1-0.2,0.2-0.4,0.2-0.4c0,0,0,0,0,0c-0.1,0-0.3,0-0.4,0.1c-0.1,0-0.3,0-0.4,0
			c-0.6,0-1.1-0.1-1.2-0.4c-0.2-0.3-0.3-0.7-0.4-1.2v-0.2c0-0.1,0-0.1,0.1-0.2v-0.1c0-0.1,0-0.3,0.1-0.4c0.1-0.2,0.1-0.3,0.1-0.4h0
			c-0.1,0-0.2,0.1-0.2,0.1c-0.2,0.1-0.3,0.3-0.5,0.4c-0.1,0.1-0.3,0.4-0.5,0.6c-0.2,0.3-0.3,0.5-0.5,0.9l-0.2,0.2c0,0,0,0.1,0,0.1
			c0,0,0,0,0,0.1c0,0.1-0.1,0.2-0.1,0.3c-0.1,0.1-0.2,0.2-0.3,0.4c-0.1,0.1-0.3,0.3-0.5,0.4l0,0c-0.1,0.1-0.3,0.3-0.4,0.5
			s-0.3,0.5-0.4,0.8c-0.1,0.3-0.3,0.5-0.4,0.7c-0.1,0.2-0.3,0.3-0.4,0.3c-0.2,0-0.4-0.1-0.5-0.2c-0.1-0.1-0.2-0.3-0.3-0.4
			c-0.1-0.2-0.1-0.3-0.2-0.5c0-0.1-0.1-0.2-0.1-0.3c0-0.5,0.1-1.1,0.3-1.6c0.2-0.5,0.4-0.9,0.7-1.2c0-0.3,0.1-0.4,0.3-0.5
			c0.2-0.1,0.3-0.1,0.3-0.2c0.1-0.2,0.3-0.3,0.5-0.4c0.2-0.1,0.3-0.1,0.3-0.2c0.5-0.5,1-1,1.4-1.3c0.4-0.3,0.8-0.7,1.3-1l0.3-0.2
			c0,0,0.1-0.1,0.1-0.1c0,0,0.2-0.2,0.5-0.5c0.3-0.3,0.6-0.6,1-1c0.4-0.3,0.8-0.6,1.2-0.9c0.4-0.3,0.8-0.4,1-0.4
			c0.4,0,0.6,0.2,0.7,0.7c0.1,0.5,0.1,0.9,0.1,1.4c0,0.1,0,0.3-0.1,0.6c-0.1,0.1-0.2,0.2-0.4,0.4c-0.2,0.2-0.4,0.4-0.6,0.6
			c-0.2,0.2-0.4,0.4-0.5,0.6c-0.1,0.2-0.2,0.4-0.2,0.5c0,0.1,0.1,0.2,0.3,0.2c0.1,0,0.3,0,0.4-0.1c0.1,0,0.3-0.1,0.6-0.1
			c0.2,0,0.4-0.2,0.6-0.3c0.2-0.2,0.4-0.2,0.5-0.2c0.2,0,0.3,0.1,0.4,0.2c0.1,0.1,0.2,0.3,0.3,0.4c0.1,0.2,0.1,0.3,0.1,0.5
			c0,0.2,0,0.3,0,0.5c0,0.3,0,0.4-0.1,0.3c0,0,0,0.1,0,0.1c0,0.1,0,0.2-0.1,0.2c-0.1,0.1-0.1,0.1-0.1,0.1c0,0-0.1,0.1-0.2,0.2
			c-0.1,0.1-0.2,0.3-0.3,0.5c-0.1,0.2-0.2,0.4-0.4,0.6c-0.1,0.2-0.3,0.4-0.4,0.5c-0.1,0.1-0.2,0.3-0.3,0.6c0,0.2-0.1,0.5-0.2,0.7
			c-0.1,0.1-0.1,0.3-0.3,0.6c-0.1,0.2-0.3,0.5-0.4,0.7c-0.1,0.3-0.3,0.5-0.4,0.7c-0.1,0.2-0.1,0.4-0.1,0.4c0,0,0,0-0.1,0.2
			c-0.1,0.1-0.1,0.3-0.2,0.5c-0.1,0.2-0.2,0.4-0.3,0.6c-0.1,0.2-0.2,0.4-0.4,0.5c0,0.1,0,0.1,0.1,0.2c0,0.1,0,0.1,0,0.2
			c0,0.1-0.1,0.3-0.2,0.4c-0.1,0.1-0.2,0.3-0.2,0.6c0,0.1,0,0.1,0.1,0.1c0.1,0,0.2-0.1,0.4-0.2c0.2-0.2,0.3-0.2,0.5-0.2
			c0,0,0.1,0,0.1,0c0,0,0.1,0,0.1,0c0.1,0,0.4-0.1,0.6-0.3c0.3-0.2,0.6-0.3,0.9-0.3l2.5-1.8c0.1,0,0.2-0.1,0.2-0.1l0.1,0
			c0.1-0.1,0.3-0.3,0.3-0.4c0.1-0.1,0.1-0.2,0.2-0.2c0.1,0,0.1-0.1,0.2-0.1c0.1,0,0.2-0.1,0.3-0.1c0.2-0.1,0.4-0.2,0.6-0.5
			c0.1-0.2,0.4-0.4,0.7-0.4c0.1,0,0.2,0,0.3,0.1l0.1,0.1C139.5,53.7,139.6,53.8,139.6,53.9z"/>
		<path class="st35" d="M153.4,53.1c0,0.3-0.1,0.5-0.3,0.7c-0.2,0.2-0.3,0.4-0.4,0.5l0,0.1l-0.1,0.1c-0.2,0.3-0.5,0.6-0.8,1.1
			c-0.3,0.4-0.7,0.9-1.1,1.3c-0.4,0.4-0.8,0.8-1.1,1.1c-0.4,0.3-0.7,0.4-0.9,0.4c-0.1,0-0.1,0-0.1,0c0,0-0.1,0-0.1,0
			c0,0.2-0.1,0.4-0.2,0.5c-0.1,0.1-0.2,0.2-0.4,0.2c-0.1,0.1-0.2,0.1-0.4,0.1c-0.1,0-0.2,0.1-0.2,0.2l-0.2,0.2l-0.3-0.1
			c-0.1,0-0.1,0.1-0.2,0.3c-0.1,0.2-0.3,0.3-0.6,0.3h-0.1c-0.1,0.1-0.1,0.1-0.3,0.2c-0.1,0.1-0.3,0.1-0.4,0.1c-0.1,0-0.1,0-0.2,0
			c-0.1,0.1-0.3,0.2-0.4,0.3l-0.1,0c-0.3,0-0.6,0.1-1,0.3s-0.8,0.2-1.2,0.3c-0.1,0.1-0.4,0.1-0.7,0.1c-0.3,0-0.6,0-0.8,0.1l-0.1,0.1
			l-0.1-0.1c-0.2-0.1-0.4-0.1-0.6-0.1c-0.8-0.1-1.6-0.5-2.2-1.2c-0.6-0.7-0.9-1.6-1-2.7l0.1-0.2c0-0.1,0.1-0.1,0.1-0.2
			c0-0.1,0-0.2-0.1-0.3l-0.1-0.2c0-0.7,0.1-1.3,0.3-1.9c0.1-0.6,0.3-1.1,0.5-1.6c0.2-0.5,0.5-1,0.8-1.4c0.3-0.5,0.6-1,1-1.5l0.1-0.1
			c0.1,0,0.2-0.1,0.3-0.2l0.1-0.1c0.3-0.3,0.7-0.6,0.9-0.8c0.3-0.2,0.5-0.4,0.8-0.7c0.3-0.2,0.5-0.5,0.8-0.7
			c0.3-0.2,0.7-0.5,1.1-0.8l0.2-0.1l0.4-0.1l0.1-0.3l0.3,0c0,0,0.1-0.1,0.3-0.2c0.2-0.1,0.5-0.2,0.8-0.2V46l1.3-0.1l0.1-0.1h0.1
			l0.4-0.1l0.1,0.1c0.1,0,0.2,0,0.4,0c0.1,0,0.2,0.1,0.4,0.2l0.1,0.1c0.2,0.4,0.4,0.8,0.6,1.3s0.2,0.9,0.2,1.4c0,0.4-0.1,0.7-0.1,1
			c-0.1,0.3-0.3,0.7-0.5,1l-0.1,0.1c-0.1,0-0.1,0.1-0.2,0.4c-0.1,0.2-0.3,0.4-0.6,0.5l-0.1,0.1c-0.1,0.1-0.2,0.2-0.4,0.4
			c-0.2,0.2-0.3,0.4-0.4,0.4v0c-0.3,0.4-0.7,0.7-1.1,0.9c-0.4,0.2-0.7,0.4-1.1,0.7l-0.1,0.1c-0.1,0.2-0.1,0.3-0.2,0.4
			c-0.1,0.1-0.2,0.1-0.4,0.2c-0.1,0-0.3,0.1-0.4,0.1c-0.1,0-0.3,0.1-0.4,0.1c-0.3,0.3-0.7,0.5-1.1,0.6c-0.4,0.2-0.8,0.3-1.2,0.3
			c-0.5,0-1.1-0.2-1.6-0.5c-0.1,0.1-0.1,0.3-0.1,0.4c0,0.2,0,0.3-0.1,0.5l0,0.1c0.1,0.5,0.2,0.9,0.4,1.1c0.1,0.2,0.5,0.4,1.1,0.5
			h1.3c0.5-0.2,1.1-0.3,1.7-0.4c0.6,0,1.1-0.2,1.4-0.4l0.2,0c0.2,0,0.5-0.1,0.7-0.3c0.2-0.2,0.5-0.3,0.8-0.3
			c0.3-0.3,0.7-0.6,1.1-0.8c0.4-0.2,0.8-0.4,1.2-0.7l0,0c0.4-0.3,0.8-0.6,1.2-0.9c0.4-0.3,0.7-0.6,1.1-0.9l1.6-1.4l0.2,0.4
			C153.3,52.7,153.4,52.9,153.4,53.1z M147,48.9c-0.1,0-0.1,0-0.1,0c-0.1,0-0.1,0-0.1,0l-0.1,0.1l-0.3,0.1c-0.4,0.1-0.8,0.2-1.3,0.4
			c-0.4,0.1-0.8,0.4-1.1,0.6c-0.2,0.2-0.4,0.4-0.7,0.6c-0.2,0.2-0.5,0.3-0.7,0.4h0c-0.3,0.3-0.6,0.6-1,0.9c-0.3,0.4-0.7,0.8-1,1.2
			l0.1,0.2c0.4-0.1,0.7-0.2,1.1-0.3c0.4-0.1,0.7-0.3,1-0.5l0.1-0.1c0.3-0.1,0.5-0.3,0.8-0.4c0.3-0.2,0.6-0.4,0.9-0.6l0.1-0.1
			c0.1-0.1,0.3-0.2,0.6-0.4c0.2-0.2,0.5-0.4,0.7-0.6c0.2-0.2,0.5-0.4,0.7-0.6c0.2-0.2,0.3-0.4,0.3-0.5V48.9L147,48.9z"/>
		<path class="st35" d="M170.9,39.1c0,0.1-0.1,0.2-0.4,0.5c-0.2,0.3-0.4,0.5-0.6,0.9c-0.3,0.5-0.6,1.1-1,1.6c-0.3,0.5-0.7,1.1-1,1.7
			c-0.5,1-1,1.9-1.6,2.8c-0.6,0.9-1.1,1.8-1.3,2.8c0,0,0,0.1-0.1,0.3c-0.1,0.2-0.2,0.3-0.2,0.4c-0.3,0.6-0.6,1.2-0.8,1.8
			c-0.2,0.7-0.5,1.2-0.9,1.6c0,0.1,0,0.2-0.1,0.4c-0.1,0.2-0.1,0.4-0.2,0.7c-0.1,0.2-0.2,0.5-0.3,0.7c-0.1,0.3-0.3,0.5-0.4,0.6
			c0,0.2,0.1,0.3,0.1,0.4c0,0.1,0,0.2-0.1,0.4c-0.1,0.2-0.1,0.3-0.2,0.5c-0.1,0.1-0.1,0.3-0.2,0.4c-0.1,0.1-0.1,0.2-0.1,0.2
			l-0.1,0.1c-0.1,0.3-0.1,0.6-0.2,0.9c-0.1,0.3-0.2,0.6-0.3,0.9c-0.2,0.5-0.3,0.9-0.4,1.3c-0.1,0.3-0.2,0.7-0.5,1.2
			c0,0,0,0.1-0.1,0.2c-0.1,0.2-0.2,0.4-0.3,0.6c-0.1,0.2-0.3,0.4-0.4,0.6c-0.1,0.2-0.3,0.3-0.4,0.3c-0.3,0-0.6-0.1-0.8-0.3
			c-0.2-0.2-0.4-0.4-0.5-0.7c-0.1-0.3-0.2-0.5-0.3-0.7c-0.1-0.2-0.1-0.4-0.1-0.4c0-0.4,0.1-0.7,0.3-1c0.2-0.3,0.3-0.5,0.3-0.8v-0.1
			c0-0.2,0-0.3,0.1-0.4c0.1-0.1,0.2-0.2,0.3-0.2c0,0,0-0.1,0-0.2c0,0,0.1-0.2,0.2-0.4c0.1-0.2,0.2-0.4,0.3-0.7
			c0-0.1,0.1-0.2,0.2-0.4c0.1-0.1,0.2-0.3,0.3-0.4c0.1-0.1,0.2-0.3,0.3-0.4c0.1-0.1,0.1-0.2,0.1-0.3l-0.1-0.2
			c-0.3,0.2-0.6,0.4-0.8,0.7c-0.2,0.3-0.5,0.5-0.8,0.9c-0.4,0.4-0.8,0.7-1.2,1c-0.4,0.3-0.9,0.5-1.3,0.8c-0.2,0.3-0.6,0.5-1,0.8
			c-0.5,0.2-1.1,0.4-1.9,0.4c-0.3,0-0.5,0-0.8-0.1c-0.2-0.1-0.5-0.2-0.7-0.4c-0.1-0.2-0.3-0.7-0.6-1.4c-0.3-0.7-0.4-1.4-0.4-2.2
			c0-0.7,0.1-1.3,0.4-1.8c0.2-0.2,0.3-0.4,0.5-0.6c0.1-0.2,0.3-0.4,0.4-0.7c0.2-0.2,0.3-0.4,0.5-0.6c0.2-0.2,0.4-0.3,0.7-0.4
			c0.2-0.3,0.5-0.7,0.8-1c0.3-0.3,0.7-0.5,1-0.8c0.3-0.2,0.6-0.4,0.8-0.6c0.2-0.1,0.4-0.3,0.4-0.4v-0.1c0,0,0,0,0.1,0
			c0.1,0,0.2-0.1,0.3-0.2c0.1-0.1,0.2-0.1,0.3-0.2c0.1-0.1,0.2-0.1,0.3-0.1l0.1-0.1c0.2-0.1,0.5-0.2,0.7-0.4
			c0.2-0.1,0.5-0.2,0.8-0.2c0.1-0.3,0.3-0.4,0.6-0.5c0.3,0,0.5-0.1,0.5-0.1c0,0,0,0,0,0c0,0,0-0.1,0.1-0.1c0,0,0,0,0.1-0.1
			c0.6-0.2,1.1-0.5,1.6-0.7c0.5-0.2,1.1-0.4,1.8-0.5c0.2,0,0.3,0.1,0.4,0.1c0,0.1,0.1,0.1,0.3,0.1c0.2,0,0.4,0,0.6,0.1
			c0.1-0.3,0.2-0.6,0.4-0.9c0.1-0.3,0.3-0.5,0.6-0.7c0.7-1.6,1.5-3.4,2.5-5.1v-0.4c0-0.2,0.1-0.3,0.2-0.4c0.1-0.1,0.3-0.1,0.3-0.1
			c0.1-0.1,0.1-0.3,0.1-0.5c0-0.2,0.1-0.3,0.1-0.5c0-0.2,0.1-0.3,0.2-0.5c0.1-0.2,0.2-0.3,0.4-0.5c0,0,0.1-0.1,0.1-0.2
			c0-0.1,0.1-0.3,0.2-0.4c0.1-0.1,0.2-0.3,0.3-0.4c0.1-0.1,0.3-0.2,0.5-0.2c0.2,0,0.3,0,0.4,0.1c0,0.1,0.1,0.2,0.1,0.3l0,0.1
			c0,0,0,0,0.1,0.1c0.1,0.1,0.2,0.3,0.2,0.5c0.1,0.2,0.2,0.5,0.3,0.8c0.1,0.3,0.1,0.6,0.1,0.9L170.9,39.1z M162,49.9
			c-0.2,0-0.4,0-0.7,0.1c-0.2,0.1-0.5,0.1-0.7,0.2c-0.2,0.1-0.4,0.1-0.5,0.2c-0.1,0.1-0.2,0.1-0.3,0.1c-0.1,0-0.1,0-0.1,0
			c-0.1,0-0.1,0-0.1,0c-0.1,0-0.2,0-0.4,0.1c-0.1,0.1-0.2,0.2-0.4,0.3c-0.1,0.1-0.3,0.2-0.4,0.3c-0.2,0.1-0.4,0.1-0.6,0.1
			c-0.5,0.4-0.9,0.7-1.3,0.9c-0.3,0.2-0.7,0.5-1.2,0.8c-0.4,0.3-0.9,0.7-1.4,1.1c-0.5,0.4-0.9,0.9-1.3,1.4c-0.4,0.5-0.7,1.1-1,1.7
			l0.1,0.1c0.1,0,0.2-0.1,0.3-0.1c0.1,0,0.2-0.1,0.3-0.1h0c0.3-0.1,0.7-0.2,1.1-0.3c0.4-0.1,0.8-0.2,1.2-0.4
			c0.2-0.1,0.4-0.2,0.6-0.3c0.1-0.1,0.3-0.2,0.5-0.2c0.2-0.1,0.3-0.2,0.5-0.2c0.2-0.1,0.3-0.1,0.4-0.2c0.1-0.1,0.2-0.1,0.2-0.2
			c0-0.1,0.1-0.1,0.1-0.2c0,0,0.1-0.1,0.2-0.1c0,0,0.1,0,0.1,0c0,0,0.1,0,0.1,0c0,0,0.1-0.1,0.2-0.2c0,0,0.2-0.1,0.6-0.4
			c0.4-0.2,0.8-0.5,1.3-0.9c0.4-0.3,0.9-0.7,1.3-1.2c0.4-0.4,0.6-0.9,0.6-1.4L162,49.9z"/>
		<path class="st35" d="M172.1,49.1c0,0.2,0,0.4-0.1,0.4c0,0.1-0.1,0.2-0.2,0.3c-0.1,0.1-0.2,0.2-0.3,0.4c-0.1,0.1-0.3,0.3-0.4,0.6
			c-0.1,0.2-0.3,0.4-0.6,0.7c-0.3,0.3-0.5,0.6-0.6,1.1c0,0,0,0,0,0c-0.1,0-0.2,0.1-0.3,0.3c-0.2,0.2-0.4,0.5-0.6,0.8
			c-0.2,0.3-0.4,0.7-0.7,1.1c-0.2,0.4-0.4,0.7-0.5,1.1v-0.1c-0.1,0.4-0.2,0.6-0.4,0.7c-0.2,0.1-0.3,0.3-0.3,0.5c0,0.1,0,0.1,0,0.1
			c0,0,0,0.1,0,0.1c0,0.1,0,0.2-0.1,0.3c-0.1,0.1-0.2,0.3-0.2,0.4c0.2,0,0.3,0,0.5-0.1c0.2-0.1,0.4-0.1,0.6-0.2
			c0.2-0.1,0.4-0.2,0.7-0.4c0.3-0.2,0.6-0.3,0.9-0.5c0.3-0.2,0.6-0.3,0.9-0.5c0.3-0.1,0.5-0.2,0.7-0.2c0.3,0,0.4,0.1,0.4,0.4
			c0,0.4-0.1,0.7-0.3,1.1c-0.2,0.4-0.4,0.7-0.7,1s-0.5,0.6-0.8,0.8c-0.3,0.3-0.6,0.5-0.8,0.7c-0.1,0.1-0.2,0.2-0.4,0.4
			c-0.2,0.2-0.5,0.4-0.7,0.6c-0.3,0.2-0.5,0.4-0.8,0.6c-0.3,0.2-0.5,0.3-0.6,0.3c-0.4,0-0.7-0.2-0.9-0.4c-0.2-0.3-0.4-0.5-0.5-0.9
			c-0.1-0.3-0.2-0.7-0.3-1c0-0.4-0.1-0.7-0.1-0.9c0-0.3,0-0.5,0.1-0.8c0-0.2,0.1-0.5,0.1-0.7c0.1-0.2,0.3-0.4,0.3-0.7
			c0.1-0.2,0.1-0.5,0.2-0.7c0-0.2,0.1-0.5,0.2-0.7c0.1-0.2,0.2-0.4,0.4-0.6c0.1-0.2,0.2-0.4,0.3-0.8c0.1-0.3,0.3-0.7,0.5-1
			c0.2-0.3,0.4-0.7,0.6-0.9c0.2-0.3,0.4-0.4,0.6-0.4v-0.2c0-0.2,0-0.4,0.1-0.5c0.1-0.1,0.1-0.2,0.2-0.2c0-0.1,0.2-0.3,0.3-0.6
			c0.2-0.3,0.4-0.7,0.8-1.3c0.1-0.1,0.2-0.3,0.4-0.6c0.1-0.2,0.3-0.5,0.4-0.7c0.2-0.2,0.3-0.4,0.5-0.6c0.2-0.2,0.4-0.2,0.6-0.2
			c0.4,0,0.6,0.2,0.6,0.5c0,0.4,0.1,0.8,0.3,1.5L172.1,49.1z M175.8,42.9c0,0.1,0,0.2,0.1,0.3c0,0.1,0,0.2,0,0.3
			c0,0.3-0.1,0.5-0.4,0.8c-0.3,0.2-0.6,0.4-1,0.6c-0.2,0.1-0.4,0.2-0.5,0.3c-0.1,0.1-0.2,0.2-0.3,0.3c-0.1,0.1-0.1,0.1-0.2,0.2
			c-0.1,0.1-0.2,0.1-0.3,0.1c-0.2,0-0.3,0-0.4-0.1c-0.1-0.1-0.2-0.2-0.2-0.3c-0.1-0.1-0.1-0.2-0.1-0.4c0-0.1-0.1-0.2-0.1-0.3
			c0-0.4,0.1-0.8,0.3-1.3c0.2-0.5,0.4-0.8,0.7-0.9c0.1,0,0.3-0.1,0.4-0.2c0.1-0.1,0.2-0.3,0.4-0.4c0.1-0.1,0.3-0.3,0.5-0.4
			c0.2-0.1,0.4-0.2,0.7-0.2c0.2,0,0.3,0.1,0.4,0.2l0.2,0.6c0,0,0,0.1,0,0.1c0,0.1,0,0.1,0,0.1c0,0,0,0.1,0,0.1
			C175.7,42.5,175.7,42.7,175.8,42.9z"/>
		<path class="st35" d="M188.9,53.1c0,0.3-0.1,0.5-0.3,0.7c-0.2,0.2-0.3,0.4-0.4,0.5l0,0.1l-0.1,0.1c-0.2,0.3-0.5,0.6-0.8,1.1
			c-0.3,0.4-0.7,0.9-1.1,1.3c-0.4,0.4-0.8,0.8-1.1,1.1c-0.4,0.3-0.7,0.4-0.9,0.4c-0.1,0-0.1,0-0.1,0c0,0-0.1,0-0.1,0
			c0,0.2-0.1,0.4-0.2,0.5c-0.1,0.1-0.2,0.2-0.4,0.2c-0.1,0.1-0.2,0.1-0.4,0.1c-0.1,0-0.2,0.1-0.2,0.2l-0.2,0.2l-0.3-0.1
			c-0.1,0-0.1,0.1-0.2,0.3c-0.1,0.2-0.3,0.3-0.6,0.3h-0.1c-0.1,0.1-0.1,0.1-0.3,0.2c-0.1,0.1-0.3,0.1-0.4,0.1c-0.1,0-0.1,0-0.2,0
			c-0.1,0.1-0.3,0.2-0.4,0.3l-0.1,0c-0.3,0-0.6,0.1-1,0.3c-0.4,0.1-0.8,0.2-1.2,0.3c-0.1,0.1-0.4,0.1-0.7,0.1c-0.3,0-0.6,0-0.8,0.1
			l-0.1,0.1l-0.1-0.1c-0.2-0.1-0.4-0.1-0.6-0.1c-0.8-0.1-1.6-0.5-2.2-1.2c-0.6-0.7-0.9-1.6-1-2.7l0.1-0.2c0-0.1,0.1-0.1,0.1-0.2
			c0-0.1,0-0.2-0.1-0.3l-0.1-0.2c0-0.7,0.1-1.3,0.3-1.9c0.1-0.6,0.3-1.1,0.5-1.6c0.2-0.5,0.5-1,0.8-1.4c0.3-0.5,0.6-1,1-1.5l0.1-0.1
			c0.1,0,0.2-0.1,0.3-0.2l0.1-0.1c0.3-0.3,0.7-0.6,0.9-0.8c0.3-0.2,0.5-0.4,0.8-0.7c0.3-0.2,0.5-0.5,0.8-0.7
			c0.3-0.2,0.7-0.5,1.1-0.8l0.2-0.1l0.4-0.1l0.1-0.3l0.3,0c0,0,0.1-0.1,0.3-0.2c0.2-0.1,0.5-0.2,0.8-0.2V46l1.3-0.1l0.1-0.1h0.1
			l0.4-0.1l0.1,0.1c0.1,0,0.2,0,0.4,0c0.1,0,0.2,0.1,0.4,0.2l0.1,0.1c0.2,0.4,0.4,0.8,0.6,1.3s0.2,0.9,0.2,1.4c0,0.4-0.1,0.7-0.1,1
			c-0.1,0.3-0.3,0.7-0.5,1l-0.1,0.1c-0.1,0-0.1,0.1-0.2,0.4c-0.1,0.2-0.3,0.4-0.6,0.5l-0.1,0.1c-0.1,0.1-0.2,0.2-0.4,0.4
			c-0.2,0.2-0.3,0.4-0.4,0.4v0c-0.3,0.4-0.7,0.7-1.1,0.9c-0.4,0.2-0.7,0.4-1.1,0.7l-0.1,0.1c-0.1,0.2-0.1,0.3-0.2,0.4
			c-0.1,0.1-0.2,0.1-0.4,0.2c-0.1,0-0.3,0.1-0.4,0.1c-0.1,0-0.3,0.1-0.4,0.1c-0.3,0.3-0.7,0.5-1.1,0.6c-0.4,0.2-0.8,0.3-1.2,0.3
			c-0.5,0-1.1-0.2-1.6-0.5c-0.1,0.1-0.1,0.3-0.1,0.4c0,0.2,0,0.3-0.1,0.5l0,0.1c0.1,0.5,0.2,0.9,0.4,1.1c0.1,0.2,0.5,0.4,1.1,0.5
			h1.3c0.5-0.2,1.1-0.3,1.7-0.4c0.6,0,1.1-0.2,1.4-0.4l0.2,0c0.2,0,0.5-0.1,0.7-0.3c0.2-0.2,0.5-0.3,0.8-0.3
			c0.3-0.3,0.7-0.6,1.1-0.8c0.4-0.2,0.8-0.4,1.2-0.7l0,0c0.4-0.3,0.8-0.6,1.2-0.9c0.4-0.3,0.7-0.6,1.1-0.9l1.6-1.4l0.2,0.4
			C188.8,52.7,188.9,52.9,188.9,53.1z M182.5,48.9c-0.1,0-0.1,0-0.1,0c-0.1,0-0.1,0-0.1,0l-0.1,0.1l-0.3,0.1
			c-0.4,0.1-0.8,0.2-1.3,0.4c-0.4,0.1-0.8,0.4-1.1,0.6c-0.2,0.2-0.4,0.4-0.7,0.6c-0.2,0.2-0.5,0.3-0.7,0.4h0c-0.3,0.3-0.6,0.6-1,0.9
			c-0.3,0.4-0.7,0.8-1,1.2l0.1,0.2c0.4-0.1,0.7-0.2,1.1-0.3c0.4-0.1,0.7-0.3,1-0.5l0.1-0.1c0.3-0.1,0.5-0.3,0.8-0.4
			c0.3-0.2,0.6-0.4,0.9-0.6l0.1-0.1c0.1-0.1,0.3-0.2,0.6-0.4c0.2-0.2,0.5-0.4,0.7-0.6c0.2-0.2,0.5-0.4,0.7-0.6
			c0.2-0.2,0.3-0.4,0.3-0.5V48.9L182.5,48.9z"/>
		<path class="st35" d="M206.3,53.7c-0.1,0.4-0.2,0.7-0.4,1c-0.2,0.4-0.4,0.7-0.6,0.9c-0.2,0.3-0.4,0.5-0.7,0.7
			c-0.2,0.2-0.4,0.3-0.4,0.3h-0.1c-0.1,0.1-0.1,0.2-0.1,0.2c-0.3,0.1-0.5,0.2-0.6,0.4c-0.1,0.1-0.2,0.2-0.2,0.3
			c0,0.1-0.1,0.1-0.1,0.2c0,0.1-0.1,0.1-0.2,0.1c-0.1,0-0.3,0.1-0.4,0.2c-0.1,0.1-0.2,0.2-0.3,0.4c-0.1,0.1-0.2,0.3-0.4,0.4
			c-0.1,0.1-0.3,0.2-0.5,0.3c-0.1,0.1-0.1,0.1-0.2,0.3c-0.1,0.1-0.2,0.3-0.4,0.4s-0.3,0.3-0.4,0.4c-0.1,0.1-0.3,0.2-0.4,0.2
			c-0.2,0.1-0.5,0.2-0.7,0.5c-0.2,0.3-0.5,0.5-0.9,0.6c-0.2,0.1-0.4,0.2-0.7,0.3c-0.2,0.1-0.5,0.3-0.7,0.4c-0.2,0.1-0.5,0.3-0.7,0.4
			c-0.2,0.1-0.5,0.2-0.7,0.2c-0.1,0.1-0.2,0.2-0.3,0.3c-0.1,0.1-0.3,0.1-0.6,0.1c-0.2,0-0.3,0-0.5-0.1c-0.1-0.1-0.2-0.2-0.3-0.2
			c0,0,0,0,0,0c-0.2-0.1-0.3-0.2-0.5-0.5c-0.1-0.2-0.2-0.5-0.3-0.8c-0.1-0.3-0.2-0.6-0.2-0.9c-0.1-0.3-0.1-0.6-0.1-0.9
			c0-0.7,0.1-1.3,0.4-1.8c0.3-0.5,0.5-1,0.7-1.5c0.1-0.1,0.2-0.3,0.3-0.6c0.1-0.2,0.2-0.5,0.3-0.7c0.1-0.2,0.2-0.5,0.3-0.7
			c0.1-0.2,0.2-0.3,0.3-0.3c0.3-0.4,0.5-0.9,0.8-1.4c0.3-0.5,0.6-1,0.9-1.4c-0.1,0-0.1-0.1-0.1-0.1c-0.1,0-0.2,0.1-0.2,0.1
			c-0.1,0.1-0.2,0.2-0.3,0.3c-0.1,0.1-0.2,0.2-0.2,0.3c-0.1,0.1-0.1,0.1-0.2,0.1c-0.3,0.1-0.6,0.4-0.9,0.7c-0.3,0.4-0.7,0.7-1.2,1
			l-0.7,0.7c-0.1,0.1-0.1,0.1-0.2,0.1c-0.2,0.3-0.4,0.6-0.7,0.7c-0.2,0.1-0.5,0.4-0.7,0.6c-0.1,0.2-0.3,0.4-0.5,0.6
			c-0.2,0.2-0.5,0.4-0.7,0.6c-0.2,0.2-0.5,0.4-0.7,0.5c-0.2,0.2-0.4,0.3-0.5,0.4l0,0c-0.2,0.2-0.5,0.5-0.8,0.7
			c-0.3,0.3-0.7,0.4-1.1,0.4c-0.1,0-0.4-0.1-0.6-0.2c-0.2-0.1-0.4-0.3-0.4-0.5c0-0.1,0-0.1,0-0.1l0,0c0-0.1-0.1-0.3-0.2-0.5
			c-0.1-0.2-0.2-0.4-0.2-0.6v0.1c-0.1-0.1-0.1-0.3-0.1-0.5c0-0.2,0-0.5,0-0.7c0-0.3,0-0.7,0.1-1.2c0.1-0.4,0.3-0.9,0.5-1.3l0.1-0.3
			c0.1-0.2,0.2-0.4,0.2-0.6c0-0.2,0.1-0.3,0.3-0.4c0.1,0,0.2-0.2,0.1-0.4c0-0.2,0-0.4,0.2-0.5c0-0.1,0.1-0.3,0.3-0.6
			c0.1-0.2,0.3-0.4,0.3-0.5l0-0.1c0,0,0-0.1,0-0.1c0-0.2,0.1-0.4,0.2-0.5c0.1-0.1,0.2-0.1,0.3-0.2c0,0,0-0.1,0-0.3l0.1-0.1
			c0,0,0-0.1,0.1-0.1c0.3-0.4,0.5-0.7,0.7-1c0.2-0.3,0.4-0.7,0.7-1c0-0.3,0-0.5,0.1-0.6c0.1-0.1,0.2-0.3,0.3-0.4
			c0.1-0.1,0.2-0.3,0.3-0.4c0-0.1,0.1-0.2,0.1-0.3c0-0.1,0.1-0.1,0.1-0.2c0,0,0.1-0.1,0.3-0.1c0.1,0,0.2,0,0.3,0.1
			c0.1,0,0.1,0.1,0.2,0.1h0c0.2,0.1,0.4,0.3,0.6,0.5c0.1,0.1,0.3,0.3,0.4,0.5c0.1,0.2,0.2,0.4,0.2,0.6l0,0.2c0,0.1,0,0.1,0.1,0.3
			c0,0.1,0.1,0.3,0.1,0.4c0,0.1,0,0.2-0.1,0.4c-0.1,0.2-0.2,0.3-0.4,0.3c-0.1,0-0.1,0-0.1,0.1c0,0.1-0.1,0.2-0.1,0.3
			c-0.1,0.1-0.1,0.2-0.3,0.3c-0.1,0.1-0.3,0.1-0.5,0.1c0,0.1,0,0.1,0,0.3c0,0.2-0.1,0.3-0.1,0.5c-0.1,0.2-0.2,0.3-0.3,0.4
			c-0.3,0.3-0.4,0.6-0.5,0.8c-0.1,0.3-0.3,0.5-0.6,0.8c-0.1,0.3-0.2,0.6-0.4,0.9c-0.2,0.3-0.4,0.6-0.6,0.8c-0.2,0.3-0.4,0.5-0.5,0.7
			c-0.1,0.2-0.2,0.4-0.2,0.6l0,0.1h0.2c0,0,0-0.1,0.1-0.1c0.1-0.1,0.2-0.1,0.2-0.1l0.4-0.4l0.7-0.6c0.2-0.1,0.3-0.2,0.5-0.3
			c0.2-0.1,0.3-0.2,0.5-0.4c0.2-0.2,0.4-0.5,0.7-0.7c0.3-0.2,0.6-0.4,0.9-0.6c0.3-0.2,0.5-0.3,0.7-0.5c0.2-0.1,0.3-0.3,0.4-0.4
			c0.9-0.9,2-1.8,3.1-2.5c1.1-0.7,2.2-1.5,3.3-2.2l0.1,0c0.1,0,0.2-0.1,0.2-0.1c0.1,0,0.2-0.1,0.4-0.3c0.2-0.2,0.4-0.3,0.8-0.3
			c0.1,0,0.3,0.1,0.6,0.4c0.3,0.3,0.4,0.5,0.4,0.8c0,0.1,0,0.1,0,0.2c0,0.1,0,0.1,0,0.2l0.1,0.8c0,0.4-0.1,0.7-0.3,0.9
			c-0.2,0.3-0.4,0.5-0.6,0.8c-0.2,0.3-0.5,0.5-0.7,0.8s-0.4,0.5-0.6,0.8c-0.2,0.4-0.4,0.7-0.6,1c-0.2,0.3-0.5,0.6-0.7,0.8
			c-0.2,0.3-0.4,0.5-0.6,0.7c-0.2,0.2-0.3,0.5-0.4,0.7c-0.1,0.4-0.3,0.8-0.6,1c-0.3,0.3-0.4,0.5-0.4,0.8l0,0.2c0,0,0,0.1-0.1,0.2
			c-0.2,0.3-0.4,0.7-0.6,1c-0.1,0.4-0.2,0.6-0.2,0.8c0,0.2,0,0.3,0.1,0.3c0.2,0,0.4,0,0.6-0.1c0.2-0.1,0.5-0.2,0.7-0.3
			c0.2-0.1,0.5-0.2,0.7-0.3c0.2-0.1,0.3-0.2,0.4-0.2c0,0,0,0,0.1-0.1c0.1-0.1,0.2-0.2,0.3-0.2c0.1-0.1,0.3-0.2,0.5-0.3
			c0.2-0.1,0.4-0.1,0.7-0.1c0.2-0.3,0.4-0.4,0.8-0.5c0.3-0.1,0.6-0.2,0.7-0.3l1.1-0.7c0,0,0.1-0.1,0.4-0.3c0.2-0.2,0.4-0.3,0.7-0.5
			c0.2-0.2,0.5-0.3,0.7-0.5c0.2-0.1,0.3-0.2,0.4-0.2l0.1,0c0,0,0,0,0.1-0.1c0.1-0.1,0.2-0.2,0.4-0.4c0.1-0.1,0.3-0.3,0.5-0.4
			c0.2-0.1,0.4-0.2,0.5-0.2c0.1,0,0.2,0.1,0.3,0.1l0.1,0.1C206.3,53.5,206.3,53.6,206.3,53.7z"/>
		<path class="st35" d="M222.6,42.2c0,0,0,0.1,0,0.1c0,0.1,0,0.3,0,0.4c0,0.2-0.1,0.3-0.2,0.3c-0.1,0.1-0.2,0.1-0.3,0.3
			c-0.1,0.1-0.2,0.3-0.3,0.4s-0.2,0.3-0.4,0.4c-0.2,0.1-0.4,0.2-0.6,0.2l-0.8,0c-0.1,0.1-0.2,0.1-0.4,0.1h-0.2
			c0,0.1-0.1,0.1-0.2,0.1c-0.1,0.1-0.2,0.1-0.3,0.1l-0.2,0c-0.3,0-0.5,0.1-0.7,0.3c-0.2,0.2-0.5,0.3-1,0.3h-0.2
			c-0.7,0.4-1.5,0.6-2.3,0.8l-1.3,0.4c-0.4,0.4-0.9,1-1.3,2c-0.1,0.1-0.1,0.2-0.2,0.3c-0.1,0-0.1,0-0.1,0c-0.1,0-0.1,0-0.1,0.1
			c0,0,0,0.1,0,0.1c0,0.1,0,0.2-0.1,0.2l0,0.1c-0.2,0.2-0.3,0.3-0.3,0.4v0.1c0,0.1,0,0.2-0.1,0.4c-0.1,0.1-0.2,0.2-0.3,0.3
			c-0.1,0.1-0.2,0.1-0.3,0.2c-0.1,0.1-0.1,0.1-0.1,0.2c0,0.1,0,0.1,0,0.1c0,0,0,0.1,0,0.1c0,0,0,0.1-0.1,0.2l-0.5,0.9
			c-0.1,0.1-0.1,0.3-0.3,0.5c-0.1,0.3-0.3,0.5-0.4,0.8s-0.3,0.5-0.4,0.7c-0.1,0.2-0.3,0.3-0.3,0.3v0.2c0,0.1-0.1,0.3-0.1,0.4
			c-0.1,0.1-0.2,0.2-0.3,0.3c-0.1,0.1-0.2,0.2-0.3,0.3c-0.1,0.1-0.1,0.2-0.1,0.3l0,0.2c0,0.1-0.1,0.2-0.1,0.3
			c-0.1,0.1-0.1,0.1-0.2,0.3c-0.1,0.1-0.1,0.3-0.2,0.5c-0.1,0.2-0.2,0.3-0.3,0.5c-0.1,0.2-0.2,0.3-0.4,0.4c0,0.1,0,0.1,0,0.2
			c0,0.2-0.1,0.4-0.2,0.5c-0.1,0.1-0.2,0.2-0.2,0.3c0,0,0,0.1,0,0.1c0,0.1-0.1,0.3-0.1,0.4c-0.1,0.1-0.1,0.2-0.1,0.3l0.1,0.3
			c0,0.1-0.1,0.2-0.1,0.3c-0.2,0.2-0.3,0.4-0.4,0.7c-0.1,0.3-0.2,0.6-0.3,0.9c-0.1,0.3-0.2,0.6-0.3,1c-0.1,0.3-0.3,0.6-0.5,0.8v0.4
			c0,0.2,0,0.5-0.1,0.8c-0.1,0.3-0.2,0.4-0.4,0.4l-0.7-0.1c-0.1,0-0.3-0.1-0.4-0.2c-0.2-0.1-0.3-0.2-0.5-0.4
			c-0.1-0.1-0.3-0.3-0.4-0.5c-0.1-0.2-0.2-0.4-0.2-0.5v0.1c0-0.1-0.1-0.2-0.1-0.3c0-0.1,0-0.1,0-0.2c0-0.2,0-0.5,0.1-0.8
			c0.1-0.3,0.1-0.5,0.2-0.6c0.2-0.4,0.5-0.9,0.7-1.4c0.2-0.5,0.5-1.1,0.8-1.7c0.3-0.3,0.5-0.7,0.7-1.2c0.1-0.5,0.3-0.9,0.6-1.3
			c0.5-0.6,0.9-1.3,1.2-2c0.3-0.7,0.7-1.4,1.2-1.9c0-0.3,0.1-0.5,0.3-0.6c0.2-0.1,0.3-0.2,0.3-0.3v-0.1c0-0.2,0.1-0.4,0.2-0.5
			c0.1-0.1,0.2-0.2,0.4-0.3c0.2-0.1,0.3-0.3,0.3-0.4c0-0.1,0.1-0.2,0.2-0.3c0.1,0,0.1-0.1,0.1-0.2c0-0.1,0-0.2,0.1-0.3
			c0-0.1,0.1-0.2,0.1-0.3c0.1-0.1,0.2-0.2,0.3-0.3L210,47c0,0,0-0.1-0.1-0.1c-0.1,0-0.1,0-0.3,0.1c-0.1,0.1-0.3,0.1-0.5,0.2
			c-0.2,0.1-0.4,0.1-0.6,0.2c-0.2,0.1-0.4,0.1-0.6,0.1h-0.2c-0.1,0-0.2,0-0.3,0.1c0,0.1-0.1,0.1-0.2,0.1c-0.1,0-0.1,0-0.2,0h0
			c-0.1,0-0.2,0-0.2,0c-0.1,0-0.2,0-0.3,0c-0.4,0-0.6-0.2-0.6-0.6c0,0,0,0,0,0c0.1-1,0.6-1.8,1.4-2.6c0-0.1,0.2-0.3,0.4-0.4
			c0.2-0.1,0.4-0.2,0.7-0.2c0.2,0,0.5-0.1,0.7-0.1c0.2,0,0.3,0,0.4,0h0c0.8,0,1.5-0.1,2.1-0.4c0.1,0,0.2-0.1,0.2-0.1
			c0,0,0.1,0,0.1,0c0,0,0.1,0,0.2,0c0,0,0.1-0.1,0.1-0.2c0.1-0.1,0.2-0.3,0.2-0.4c0.1-0.1,0.2-0.3,0.2-0.4c0.1-0.1,0.1-0.2,0.1-0.3
			c0.3-0.5,0.6-1.1,0.8-1.7c0.2-0.6,0.5-1.1,0.8-1.4l0-0.2c0-0.2,0.1-0.4,0.2-0.5c0.1-0.1,0.1-0.1,0.2-0.2c0,0,0-0.1,0-0.1
			c0,0,0,0,0-0.1l0-0.1c0.2-0.4,0.4-0.8,0.6-0.9c0.2-0.2,0.5-0.3,0.9-0.3c0.2,0,0.5,0,0.8,0.1c0.3,0,0.5,0.2,0.5,0.4v0.1
			c0,0.1,0,0.1,0.1,0.2c0.1,0.1,0.1,0.2,0.1,0.3l0,0.1c0.1,0.4,0.2,0.8,0.2,1.3V39c-0.1,0.1-0.2,0.3-0.3,0.4
			c-0.1,0.1-0.2,0.3-0.3,0.4c-0.1,0.1-0.2,0.2-0.4,0.3c-0.1,0.2-0.1,0.4-0.3,0.6c-0.1,0.2-0.3,0.3-0.5,0.4c-0.2,0.1-0.3,0.3-0.4,0.4
			c-0.1,0.1-0.2,0.3-0.2,0.4c0,0.1,0,0.3-0.1,0.3c-0.1,0.1-0.2,0.1-0.3,0.1c-0.1,0.1-0.2,0.1-0.3,0.2c-0.1,0.1-0.1,0.2-0.1,0.3
			c0,0,0,0,0,0.1c0,0,0,0,0,0.1c0.2,0,0.4-0.1,0.7-0.2c0.2-0.1,0.5-0.1,0.8-0.1c0.2,0,0.4,0,0.6,0.1c0,0,0.1-0.1,0.2-0.2
			c0.1-0.1,0.2-0.1,0.3-0.1c0.1,0,0.1,0,0.2,0c0.1,0,0.1,0,0.2,0c0.1,0,0.2,0,0.3,0c0.1,0,0.2,0,0.3,0c0.3,0,0.5,0.1,0.6,0.2
			c0.1,0,0.3-0.1,0.4-0.1c0.1,0,0.3,0,0.4-0.1h0.2l1.9-0.3C222.4,42.2,222.6,42.2,222.6,42.2z"/>
		<path class="st35" d="M228.8,53.1c0,0.3-0.1,0.5-0.3,0.7c-0.2,0.2-0.3,0.4-0.4,0.5l0,0.1l-0.1,0.1c-0.2,0.3-0.5,0.6-0.8,1.1
			c-0.3,0.4-0.7,0.9-1.1,1.3c-0.4,0.4-0.8,0.8-1.1,1.1c-0.4,0.3-0.7,0.4-0.9,0.4c-0.1,0-0.1,0-0.1,0c0,0-0.1,0-0.1,0
			c0,0.2-0.1,0.4-0.2,0.5c-0.1,0.1-0.2,0.2-0.4,0.2c-0.1,0.1-0.2,0.1-0.4,0.1c-0.1,0-0.2,0.1-0.2,0.2l-0.2,0.2l-0.3-0.1
			c-0.1,0-0.1,0.1-0.2,0.3c-0.1,0.2-0.3,0.3-0.6,0.3h-0.1c-0.1,0.1-0.1,0.1-0.3,0.2c-0.1,0.1-0.3,0.1-0.4,0.1c-0.1,0-0.1,0-0.2,0
			c-0.1,0.1-0.3,0.2-0.4,0.3l-0.1,0c-0.3,0-0.6,0.1-1,0.3c-0.4,0.1-0.8,0.2-1.2,0.3c-0.1,0.1-0.4,0.1-0.7,0.1c-0.3,0-0.6,0-0.8,0.1
			l-0.1,0.1l-0.1-0.1c-0.2-0.1-0.4-0.1-0.6-0.1c-0.8-0.1-1.6-0.5-2.2-1.2c-0.6-0.7-0.9-1.6-1-2.7l0.1-0.2c0-0.1,0.1-0.1,0.1-0.2
			c0-0.1,0-0.2-0.1-0.3l-0.1-0.2c0-0.7,0.1-1.3,0.3-1.9c0.1-0.6,0.3-1.1,0.5-1.6c0.2-0.5,0.5-1,0.8-1.4c0.3-0.5,0.6-1,1-1.5l0.1-0.1
			c0.1,0,0.2-0.1,0.3-0.2l0.1-0.1c0.3-0.3,0.7-0.6,0.9-0.8c0.3-0.2,0.5-0.4,0.8-0.7c0.3-0.2,0.5-0.5,0.8-0.7
			c0.3-0.2,0.7-0.5,1.1-0.8l0.2-0.1l0.4-0.1l0.1-0.3l0.3,0c0,0,0.1-0.1,0.3-0.2c0.2-0.1,0.5-0.2,0.8-0.2V46l1.3-0.1l0.1-0.1h0.1
			l0.4-0.1l0.1,0.1c0.1,0,0.2,0,0.4,0c0.1,0,0.2,0.1,0.4,0.2l0.1,0.1c0.2,0.4,0.4,0.8,0.6,1.3s0.2,0.9,0.2,1.4c0,0.4-0.1,0.7-0.1,1
			c-0.1,0.3-0.3,0.7-0.5,1l-0.1,0.1c-0.1,0-0.1,0.1-0.2,0.4c-0.1,0.2-0.3,0.4-0.6,0.5l-0.1,0.1c-0.1,0.1-0.2,0.2-0.4,0.4
			c-0.2,0.2-0.3,0.4-0.4,0.4v0c-0.3,0.4-0.7,0.7-1.1,0.9c-0.4,0.2-0.7,0.4-1.1,0.7l-0.1,0.1c-0.1,0.2-0.1,0.3-0.2,0.4
			c-0.1,0.1-0.2,0.1-0.4,0.2c-0.1,0-0.3,0.1-0.4,0.1c-0.1,0-0.3,0.1-0.4,0.1c-0.4,0.3-0.7,0.5-1.1,0.6c-0.4,0.2-0.8,0.3-1.2,0.3
			c-0.5,0-1.1-0.2-1.6-0.5c-0.1,0.1-0.1,0.3-0.1,0.4c0,0.2,0,0.3-0.1,0.5l0,0.1c0.1,0.5,0.2,0.9,0.4,1.1c0.1,0.2,0.5,0.4,1.1,0.5
			h1.3c0.5-0.2,1.1-0.3,1.7-0.4c0.6,0,1.1-0.2,1.4-0.4l0.2,0c0.2,0,0.5-0.1,0.7-0.3c0.2-0.2,0.5-0.3,0.8-0.3
			c0.3-0.3,0.7-0.6,1.1-0.8c0.4-0.2,0.8-0.4,1.2-0.7l0,0c0.4-0.3,0.8-0.6,1.2-0.9c0.4-0.3,0.7-0.6,1.1-0.9l1.6-1.4l0.2,0.4
			C228.7,52.7,228.8,52.9,228.8,53.1z M222.4,48.9c-0.1,0-0.1,0-0.1,0c-0.1,0-0.1,0-0.1,0l-0.1,0.1l-0.3,0.1
			c-0.4,0.1-0.8,0.2-1.3,0.4c-0.4,0.1-0.8,0.4-1.1,0.6c-0.2,0.2-0.4,0.4-0.7,0.6c-0.2,0.2-0.5,0.3-0.7,0.4h0c-0.3,0.3-0.6,0.6-1,0.9
			c-0.3,0.4-0.7,0.8-1,1.2l0.1,0.2c0.4-0.1,0.7-0.2,1.1-0.3c0.4-0.1,0.7-0.3,1-0.5l0.1-0.1c0.3-0.1,0.5-0.3,0.8-0.4
			c0.3-0.2,0.6-0.4,0.9-0.6l0.1-0.1c0.1-0.1,0.3-0.2,0.6-0.4c0.2-0.2,0.5-0.4,0.7-0.6c0.2-0.2,0.5-0.4,0.7-0.6
			c0.2-0.2,0.3-0.4,0.3-0.5V48.9L222.4,48.9z"/>
		<path class="st35" d="M240.1,46.4c0,0.1,0,0.2,0,0.3c0,0.1,0,0.2-0.1,0.3v0c0,0.1-0.1,0.3-0.1,0.5c-0.1,0.2-0.1,0.4-0.2,0.6
			c-0.1,0.2-0.2,0.4-0.3,0.5c-0.1,0.1-0.3,0.2-0.4,0.2c-0.1,0-0.2,0-0.4,0.1c-0.2,0-0.3,0.1-0.3,0.1l0,0c-0.1,0.1-0.2,0.1-0.2,0.1
			c-0.2,0-0.3,0-0.3-0.1c-0.4,0.2-0.8,0.3-1.3,0.4c-0.2,0.1-0.5,0.2-0.9,0.3c-0.3,0.1-0.6,0.2-0.7,0.2h-0.1c-0.1,0-0.2,0-0.4,0.1
			c-0.2,0.1-0.5,0.2-0.7,0.4s-0.5,0.3-0.8,0.5c-0.3,0.2-0.5,0.3-0.7,0.5l-0.5,0.4c0,0-0.1,0.1-0.2,0.1c-0.1,0.1-0.2,0.1-0.3,0.2
			c-0.1,0.1-0.2,0.2-0.3,0.3c-0.1,0.1-0.1,0.2-0.1,0.2c0,0.1,0.1,0.1,0.2,0.1c0.2,0,0.4,0.1,0.6,0.1c0.2,0,0.5,0.1,0.7,0.1
			c0.2,0,0.4,0.1,0.6,0.2h0c0,0,0.2,0,0.5,0.1c0.3,0.1,0.7,0.1,1,0.2c0.4,0.1,0.7,0.2,1,0.4c0.3,0.2,0.4,0.3,0.4,0.5
			c0,0,0.1,0.1,0.2,0.1c0.1,0,0.3,0.1,0.4,0.1c0.1,0.1,0.3,0.2,0.4,0.3c0.1,0.1,0.2,0.4,0.2,0.7c0,0.3-0.1,0.6-0.2,0.8
			c-0.2,0.2-0.2,0.5-0.2,0.7c-0.1,0.2-0.3,0.5-0.4,0.7c-0.1,0.3-0.2,0.5-0.4,0.8c-0.1,0.3-0.3,0.5-0.6,0.7c-0.2,0.2-0.5,0.4-0.9,0.4
			c-0.2,0.3-0.6,0.5-0.9,0.7c-0.4,0.2-0.7,0.4-0.9,0.5h0c-0.4,0.2-0.8,0.4-1.1,0.5c-0.3,0.1-0.7,0.3-1.1,0.4
			c-0.4,0.1-0.8,0.2-1.2,0.3c-0.3,0.3-0.8,0.5-1.4,0.6c-0.6,0.1-1.2,0.2-1.8,0.2h-0.1c-0.2,0-0.5-0.1-0.6-0.2
			c-0.2-0.1-0.3-0.3-0.4-0.5c-0.1-0.2-0.2-0.4-0.2-0.6c0-0.2-0.1-0.4-0.1-0.4c0-0.7,0.2-1.3,0.5-1.8c0.3-0.5,0.7-0.8,1.2-0.8
			c0.1,0,0.2,0.1,0.2,0.1c0,0.1,0,0.1,0,0.1c0,0.1,0,0.2,0.1,0.4c0,0.2,0.1,0.4,0.2,0.5c0,0,0.1-0.1,0.2-0.1c0.1,0,0.2-0.1,0.3-0.1
			c0.1,0,0.2,0,0.3,0.1c0.1,0,0.2,0.1,0.3,0.1c0.2,0,0.4-0.1,0.7-0.2c0.3-0.1,0.7-0.2,1.3-0.4c0.5-0.1,1-0.3,1.5-0.5
			c0.5-0.2,0.9-0.3,1.2-0.3c0.1-0.2,0.3-0.4,0.5-0.5c0.2-0.1,0.4-0.2,0.6-0.3c0.2-0.1,0.4-0.1,0.6-0.2c0.2-0.1,0.4-0.2,0.5-0.3
			l0-0.1l0,0c0-0.1-0.1-0.1-0.2-0.1H234c-0.1,0-0.2,0-0.2-0.1c-0.2-0.2-0.4-0.3-0.6-0.4c-0.2,0-0.5-0.1-0.9-0.1h0
			c-0.1,0-0.3,0-0.5,0c-0.2,0-0.5-0.1-0.8-0.1c-0.3,0-0.6-0.1-0.9-0.2c-0.3-0.1-0.5-0.1-0.7-0.2c0,0-0.1,0-0.2,0l-0.3,0
			c-0.3-0.1-0.6-0.2-1-0.4c-0.4-0.2-0.5-0.6-0.5-1.2c0-0.6,0.2-1.2,0.5-1.8c0.4-0.6,0.8-1.1,1.4-1.6c0.5-0.5,1.1-0.9,1.7-1.3
			c0.6-0.4,1.2-0.7,1.7-1l0.3-0.2c0.1-0.2,0.3-0.3,0.5-0.4c0.2-0.1,0.4-0.2,0.6-0.3c0-0.1,0.1-0.2,0.4-0.3c0.3-0.1,0.6-0.3,0.9-0.5
			c0.3-0.2,0.7-0.3,1-0.5c0.3-0.2,0.6-0.3,0.7-0.4c0,0,0,0,0.2-0.1c0.1,0,0.3-0.1,0.5-0.2c0.2-0.1,0.4-0.1,0.7-0.2
			c0.3-0.1,0.5-0.1,0.7-0.1l0.1-0.1c0,0,0.1-0.1,0.3-0.1c0.3,0,0.4,0.2,0.5,0.5c0.1,0.3,0.1,0.5,0.1,0.7L240.1,46.4z"/>
	</g>
</g>
</svg>
